<?xml version="1.0" standalone="no"?>
<!DOCTYPE svg PUBLIC "-//W3C//DTD SVG 1.1//EN" "http://www.w3.org/Graphics/SVG/1.1/DTD/svg11.dtd" >
<svg xmlns="http://www.w3.org/2000/svg" xmlns:xlink="http://www.w3.org/1999/xlink" version="1.1">
<metadata>
Created by FontForge 20170731 at Fri Oct 24 19:03:24 2014
 By Aleksey,,,
Copyright (c) 2012 by Fontfabric LLC. All rights reserved.
</metadata>
<defs>
<font id="Panton-BlackItalic" horiz-adv-x="556" >
  <font-face 
    font-family="Panton Black Italic"
    font-weight="900"
    font-style="italic"
    font-stretch="normal"
    units-per-em="1000"
    panose-1="0 0 10 0 0 0 0 0 0 0"
    ascent="740"
    descent="-260"
    x-height="520"
    cap-height="710"
    bbox="-196.895 -260 1249.85 992.257"
    underline-thickness="50"
    underline-position="-300"
    unicode-range="U+0020-FB02"
  />
<missing-glyph horiz-adv-x="686" 
d="M638 42q0 -23 -9.5 -32.5t-33.5 -9.5h-499q-24 0 -33.5 9.5t-9.5 32.5v626q0 23 9.5 32.5t33.5 9.5h499q24 0 33.5 -9.5t9.5 -32.5v-626zM251 535v-360h189v360h-189z" />
    <glyph glyph-name="fi" unicode="fi" horiz-adv-x="618" 
d="M615 740q22 0 29 -8.5t3 -30.5l-13 -73q-4 -22 -14 -31t-32 -9h-200q-67 0 -78 -64l-1 -4h268q22 0 28.5 -8.5t2.5 -29.5l-78 -444q-4 -21 -13.5 -29.5t-31.5 -8.5h-110q-22 0 -28.5 8.5t-2.5 29.5l58 330h-120l-58 -330q-4 -21 -14 -29.5t-32 -8.5h-108q-22 0 -29 8.5
t-3 29.5l58 330h-33q-21 0 -28 8.5t-3 30.5l13 75q4 21 13.5 29.5t31.5 8.5h33v3q38 217 279 217h213z" />
    <glyph glyph-name="fl" unicode="fl" horiz-adv-x="619" 
d="M615 740q22 0 29 -8.5t3 -30.5l-117 -663q-4 -21 -13.5 -29.5t-31.5 -8.5h-110q-22 0 -28.5 8.5t-2.5 29.5l97 550h-53q-68 0 -78 -64l-1 -4h40q21 0 28 -8.5t3 -29.5l-13 -75q-4 -22 -13.5 -30.5t-31.5 -8.5h-40l-58 -330q-4 -21 -14 -29.5t-32 -8.5h-108q-22 0 -29 8.5
t-3 29.5l58 330h-33q-21 0 -28 8.5t-3 30.5l13 75q4 21 13.5 29.5t31.5 8.5h33v4q19 109 91 162.5t188 53.5h213z" />
    <glyph glyph-name=".notdef" horiz-adv-x="686" 
d="M638 42q0 -23 -9.5 -32.5t-33.5 -9.5h-499q-24 0 -33.5 9.5t-9.5 32.5v626q0 23 9.5 32.5t33.5 9.5h499q24 0 33.5 -9.5t9.5 -32.5v-626zM251 535v-360h189v360h-189z" />
    <glyph glyph-name=".null" horiz-adv-x="600" 
 />
    <glyph glyph-name="nonmarkingreturn" horiz-adv-x="333" 
 />
    <glyph glyph-name="space" unicode=" " horiz-adv-x="182" 
 />
    <glyph glyph-name="exclam" unicode="!" horiz-adv-x="284" 
d="M277 739q21 0 28.5 -8t3.5 -29l-94 -431q-5 -22 -14 -30t-30 -8h-81q-21 0 -28 8.5t-4 29.5l60 431q3 21 13 29t32 8h114zM146 183q44 0 58 -17t7 -61l-6 -35q-8 -44 -28 -61t-65 -17h-50q-44 0 -58 17t-7 61l6 35q8 44 28 61t65 17h50z" />
    <glyph glyph-name="quotedbl" unicode="&#x22;" horiz-adv-x="410" 
d="M207 478q-7 -21 -15 -26.5t-31 -5.5h-61q-22 0 -27.5 5.5t-1.5 26.5l35 198q3 22 10.5 28t29.5 6h88q22 0 28.5 -6.5t0.5 -27.5zM388 478q-7 -21 -15 -26.5t-31 -5.5h-61q-22 0 -27.5 5.5t-1.5 26.5l35 198q4 22 11.5 28t28.5 6h88q22 0 28.5 -6.5t0.5 -27.5z" />
    <glyph glyph-name="numbersign" unicode="#" horiz-adv-x="770" 
d="M758 539q22 0 26.5 -8t-5.5 -29l-39 -83q-16 -35 -57 -35h-57l-47 -97h60q22 0 27 -8.5t-5 -28.5l-41 -83q-10 -20 -22.5 -28t-34.5 -8h-58l-43 -93q-18 -38 -56 -38h-91q-22 0 -26.5 9t5.5 29l43 93h-88l-43 -93q-11 -21 -23 -29.5t-33 -8.5h-92q-40 0 -20 38l44 93h-59
q-21 0 -26 8.5t5 29.5l40 83q10 20 22 27.5t35 7.5h57l46 97h-59q-22 0 -27 8.5t5 28.5l40 83q9 20 22 27.5t35 7.5h58l45 96q18 38 55 38h92q22 0 26.5 -9t-5.5 -29l-46 -96h88l46 96q18 38 56 38h91q40 0 20 -38l-45 -96h59zM370 384l-47 -97h88l47 97h-88z" />
    <glyph glyph-name="dollar" unicode="$" horiz-adv-x="622" 
d="M446 761q21 0 28 -8.5t3 -29.5l-6 -34q110 -20 142 -126q7 -20 -0.5 -32t-31.5 -22l-97 -40q-22 -9 -32 -5t-17 26q-9 26 -26.5 37.5t-54.5 11.5q-44 0 -65 -10.5t-26 -34.5q-4 -23 19.5 -33.5t75.5 -17.5q40 -5 68 -11t65 -22.5t57.5 -39.5t31 -63.5t1.5 -93.5
q-14 -83 -70.5 -127t-156.5 -62l-6 -35q-4 -22 -13.5 -30.5t-31.5 -8.5h-103q-22 0 -29 8.5t-3 30.5l5 33q-146 23 -167 138q-7 39 36 53l98 33q23 9 35 4.5t19 -25.5q14 -49 90 -49q95 0 104 48q4 23 -18.5 33.5t-70.5 16.5q-41 6 -68.5 12t-66 22.5t-60 39.5t-33 63
t-2.5 93q27 152 222 185l6 34q4 22 13.5 30t31.5 8h104z" />
    <glyph glyph-name="percent" unicode="%" horiz-adv-x="904" 
d="M71 569q14 73 67.5 114.5t139.5 41.5t124.5 -41.5t25.5 -114.5l-13 -76q-13 -72 -66.5 -113t-139.5 -41t-125 41t-26 113zM834 710q21 0 25 -12t-11 -28l-576 -633q-23 -24 -37.5 -30.5t-51.5 -6.5h-91q-22 0 -25.5 13t11.5 29l577 633q21 23 35 29t48 6h96zM291 560
q6 36 -36 36q-43 0 -49 -36l-10 -56q-8 -37 36 -37q41 0 49 37zM507 215q12 74 66 115.5t140 41.5t124.5 -41.5t25.5 -115.5l-13 -75q-13 -73 -66 -114t-139 -41t-125.5 41t-26.5 114zM727 206q5 36 -36 36q-45 0 -49 -36l-10 -56q-8 -36 36 -36q41 0 49 36z" />
    <glyph glyph-name="ampersand" unicode="&#x26;" horiz-adv-x="697" 
d="M137 537q14 82 77.5 135t166.5 53q85 0 133.5 -54t35.5 -134q-20 -111 -135 -174l-11 -5l52 -70l57 48q29 25 51 0l59 -71q16 -21 -11 -44l-64 -54l97 -130q12 -15 5.5 -26t-29.5 -11h-129q-21 0 -31.5 4.5t-20.5 17.5l-27 35q-58 -41 -106 -56.5t-104 -15.5
q-106 0 -160.5 60t-36.5 162q23 124 153 191q-37 61 -22 139zM390 540q3 19 -6.5 30.5t-28.5 11.5q-21 0 -35 -13t-17 -33q-6 -32 17 -64l22 11q42 22 48 57zM246 280q-55 -26 -63 -74q-5 -29 10.5 -47t46.5 -18q39 0 84 36z" />
    <glyph glyph-name="quotesingle" unicode="'" horiz-adv-x="228" 
d="M207 478q-7 -21 -15 -26.5t-31 -5.5h-61q-22 0 -27.5 5.5t-1.5 26.5l35 198q3 22 10.5 28t29.5 6h88q22 0 28.5 -6.5t0.5 -27.5z" />
    <glyph glyph-name="parenleft" unicode="(" horiz-adv-x="319" 
d="M93 595q18 104 67.5 167.5t131.5 98.5q21 8 31 2.5t16 -27.5l31 -102q6 -20 -0.5 -30t-29.5 -22q-29 -14 -44.5 -36t-22.5 -60l-82 -469q-7 -38 0.5 -60t31.5 -36q19 -12 22 -22t-10 -30l-65 -95q-15 -21 -26 -26.5t-30 2.5q-141 70 -105 266z" />
    <glyph glyph-name="parenright" unicode=")" horiz-adv-x="318" 
d="M167 836q16 22 27 27.5t30 -2.5q70 -35 96.5 -98.5t7.5 -167.5l-84 -479q-18 -104 -67 -167.5t-131 -98.5q-21 -8 -31.5 -2.5t-16.5 26.5l-31 103q-5 20 1.5 30t29.5 22q30 14 45 36t22 60l82 469q7 38 -0.5 60t-31.5 36q-19 12 -22 22t9 30z" />
    <glyph glyph-name="asterisk" unicode="*" horiz-adv-x="349" 
d="M259 680q32 0 20 -29l-23 -69l68 32q16 8 23 4.5t10 -19.5l6 -37q5 -28 -27 -32l-70 -11l40 -49q20 -21 -9 -38l-36 -22q-28 -18 -36 8l-20 60l-42 -60q-18 -29 -38 -11l-29 25q-21 17 4 38l58 49l-67 11q-29 4 -14 33l18 36q15 30 40 15l56 -32v69q0 29 29 29h39z" />
    <glyph glyph-name="plus" unicode="+" horiz-adv-x="551" 
d="M503 410q24 0 31.5 -9.5t3.5 -33.5l-14 -79q-4 -24 -15.5 -33.5t-34.5 -9.5h-127l-22 -126q-4 -24 -15 -33t-35 -9h-79q-24 0 -31.5 9t-3.5 33l22 126h-125q-24 0 -31.5 9.5t-3.5 33.5l14 79q4 24 15 33.5t35 9.5h125l22 125q4 24 15 33t35 9h79q24 0 31.5 -9t3.5 -33
l-22 -125h127z" />
    <glyph glyph-name="comma" unicode="," horiz-adv-x="258" 
d="M101 -90q-9 -21 -21.5 -29.5t-35.5 -8.5h-60q-18 0 -23.5 6t-1.5 23l54 228q7 28 19.5 39.5t38.5 11.5h92q56 0 34 -51z" />
    <glyph glyph-name="hyphen" unicode="-" horiz-adv-x="401" 
d="M325 349q24 0 31.5 -9t3.5 -33l-15 -85q-4 -24 -14.5 -33t-34.5 -9h-232q-23 0 -31 9t-4 33l15 85q4 24 15 33t35 9h231z" />
    <glyph glyph-name="period" unicode="." horiz-adv-x="262" 
d="M131 190q45 0 59 -17.5t6 -61.5l-7 -41q-8 -44 -28 -61t-64 -17h-38q-45 0 -59.5 17t-6.5 61l8 41q8 44 28 61.5t64 17.5h38z" />
    <glyph glyph-name="slash" unicode="/" horiz-adv-x="497" 
d="M155 -25q-11 -20 -23 -27.5t-34 -7.5h-112q-39 0 -20 35l385 700q11 21 23 28t34 7h112q21 0 25 -8t-6 -27z" />
    <glyph glyph-name="zero" unicode="0" horiz-adv-x="648" 
d="M71 476q20 119 105.5 184t221.5 65q133 0 196 -75t42 -196l-39 -219q-21 -120 -105 -185t-219 -65q-134 0 -198 74.5t-43 197.5zM442 473q6 37 -13 57t-60 20t-67.5 -20t-33.5 -57l-41 -235q-7 -37 12.5 -57.5t60.5 -20.5t67 20.5t33 57.5z" />
    <glyph glyph-name="one" unicode="1" horiz-adv-x="446" 
d="M415 710q24 0 32 -9.5t3 -32.5l-110 -626q-5 -23 -15.5 -32.5t-34.5 -9.5h-113q-24 0 -32 9.5t-3 32.5l74 417l-75 -38q-27 -13 -40 -9t-21 26l-33 85q-7 20 0 32.5t30 25.5l216 112q30 17 62 17h60z" />
    <glyph glyph-name="two" unicode="2" horiz-adv-x="613" 
d="M83 550q101 175 306 175q123 0 183.5 -67t42.5 -170q-18 -107 -80 -162.5t-191 -98.5q-13 -4 -34.5 -9.5t-35 -9.5t-27.5 -9t-22 -11.5t-9 -13.5l-1 -5h288q24 0 31.5 -9.5t3.5 -33.5l-15 -84q-5 -23 -15.5 -32.5t-34.5 -9.5h-451q-24 0 -31.5 9.5t-3.5 32.5l16 89
q9 48 30.5 84.5t59.5 62.5t64.5 39t77.5 33q6 2 28 10.5t28.5 11.5t24.5 11t25 12t20.5 12.5t19.5 15.5t14 17t12.5 21t6.5 23q5 31 -10 48.5t-47 17.5q-31 0 -53.5 -15t-45.5 -51q-15 -24 -26.5 -29t-32.5 2l-99 39q-21 8 -25 20t8 34z" />
    <glyph glyph-name="three" unicode="3" horiz-adv-x="626" 
d="M610 512q-17 -90 -102 -140q90 -55 69 -172q-37 -215 -305 -215q-233 0 -267 175q-7 40 36 54l105 35q23 8 33.5 2t15.5 -29q12 -65 89 -65q79 0 89 59q11 59 -55 59h-61q-24 0 -32 9.5t-3 32.5l14 83q5 24 15.5 33.5t34.5 9.5h44q68 0 78 55q5 28 -9 41.5t-49 13.5
q-42 0 -64 -13t-42 -47q-13 -23 -25 -28.5t-34 1.5l-92 35q-20 8 -24 20t7 34q48 87 124 128.5t197 41.5q117 0 173.5 -59.5t39.5 -153.5z" />
    <glyph glyph-name="four" unicode="4" horiz-adv-x="657" 
d="M598 295q23 0 30.5 -9.5t3.5 -32.5l-12 -70q-4 -23 -15 -32.5t-35 -9.5h-50l-18 -99q-4 -23 -15 -32.5t-35 -9.5h-102q-24 0 -32 9.5t-3 32.5l17 99h-302q-24 0 -31.5 9.5t-3.5 32.5l11 66q5 26 11 38.5t23 29.5l369 363q19 18 32.5 24t36.5 6h99q24 0 32 -9.5t4 -32.5
l-66 -373h51zM389 464l-170 -169h141z" />
    <glyph glyph-name="five" unicode="5" horiz-adv-x="614" 
d="M585 711q24 0 31.5 -9.5t3.5 -33.5l-16 -90q-4 -24 -15 -33t-35 -9h-253l-19 -70h69q132 0 186.5 -67.5t35.5 -174.5t-99 -173t-210 -66q-120 0 -184.5 40.5t-81.5 124.5q-4 22 4 33.5t31 20.5l114 40q22 8 32.5 3t15.5 -28q7 -29 26.5 -42.5t61.5 -13.5q73 0 86 74
q12 68 -67 68h-209q-26 0 -34 11.5t-1 37.5l83 297q10 34 26.5 47t51.5 13h366z" />
    <glyph glyph-name="six" unicode="6" horiz-adv-x="651" 
d="M261 443q40 8 106 8q143 0 200 -58.5t37 -176.5q-20 -114 -106 -172.5t-224 -58.5q-140 0 -202 74.5t-39 206.5l35 201q45 258 335 258q218 0 252 -159q4 -22 -4 -34t-32 -20l-99 -36q-13 -2 -19.5 -4.5t-13 4t-9 11t-8.5 17.5q-19 46 -90 46q-99 0 -116 -93zM224 232
q-6 -39 12 -58.5t67 -19.5q50 0 74.5 16.5t30.5 48.5q5 33 -13 48t-69 15q-59 0 -95 -12z" />
    <glyph glyph-name="seven" unicode="7" horiz-adv-x="568" 
d="M583 710q24 0 32 -9.5t4 -32.5l-12 -68q-7 -33 -23 -59l-326 -504q-15 -23 -30.5 -30t-54.5 -7h-111q-39 0 -13 42l317 493h-266q-24 0 -31.5 9.5t-3.5 33.5l16 90q4 23 14.5 32.5t34.5 9.5h453z" />
    <glyph glyph-name="eight" unicode="8" horiz-adv-x="647" 
d="M93 520q18 100 98 152.5t207 52.5q131 0 190.5 -55.5t41.5 -153.5q-15 -84 -95 -143q84 -56 63 -173q-36 -215 -330 -215q-151 0 -212 56t-44 154q19 105 128 166q-66 52 -47 159zM435 507q5 25 -11.5 39t-53.5 14q-69 0 -80 -53q-4 -25 11 -38.5t50 -24.5l28 -8
q48 28 56 71zM395 206q5 33 -31 50q-10 5 -89 29q-55 -33 -63 -77q-5 -29 15 -44.5t68 -15.5q90 0 100 58z" />
    <glyph glyph-name="nine" unicode="9" horiz-adv-x="651" 
d="M408 267q-40 -8 -105 -8q-143 0 -200.5 58.5t-37.5 176.5q21 114 106.5 172.5t223.5 58.5q140 0 202 -74.5t39 -206.5l-35 -201q-45 -258 -334 -258q-220 0 -252 159q-4 22 4 34t32 20l99 36q25 6 32 0.5t18 -28.5q9 -24 29.5 -35t59.5 -11q100 0 116 93zM445 478
q7 38 -11.5 58t-67.5 20q-93 0 -104 -65q-6 -33 12 -48t69 -15q59 0 95 12z" />
    <glyph glyph-name="colon" unicode=":" horiz-adv-x="286" 
d="M197 521q45 0 59 -17t7 -62l-8 -40q-8 -44 -28 -61.5t-64 -17.5h-38q-45 0 -59 17.5t-6 61.5l7 40q7 45 27.5 62t64.5 17h38zM145 190q44 0 58.5 -17.5t6.5 -61.5l-7 -41q-8 -44 -28 -61t-65 -17h-38q-44 0 -58.5 17t-6.5 61l7 41q8 45 28 62t65 17h38z" />
    <glyph glyph-name="semicolon" unicode=";" horiz-adv-x="286" 
d="M196 264q-2 -9 -8 -22l-17 -37q-8 -18 -16 -28l-15 -33q10 -13 6.5 -24t-21.5 -29l-50 -4q-15 -17 -25 -19.5t-24 8.5l41 151q-15 24 -3 43q-4 12 10 40l28 36q15 28 30.5 35t38.5 -2l-3 -74l2 -1q23 11 38 -14z" />
    <glyph glyph-name="less" unicode="&#x3c;" horiz-adv-x="494" 
d="M456 605q27 13 35.5 5t3.5 -37l-17 -95q-6 -33 -15.5 -45t-35.5 -24l-174 -78l-1 -4l146 -78q23 -12 28.5 -23.5t-0.5 -45.5l-18 -101q-5 -29 -16.5 -37t-33.5 5l-313 189q-17 10 -22.5 20.5t-1.5 31.5l13 76q4 21 13 32t30 21z" />
    <glyph glyph-name="equal" unicode="=" horiz-adv-x="597" 
d="M545 523q24 0 31.5 -9.5t3.5 -33.5l-15 -85q-5 -23 -15.5 -32.5t-34.5 -9.5h-416q-24 0 -31.5 9.5t-3.5 32.5l15 85q5 24 15.5 33.5t34.5 9.5h416zM506 300q24 0 31.5 -9.5t3.5 -32.5l-15 -85q-4 -24 -15.5 -33.5t-34.5 -9.5h-416q-24 0 -31.5 9.5t-3.5 33.5l15 85
q4 23 15 32.5t35 9.5h416z" />
    <glyph glyph-name="greater" unicode="&#x3e;" horiz-adv-x="495" 
d="M95 574q5 28 16 35.5t34 -4.5l312 -188q18 -10 23.5 -20.5t1.5 -31.5l-13 -77q-4 -21 -13 -31.5t-30 -20.5l-379 -189q-28 -12 -36 -4.5t-3 36.5l19 109q6 33 15.5 45t34.5 23l175 78l1 4l-147 78q-22 12 -27.5 24t0.5 45z" />
    <glyph glyph-name="question" unicode="?" horiz-adv-x="593" 
d="M75 577q47 82 115.5 122t179.5 40q124 0 188.5 -59t48.5 -154q-7 -41 -24.5 -73.5t-43.5 -54t-47.5 -35t-53 -28.5t-44.5 -23q-42 -25 -47 -55q-4 -23 -14.5 -31.5t-33.5 -8.5h-90q-23 0 -30 8.5t-3 31.5q11 65 40 101.5t72 59.5q11 6 32.5 16.5t33 17.5t26 18t22.5 25.5
t11 33.5q5 26 -10.5 41.5t-49.5 15.5q-41 0 -66.5 -15t-52.5 -58q-15 -24 -26.5 -29.5t-32.5 2.5l-84 36q-21 9 -25 20.5t9 34.5zM275 183q44 0 58 -17t7 -61l-6 -35q-8 -44 -28 -61t-65 -17h-50q-44 0 -58.5 17t-6.5 61l6 35q7 44 27.5 61t65.5 17h50z" />
    <glyph glyph-name="at" unicode="@" horiz-adv-x="906" 
d="M37 330q31 183 157 289t329 106t294 -106.5t59 -288.5l-13 -75q-18 -102 -80 -160.5t-140 -58.5q-32 0 -49 8.5t-36 28.5q-81 -25 -180 -25q-96 0 -135 45.5t-24 130.5l24 136q32 177 221 177q114 0 194 -33q19 -8 23.5 -17.5t-0.5 -31.5l-47 -271q-5 -30 28 -30
q54 0 72 99l14 79q47 279 -243 279q-141 0 -228 -73.5t-111 -205.5l-14 -79q-23 -131 39 -200.5t204 -69.5q87 0 222 21q20 4 25.5 0t2.5 -21l-10 -55q-3 -19 -10 -26t-26 -11q-101 -23 -221 -23q-204 0 -295.5 103t-59.5 284zM529 407q-24 6 -70 6q-37 0 -55.5 -13
t-23.5 -43l-23 -130q-5 -29 8.5 -42t50.5 -13q62 0 80 6l39 220q0 8 -6 9z" />
    <glyph glyph-name="A" unicode="A" horiz-adv-x="688" 
d="M638 41q8 -41 -37 -41h-104q-37 0 -51 9t-16 33l-10 72h-217l-35 -72q-12 -24 -28 -33t-52 -9h-110q-42 0 -19 41l342 634q11 21 23 28t35 7h113q22 0 32.5 -7t14.5 -26zM386 388q-3 35 -2.5 66.5t2.5 52.5l3 21h-9q-13 -72 -45 -139l-57 -118h124z" />
    <glyph glyph-name="B" unicode="B" horiz-adv-x="658" 
d="M458 711q103 0 153.5 -53.5t34.5 -143.5q-10 -50 -32.5 -81.5t-65.5 -58.5l-1 -4q92 -44 69 -180q-17 -94 -91.5 -142t-184.5 -48h-300q-24 0 -32 9.5t-3 32.5l110 626q5 24 15.5 33.5t34.5 9.5h293zM440 494q10 56 -52 56h-96l-19 -110h96q61 0 71 54zM414 221
q12 58 -54 58h-115l-21 -117h116q64 0 74 59z" />
    <glyph glyph-name="C" unicode="C" horiz-adv-x="647" 
d="M62 459q22 129 113.5 197.5t239.5 68.5q216 0 249 -178q5 -22 -2.5 -34.5t-31.5 -19.5l-103 -35q-24 -7 -34.5 -1.5t-15.5 28.5q-7 34 -28 49.5t-63 15.5q-58 0 -88.5 -25.5t-39.5 -78.5l-33 -182q-9 -53 12.5 -78.5t79.5 -25.5q79 0 115 65q14 24 26 29.5t33 -2.5
l104 -40q39 -14 17 -54q-94 -173 -323 -173q-145 0 -213.5 79t-46.5 210z" />
    <glyph glyph-name="D" unicode="D" horiz-adv-x="677" 
d="M408 710q146 0 213 -81t43 -214l-26 -150q-23 -130 -113 -197.5t-239 -67.5h-246q-24 0 -32 9.5t-3 32.5l110 626q5 23 15.5 32.5t34.5 9.5h243zM468 427q20 108 -97 108h-81l-64 -360h82q115 0 135 108z" />
    <glyph glyph-name="E" unicode="E" horiz-adv-x="588" 
d="M584 710q24 0 32 -9.5t4 -32.5l-16 -90q-4 -24 -15.5 -33.5t-34.5 -9.5h-264l-16 -89h211q24 0 31.5 -9.5t3.5 -32.5l-16 -90q-5 -24 -15.5 -33.5t-34.5 -9.5h-211l-17 -96h273q23 0 30.5 -9t3.5 -33l-16 -91q-4 -23 -15 -32.5t-35 -9.5h-427q-24 0 -32 9.5t-3 32.5
l110 626q5 23 15.5 32.5t34.5 9.5h419z" />
    <glyph glyph-name="F" unicode="F" horiz-adv-x="579" 
d="M584 710q24 0 32 -9.5t4 -32.5l-16 -90q-4 -24 -15.5 -33.5t-34.5 -9.5h-264l-21 -116h211q24 0 31.5 -9.5t3.5 -32.5l-16 -90q-4 -24 -15 -33.5t-35 -9.5h-210l-36 -202q-5 -23 -15.5 -32.5t-34.5 -9.5h-113q-24 0 -32 9.5t-3 32.5l110 626q5 23 15.5 32.5t34.5 9.5h419
z" />
    <glyph glyph-name="G" unicode="G" horiz-adv-x="675" 
d="M625 408q23 0 30.5 -9.5t3.5 -33.5l-25 -145q-19 -109 -109.5 -172t-236.5 -63q-145 0 -213 81t-45 213l32 181q22 130 112.5 197.5t239.5 67.5q218 0 252 -178q5 -23 -3 -35t-32 -19l-102 -31q-25 -7 -35 -1.5t-15 28.5q-15 61 -94 61q-58 0 -88 -25.5t-40 -78.5
l-32 -182q-9 -53 12 -78.5t79 -25.5q51 0 83 18t38 50l3 20h-96q-24 0 -31.5 9t-3.5 33l13 75q5 24 15.5 33.5t34.5 9.5h253z" />
    <glyph glyph-name="H" unicode="H" horiz-adv-x="692" 
d="M671 711q23 0 30.5 -9.5t3.5 -33.5l-110 -626q-5 -23 -15.5 -32.5t-34.5 -9.5h-113q-24 0 -32 9.5t-3 32.5l40 230h-193l-41 -230q-4 -23 -15 -32.5t-35 -9.5h-113q-24 0 -31.5 9.5t-3.5 32.5l111 626q5 24 15.5 33.5t34.5 9.5h113q24 0 31.5 -9.5t3.5 -33.5l-39 -221
h193l39 221q4 24 15.5 33.5t34.5 9.5h114z" />
    <glyph glyph-name="I" unicode="I" horiz-adv-x="300" 
d="M116 670q5 23 15 31.5t32 8.5h118q23 0 30 -9t3 -31l-111 -630q-4 -22 -14 -31t-33 -9h-118q-22 0 -29.5 8.5t-3.5 31.5z" />
    <glyph glyph-name="J" unicode="J" horiz-adv-x="582" 
d="M567 711q23 0 30.5 -9.5t3.5 -32.5l-78 -439q-22 -124 -97.5 -184.5t-210.5 -60.5q-203 0 -235 170q-5 22 3 34t32 20l99 33q24 9 35.5 3.5t16.5 -27.5q14 -58 74 -58q73 0 88 86l75 423q5 24 15 33t34 9h115z" />
    <glyph glyph-name="K" unicode="K" horiz-adv-x="654" 
d="M600 49q7 -21 -2 -35t-33 -14h-108q-40 0 -56 8t-25 34l-56 179q-8 26 -20.5 38t-39.5 12h-17l-40 -229q-5 -23 -15.5 -32.5t-34.5 -9.5h-113q-24 0 -32 9.5t-3 32.5l110 626q5 23 15.5 32.5t34.5 9.5h113q24 0 32 -9.5t3 -32.5l-39 -222h13h9l183 227q19 24 34 30.5
t52 6.5h116q23 0 27.5 -12t-10.5 -32l-237 -294q33 -23 51 -73z" />
    <glyph glyph-name="L" unicode="L" horiz-adv-x="542" 
d="M278 710q24 0 32 -9.5t4 -32.5l-87 -493h240q24 0 31.5 -9t3.5 -33l-16 -91q-5 -23 -15.5 -32.5t-34.5 -9.5h-396q-24 0 -31.5 9.5t-3.5 32.5l111 626q4 23 14.5 32.5t34.5 9.5h113z" />
    <glyph glyph-name="M" unicode="M" horiz-adv-x="827" 
d="M805 711q24 0 31.5 -9t3.5 -33l-110 -628q-5 -23 -15.5 -32t-34.5 -9h-109q-24 0 -31.5 9t-3.5 32l25 143q18 107 89 262h-10q-41 -84 -96 -165l-76 -113q-20 -29 -53 -29h-65q-20 0 -28.5 6t-14.5 23l-38 113q-22 60 -34 165h-9q13 -164 -6 -263l-24 -142
q-4 -23 -15.5 -32t-34.5 -9h-106q-24 0 -31.5 9t-3.5 32l111 628q4 24 15 33t35 9h93q26 0 37 -6t17 -25l107 -328l222 327q13 20 25 26t37 6h101z" />
    <glyph glyph-name="N" unicode="N" horiz-adv-x="702" 
d="M679 710q24 0 32 -9.5t4 -32.5l-111 -626q-4 -23 -15 -32.5t-35 -9.5h-110q-27 0 -37 20l-111 237q-22 48 -32.5 91.5t-19.5 114.5h-8q8 -144 -12 -258l-29 -163q-5 -23 -15.5 -32.5t-34.5 -9.5h-105q-24 0 -32 9.5t-3 32.5l110 626q5 23 15.5 32.5t34.5 9.5h114
q29 0 39 -20l118 -256q25 -53 52 -183h8q-11 87 -11.5 127t11.5 126l29 164q4 23 14.5 32.5t34.5 9.5h105z" />
    <glyph glyph-name="O" unicode="O" horiz-adv-x="682" 
d="M61 455q23 130 113.5 200t238.5 70q145 0 213.5 -80t45.5 -212l-31 -181q-23 -129 -113.5 -198t-238.5 -69q-146 0 -214 78.5t-46 210.5zM478 454q8 47 -16 71.5t-76 24.5q-110 0 -127 -96l-35 -198q-8 -47 16 -71.5t77 -24.5q109 0 126 96z" />
    <glyph glyph-name="P" unicode="P" horiz-adv-x="648" 
d="M441 710q117 0 174 -72.5t37 -192.5q-20 -116 -98.5 -174t-198.5 -58h-122l-30 -171q-5 -23 -15.5 -32.5t-34.5 -9.5h-113q-24 0 -32 9.5t-3 32.5l110 626q5 23 15.5 32.5t34.5 9.5h276zM362 388q35 0 58.5 20t29.5 53q6 34 -10.5 54t-51.5 20h-98l-26 -147h98z" />
    <glyph glyph-name="Q" unicode="Q" horiz-adv-x="696" 
d="M61 455q23 130 113.5 200t238.5 70q145 0 213.5 -80t45.5 -212l-31 -181q-17 -95 -71 -157l40 -60q13 -18 9.5 -30.5t-24.5 -29.5l-84 -58q-37 -29 -58 5l-50 76q-49 -13 -114 -13q-146 0 -214 78.5t-46 210.5zM386 550q-110 0 -127 -96l-35 -198q-8 -47 16 -71.5
t77 -24.5q109 0 126 96l35 198q8 47 -16 71.5t-76 24.5z" />
    <glyph glyph-name="R" unicode="R" horiz-adv-x="661" 
d="M450 710q114 0 170.5 -67t35.5 -182q-24 -137 -143 -198q9 -18 19 -43l60 -171q7 -21 -2 -35t-33 -14h-108q-39 0 -57.5 11t-26.5 37l-40 137q-9 29 -20.5 40t-41.5 11h-26l-34 -194q-5 -23 -15.5 -32.5t-34.5 -9.5h-113q-24 0 -32 9.5t-3 32.5l110 626q5 23 15.5 32.5
t34.5 9.5h285zM451 470q6 30 -8 47.5t-46 17.5h-107l-24 -132h108q31 0 51.5 18t25.5 49z" />
    <glyph glyph-name="S" unicode="S" horiz-adv-x="642" 
d="M66 518q18 100 101.5 153.5t225.5 53.5q107 0 165 -37.5t82 -110.5q7 -22 1 -32t-31 -20l-99 -39q-22 -9 -32 -5t-18 26q-18 52 -92 52q-95 0 -104 -52q-5 -29 25 -41t96 -20q26 -4 49 -9.5t49.5 -15.5t46.5 -23t39 -32.5t28 -43.5t14 -56t-4 -71q-39 -210 -337 -210
q-114 0 -187 40t-88 115q-7 40 37 55l100 34q24 8 36 3.5t19 -25.5q18 -53 103 -53q107 0 118 57q5 27 -22.5 39t-84.5 20q-41 6 -72 13t-69 25t-60 43t-33 68t-2 99z" />
    <glyph glyph-name="T" unicode="T" horiz-adv-x="602" 
d="M620 710q24 0 32 -9.5t3 -32.5l-16 -90q-4 -24 -15 -33.5t-35 -9.5h-148l-87 -493q-5 -23 -15.5 -32.5t-34.5 -9.5h-113q-24 0 -32 9.5t-3 32.5l87 493h-149q-24 0 -31.5 9.5t-3.5 33.5l16 90q5 23 15.5 32.5t34.5 9.5h495z" />
    <glyph glyph-name="U" unicode="U" horiz-adv-x="692" 
d="M233 252q-16 -92 88 -92q103 0 119 92l74 416q4 23 15 32.5t34 9.5h114q23 0 31 -9.5t4 -32.5l-75 -423q-23 -127 -109.5 -193.5t-233.5 -66.5q-145 0 -211 81.5t-43 211.5l69 390q5 23 15.5 32.5t34.5 9.5h113q24 0 32 -9.5t3 -32.5z" />
    <glyph glyph-name="V" unicode="V" horiz-adv-x="680" 
d="M720 710q43 0 20 -41l-332 -634q-11 -21 -23 -28t-35 -7h-126q-22 0 -32 7t-14 26l-109 636q-8 41 36 41h112q36 0 50 -9t16 -33l35 -342q3 -26 3 -58.5t-1 -51.5l-2 -19h9q15 69 42 128l157 343q11 24 26.5 33t51.5 9h116z" />
    <glyph glyph-name="W" unicode="W" horiz-adv-x="935" 
d="M967 710q22 0 26 -10t-6 -31l-264 -634q-9 -21 -22 -28t-36 -7h-124q-22 0 -33.5 7t-12.5 26l-12 233q-3 90 13 180h-9q-20 -93 -53 -180l-94 -231q-9 -21 -22.5 -28t-36.5 -7h-120q-44 0 -46 33l-40 636q-2 22 5 31.5t29 9.5h121q28 0 39 -7t12 -30l-1 -262
q-2 -85 -18 -177h7q20 100 50 177l108 262q9 23 23 30t39 7h107q26 0 37.5 -7.5t12.5 -29.5l14 -262q4 -68 -11 -177h8q13 74 45 177l89 262q8 22 21.5 29.5t41.5 7.5h113z" />
    <glyph glyph-name="X" unicode="X" horiz-adv-x="662" 
d="M697 710q21 0 24 -12t-11 -28l-253 -308l153 -320q9 -16 1 -29t-30 -13h-127q-40 0 -53.5 6t-23.5 31l-66 164l-120 -164q-18 -24 -34 -30.5t-56 -6.5h-124q-23 0 -26.5 12t12.5 30l262 320l-142 308q-8 16 -0.5 28t27.5 12h119q39 0 53 -6t24 -29l63 -154l116 154
q18 24 32.5 29.5t50.5 5.5h129z" />
    <glyph glyph-name="Y" unicode="Y" horiz-adv-x="673" 
d="M717 710q15 0 21.5 -6t4 -15t-11.5 -21l-300 -393l-40 -233q-5 -23 -16 -32.5t-34 -9.5h-114q-23 0 -30.5 9.5t-3.5 32.5l40 233l-160 393q-8 17 -1 29.5t29 12.5h116q40 0 54 -6t23 -31l71 -204l147 204q17 25 33 31t55 6h117z" />
    <glyph glyph-name="Z" unicode="Z" horiz-adv-x="609" 
d="M608 710q24 0 32 -9.5t3 -32.5l-10 -60q-5 -24 -22 -44l-349 -389h257q24 0 31.5 -9t3.5 -33l-16 -91q-5 -23 -15.5 -32.5t-34.5 -9.5h-474q-23 0 -30.5 9.5t-3.5 32.5l10 61q4 24 21 42l349 390h-246q-24 0 -31.5 9.5t-3.5 33.5l16 90q4 23 15 32.5t34 9.5h464z" />
    <glyph glyph-name="bracketleft" unicode="[" horiz-adv-x="354" 
d="M398 856q24 0 29.5 -6.5t1.5 -30.5l-12 -69q-4 -24 -12.5 -30.5t-31.5 -6.5h-72l-126 -715h71q24 0 30 -6.5t2 -30.5l-13 -71q-4 -24 -12 -30.5t-32 -6.5h-212q-24 0 -29.5 7t-1.5 31l163 927q5 24 13 31t32 7h212z" />
    <glyph glyph-name="backslash" unicode="\" horiz-adv-x="487" 
d="M88 675q-3 19 4 27t27 8h105q22 0 31.5 -7t13.5 -28l138 -700q4 -19 -3 -27t-28 -8h-104q-22 0 -32 7.5t-14 27.5z" />
    <glyph glyph-name="bracketright" unicode="]" horiz-adv-x="354" 
d="M363 856q24 0 30 -7.5t2 -30.5l-163 -927q-4 -24 -13 -31t-33 -7h-211q-24 0 -29.5 6.5t-1.5 30.5l13 71q4 24 11.5 30.5t31.5 6.5h72l126 715h-71q-24 0 -29.5 6.5t-1.5 30.5l12 69q4 24 12 30.5t32 6.5h211z" />
    <glyph glyph-name="asciicircum" unicode="^" horiz-adv-x="636" 
d="M441 810q24 0 34 -6.5t24 -27.5l145 -211q29 -45 -28 -45h-106q-35 0 -48 6t-27 28l-55 94h-3l-91 -94q-21 -22 -37.5 -28t-51.5 -6h-97q-28 0 -31.5 12t17.5 33l220 211q21 20 34.5 27t36.5 7h64z" />
    <glyph glyph-name="underscore" unicode="_" horiz-adv-x="506" 
d="M397 0q24 0 31.5 -9.5t3.5 -32.5l-15 -85q-4 -24 -15 -33t-35 -9h-394q-24 0 -31.5 9t-3.5 33l14 85q5 23 15.5 32.5t34.5 9.5h395z" />
    <glyph glyph-name="grave" unicode="`" horiz-adv-x="257" 
d="M144 732q30 27 66 2l125 -84q11 -8 10 -16t-15 -22l-35 -33q-14 -15 -46 -3l-170 60q-16 7 -15 15.5t17 24.5z" />
    <glyph glyph-name="a" unicode="a" horiz-adv-x="545" 
d="M31 324q19 109 87.5 160t192.5 51t192 -34q23 -12 28 -22.5t0 -35.5l-68 -387q-4 -21 -13.5 -31t-32.5 -16q-99 -24 -217 -24q-112 0 -159.5 62.5t-28.5 168.5zM327 369q-15 4 -39 4q-33 0 -50 -12.5t-22 -42.5l-22 -122q-7 -50 48 -50q32 0 52 5l37 211q2 6 -4 7z" />
    <glyph glyph-name="b" unicode="b" horiz-adv-x="548" 
d="M266 739q22 0 29 -8t3 -30l-30 -172q42 6 68 6q112 0 158.5 -60.5t27.5 -166.5l-19 -108q-19 -110 -88.5 -162.5t-192.5 -52.5q-120 0 -192 34q-23 12 -28 22.5t0 36.5l109 623q4 22 14 30t32 8h109zM339 326q7 49 -48 49q-29 0 -52 -7l-37 -211q0 -4 2 -5q14 -5 41 -5
q62 0 72 55z" />
    <glyph glyph-name="c" unicode="c" horiz-adv-x="517" 
d="M31 324q38 211 279 211q89 0 138.5 -38.5t60.5 -101.5q4 -22 -4 -33.5t-31 -19.5l-89 -30q-25 -8 -35 -2t-15 29q-9 40 -55 40q-53 0 -64 -55l-22 -129q-5 -26 6.5 -40t36.5 -14q42 0 67 41q12 22 24.5 27.5t34.5 -2.5l91 -29q41 -13 16 -56q-81 -137 -259 -137
q-120 0 -169 61t-30 168z" />
    <glyph glyph-name="d" unicode="d" horiz-adv-x="547" 
d="M32 328q19 108 84 157.5t178 49.5q7 0 67 -3l30 170q4 21 14 29.5t31 8.5h110q22 0 28.5 -8.5t2.5 -29.5l-110 -625q-4 -25 -14 -35.5t-37 -21.5q-95 -35 -212 -35q-115 0 -162.5 63.5t-28.5 170.5zM332 369q-22 5 -43 5q-63 0 -73 -55l-21 -123q-9 -49 48 -49q28 0 48 4
q2 1 4 5z" />
    <glyph glyph-name="e" unicode="e" horiz-adv-x="542" 
d="M31 324q18 101 92 156t193 55q112 0 170.5 -48t46.5 -137q-11 -69 -69 -107t-154 -38q-52 0 -113 6l-4 -21q-11 -64 54 -64q53 0 87 36q14 15 25 18t33 -8l65 -33q36 -19 9 -58q-71 -96 -243 -96q-128 0 -179 65t-32 170zM351 362q6 41 -55 41q-63 0 -76 -62l-3 -11
q37 -5 69 -5q59 0 65 37z" />
    <glyph glyph-name="f" unicode="f" horiz-adv-x="387" 
d="M417 740q22 0 29.5 -8.5t2.5 -30.5l-13 -71q-4 -23 -14 -31.5t-32 -8.5q-37 0 -55.5 -16t-23.5 -50l-1 -4h69q22 0 29 -8.5t3 -29.5l-14 -75q-4 -22 -13.5 -30.5t-31.5 -8.5h-69l-58 -330q-4 -21 -14 -29.5t-32 -8.5h-108q-22 0 -29 8.5t-3 29.5l58 330h-32
q-22 0 -29 8.5t-3 30.5l13 75q4 21 14 29.5t31 8.5h33v2q21 114 87 165.5t181 52.5h25z" />
    <glyph glyph-name="g" unicode="g" horiz-adv-x="548" 
d="M31 326q19 108 88 158.5t193 50.5q125 0 191 -34q23 -11 28.5 -22t0.5 -36l-80 -452q-38 -224 -274 -224q-158 0 -205 104q-18 38 29 58l85 39q24 9 34 6.5t18 -16.5q21 -36 59 -36q55 0 66 58l7 40q-42 -6 -67 -6q-112 0 -159 62.5t-28 167.5zM329 369q-13 4 -40 4
q-63 0 -73 -55l-16 -93q-9 -50 48 -50q1 0 51 5l32 184q2 3 -2 5z" />
    <glyph glyph-name="h" unicode="h" horiz-adv-x="558" 
d="M267 740q22 0 29 -8.5t3 -29.5l-31 -171q36 4 69 4q113 0 159 -57t28 -162l-49 -278q-4 -21 -14 -29.5t-31 -8.5h-110q-22 0 -28.5 8.5t-2.5 29.5l48 274q10 55 -50 55q-32 0 -48 -4l-57 -325q-4 -21 -14 -29.5t-32 -8.5h-109q-22 0 -29 8.5t-3 29.5l117 664
q4 21 14 29.5t32 8.5h109z" />
    <glyph glyph-name="i" unicode="i" horiz-adv-x="269" 
d="M234 722q43 0 56 -16t5 -58l-2 -11q-8 -42 -26 -58t-61 -16h-50q-43 0 -56 16t-5 58l1 11q8 42 27 58t61 16h50zM228 520q22 0 29 -8.5t3 -29.5l-78 -444q-4 -21 -14 -29.5t-32 -8.5h-109q-22 0 -29 8.5t-3 29.5l78 444q4 21 14 29.5t32 8.5h109z" />
    <glyph glyph-name="j" unicode="j" horiz-adv-x="270" 
d="M234 722q42 0 55 -16t5 -58l-1 -11q-8 -42 -26.5 -58t-61.5 -16h-50q-42 0 -55 16t-6 58l2 11q8 42 26.5 58t61.5 16h50zM227 520q22 0 29 -8.5t3 -29.5l-86 -492q-21 -113 -93.5 -166.5t-199.5 -53.5q-23 0 -30 8.5t-3 30.5l15 85q4 22 14 31t32 9q69 0 80 68l85 480
q4 21 14 29.5t32 8.5h108z" />
    <glyph glyph-name="k" unicode="k" horiz-adv-x="553" 
d="M489 51q9 -27 -0.5 -39t-40.5 -12h-91q-35 0 -48 7t-18 31l-24 123q-7 30 -40 30h-19l-27 -152q-4 -22 -13.5 -30.5t-31.5 -8.5h-109q-22 0 -29 8.5t-3 30.5l117 662q4 22 14 30.5t32 8.5h109q22 0 28.5 -8.5t2.5 -30.5l-63 -361h15h6l109 144q16 22 31 29t47 7h89
q61 0 23 -49l-147 -194q16 -17 24 -45z" />
    <glyph glyph-name="l" unicode="l" horiz-adv-x="272" 
d="M183 38q-4 -21 -14 -29.5t-32 -8.5h-109q-22 0 -29 8.5t-3 29.5l117 664q4 21 14 29.5t32 8.5h109q22 0 29 -8.5t3 -29.5z" />
    <glyph glyph-name="m" unicode="m" horiz-adv-x="814" 
d="M444 508q79 27 158 27q109 0 153 -57.5t25 -162.5l-49 -277q-4 -21 -14 -29.5t-31 -8.5h-110q-22 0 -28.5 8.5t-2.5 29.5l48 276q10 53 -41 53q-20 0 -43 -5q0 -19 -5 -46l-49 -278q-4 -21 -13.5 -29.5t-31.5 -8.5h-110q-21 0 -28 8.5t-3 29.5l49 276q4 29 -5.5 41
t-36.5 12q-17 0 -35 -3q-3 -1 -5 -6l-56 -320q-4 -21 -14 -29.5t-32 -8.5h-109q-22 0 -29 8.5t-3 29.5l71 400q5 25 15 37.5t37 22.5q100 37 210 37q74 0 118 -27z" />
    <glyph glyph-name="n" unicode="n" 
d="M116 498q100 37 219 37q113 0 159 -57.5t28 -162.5l-49 -277q-4 -21 -14 -29.5t-31 -8.5h-110q-22 0 -28.5 8.5t-2.5 29.5l48 274q5 29 -7 42t-43 13q-26 0 -45 -4q-2 -1 -4 -4l-56 -321q-4 -21 -14 -29.5t-32 -8.5h-109q-22 0 -29 8.5t-3 29.5l71 400q5 25 15 37.5
t37 22.5z" />
    <glyph glyph-name="o" unicode="o" horiz-adv-x="550" 
d="M30 323q19 103 91.5 157.5t193.5 54.5q120 0 174 -61t36 -165l-19 -112q-19 -103 -91.5 -157.5t-194.5 -54.5q-119 0 -173 61t-36 165zM341 321q11 54 -53 54q-61 0 -72 -54l-21 -122q-11 -53 52 -53q62 0 73 53z" />
    <glyph glyph-name="p" unicode="p" horiz-adv-x="547" 
d="M116 501q92 34 214 34q115 0 162 -60.5t28 -165.5l-19 -109q-38 -215 -270 -215q-13 0 -60 5l-30 -171q-4 -22 -13.5 -30t-31.5 -8h-110q-22 0 -28.5 8t-2.5 30l110 624q5 25 14.5 36.5t36.5 21.5zM337 324q9 49 -48 49q-30 0 -47 -5q-3 -1 -5 -6l-37 -211q20 -5 43 -5
q62 0 72 55z" />
    <glyph glyph-name="q" unicode="q" horiz-adv-x="548" 
d="M312 535q124 0 192 -34q23 -12 28 -22.5t0 -35.5l-109 -624q-4 -22 -14 -30t-32 -8h-109q-22 0 -29 8t-3 30l30 172q-42 -6 -68 -6q-112 0 -158.5 60.5t-27.5 165.5l19 109q38 215 281 215zM195 196q-8 -50 48 -50q9 0 19.5 1t20 2.5t12.5 1.5l37 211q2 5 -4 7
q-15 4 -39 4q-62 0 -72 -55z" />
    <glyph glyph-name="r" unicode="r" horiz-adv-x="362" 
d="M326 535h31q22 0 29 -8.5t3 -29.5l-15 -85q-4 -22 -13.5 -30.5t-31.5 -8.5h-38q-27 0 -47 -4q-4 0 -6 -6l-57 -325q-4 -21 -14 -29.5t-32 -8.5h-109q-22 0 -29 8.5t-3 29.5l72 405q5 26 15 38.5t37 21.5q78 28 208 32z" />
    <glyph glyph-name="s" unicode="s" horiz-adv-x="516" 
d="M39 375q28 160 250 160q91 0 139 -27.5t69 -79.5q14 -37 -30 -55l-76 -32q-6 -2 -10.5 -4t-8.5 -2t-6.5 -0.5t-5.5 1t-4.5 2t-4 3.5t-3 3.5t-3.5 5t-4 5.5q-21 27 -69 27q-36 0 -50.5 -6t-16.5 -21q-3 -16 12.5 -22.5t63.5 -10.5q115 -10 160 -49.5t31 -119.5
q-14 -81 -82 -124.5t-182 -43.5q-192 0 -218 119q-8 37 33 52l85 28q26 7 34 3.5t16 -18.5q14 -32 69 -32q72 0 78 31q3 19 -14 26t-75 11q-98 6 -145 46.5t-32 123.5z" />
    <glyph glyph-name="t" unicode="t" horiz-adv-x="399" 
d="M295 640q21 0 28 -8.5t4 -29.5l-15 -82h70q21 0 28 -8.5t3 -29.5l-13 -75q-4 -22 -14 -30.5t-31 -8.5h-69l-27 -147q-7 -40 5.5 -55t50.5 -15q23 0 30 -8.5t3 -30.5l-16 -86q-4 -22 -13.5 -30.5t-32.5 -8.5q-133 -2 -185 48t-30 173l28 160h-43q-22 0 -29 8.5t-3 30.5
l14 75q4 21 13.5 29.5t30.5 8.5h44l14 82q4 21 14 29.5t31 8.5h110z" />
    <glyph glyph-name="u" unicode="u" 
d="M516 520q22 0 29 -8.5t3 -29.5l-71 -400q-5 -25 -15 -37.5t-37 -22.5q-100 -37 -219 -37q-112 0 -158 60t-27 166l47 271q4 21 14 29.5t32 8.5h109q22 0 29 -8.5t3 -29.5l-48 -274q-5 -29 6.5 -42t42.5 -13q21 0 41 4q7 1 9 9l55 316q4 21 14 29.5t32 8.5h109z" />
    <glyph glyph-name="v" unicode="v" horiz-adv-x="547" 
d="M546 520q28 0 32.5 -9t-8.5 -35l-238 -442q-11 -19 -24 -26.5t-34 -7.5h-110q-22 0 -32.5 7.5t-14.5 26.5l-75 442q-4 26 4 35t35 9h94q32 0 43 -7.5t12 -30.5l22 -174q2 -27 1 -55.5t-3 -50.5l-3 -21h8q17 75 40 127l80 173q12 25 23.5 32t43.5 7h104z" />
    <glyph glyph-name="w" unicode="w" horiz-adv-x="772" 
d="M766 520q27 0 31.5 -9t-7.5 -35l-191 -442q-16 -34 -58 -34h-103q-46 0 -47 34l-9 134q-1 27 1 62.5t4 57.5l2 22h-7q-21 -82 -46 -142l-57 -134q-14 -34 -58 -34h-92q-44 0 -47 34l-40 442q-3 26 5 35t35 9h92q35 0 46 -7t11 -31l1 -133q0 -23 -4 -62t-8 -67l-4 -27h8
q23 103 43 156l54 132q9 24 22.5 31.5t48.5 7.5h64q35 0 45.5 -7t10.5 -31l8 -133q1 -24 -2 -63t-6 -66l-4 -27h8q20 98 40 156l47 132q8 24 22 31.5t49 7.5h92z" />
    <glyph glyph-name="x" unicode="x" horiz-adv-x="552" 
d="M541 520q57 0 18 -45l-172 -207l105 -223q12 -23 4 -34t-40 -11h-96q-33 0 -44 5.5t-20 27.5l-44 114l-81 -114q-15 -22 -29 -27.5t-47 -5.5h-104q-33 0 -37 11t16 34l185 222l-102 208q-23 45 38 45h93q32 0 44.5 -6t20.5 -27l39 -97l73 97q15 22 28 27.5t44 5.5h108z
" />
    <glyph glyph-name="y" unicode="y" horiz-adv-x="558" 
d="M516 520q22 0 28.5 -8.5t2.5 -29.5l-85 -487q-41 -225 -280 -225q-82 0 -129 25t-70 76q-17 38 28 58l85 39q26 9 35 6t18 -19q19 -33 58 -33q55 0 66 58l6 39q-27 -4 -68 -4q-112 0 -158 62t-27 168l42 237q4 21 13.5 29.5t31.5 8.5h110q22 0 28.5 -8.5t2.5 -29.5
l-43 -244q-10 -55 51 -55q27 0 47 4l52 295q4 21 14 29.5t31 8.5h110z" />
    <glyph glyph-name="z" unicode="z" horiz-adv-x="492" 
d="M404 158q22 0 28.5 -8t2.5 -29l-14 -83q-4 -21 -13.5 -29.5t-31.5 -8.5h-366q-22 0 -29 8.5t-3 29.5l14 78q4 24 22 40l221 206h-156q-22 0 -28.5 8t-2.5 29l14 83q4 21 13.5 29.5t31.5 8.5h356q21 0 28 -8.5t3 -29.5l-14 -78q-4 -24 -28 -46l-225 -200h177z" />
    <glyph glyph-name="braceleft" unicode="{" horiz-adv-x="411" 
d="M453 856q21 0 28 -8.5t3 -29.5l-15 -84q-4 -22 -13.5 -30t-31.5 -8h-48q-23 0 -27 -23l-33 -185q-16 -90 -100 -136q71 -32 52 -137l-32 -179q-1 -10 4.5 -16.5t14.5 -6.5h50q21 0 27.5 -8t3.5 -30l-15 -84q-4 -21 -14 -29.5t-31 -8.5h-96q-85 0 -113.5 33t-15.5 110
l33 183q14 84 -48 84h-6q-32 0 -25 38l18 101q6 38 38 38h6q63 0 77 84l34 188q13 76 53 110t123 34h99z" />
    <glyph glyph-name="bar" unicode="|" horiz-adv-x="280" 
d="M290 856q22 0 28.5 -8.5t2.5 -29.5l-163 -927q-4 -21 -13.5 -29.5t-31.5 -8.5h-104q-22 0 -28.5 8.5t-2.5 29.5l163 927q4 21 13.5 29.5t31.5 8.5h104z" />
    <glyph glyph-name="braceright" unicode="}" horiz-adv-x="410" 
d="M252 856q83 0 111.5 -34t14.5 -110l-34 -188q-14 -84 48 -84h7q17 0 22.5 -9t2.5 -29l-18 -101q-7 -38 -39 -38h-6q-61 0 -77 -84l-33 -183q-13 -76 -53.5 -109.5t-125.5 -33.5h-96q-21 0 -28 8.5t-3 29.5l15 84q4 21 14 29.5t31 8.5h49q23 0 27 23l31 179
q19 105 101 137q-68 47 -52 136l32 185q2 10 -3.5 16.5t-16.5 6.5h-48q-22 0 -28.5 8t-2.5 30l15 84q4 21 13.5 29.5t30.5 8.5h99z" />
    <glyph glyph-name="asciitilde" unicode="~" horiz-adv-x="570" 
d="M61 369q64 51 141 51q44 0 90 -17t69 -17q31 0 59 20q20 15 30.5 14.5t24.5 -16.5l53 -59q26 -31 -11 -60q-67 -51 -141 -51q-45 0 -90.5 17t-68.5 17q-31 0 -59 -19q-21 -15 -31 -14.5t-24 16.5l-53 59q-26 31 11 59z" />
    <glyph glyph-name="exclamdown" unicode="&#xa1;" horiz-adv-x="276" 
d="M119 336q-44 0 -58 17t-7 62l6 34q8 45 28 61.5t65 16.5h50q45 0 59 -16.5t6 -61.5l-6 -34q-7 -45 -27.5 -62t-65.5 -17h-50zM-11 -220q-22 0 -29 8.5t-3 29.5l93 430q5 22 14 30t30 8h82q21 0 27.5 -8t3.5 -30l-60 -430q-3 -21 -13 -29.5t-32 -8.5h-113z" />
    <glyph glyph-name="cent" unicode="&#xa2;" horiz-adv-x="544" 
d="M467 178q40 -13 16 -55q-60 -100 -169 -127l-7 -41q-4 -22 -13.5 -30t-31.5 -8h-92q-21 0 -28 8.5t-3 29.5l6 37q-78 17 -107.5 76.5t-13.5 148.5l19 109q15 84 62.5 132.5t133.5 67.5l8 45q4 22 14 30t32 8h91q22 0 28.5 -8t2.5 -30l-8 -46q93 -25 111 -134
q4 -23 -3 -33.5t-30 -17.5l-91 -29q-25 -8 -35 -2t-15 29q-5 22 -17 31.5t-35 9.5q-53 0 -63 -54l-23 -130q-10 -54 44 -54q43 0 66 41q13 22 25 27.5t34 -2.5z" />
    <glyph glyph-name="sterling" unicode="&#xa3;" horiz-adv-x="671" 
d="M144 509q17 97 96 156.5t201 59.5q201 0 240 -171q4 -22 -3.5 -34t-31.5 -20l-104 -36q-23 -8 -32 -2.5t-17 29.5q-10 32 -27.5 45.5t-47.5 13.5t-50.5 -17t-25.5 -45l-15 -89h168q24 0 31.5 -9.5t3.5 -33.5l-11 -61q-5 -24 -15.5 -33.5t-34.5 -9.5h-173l-3 -18
q-12 -50 -57 -78l1 -6q70 19 156 19h180q24 0 31.5 -9.5t3.5 -33.5l-15 -84q-5 -23 -15.5 -32.5t-34.5 -9.5h-520q-24 0 -31.5 9.5t-2.5 32.5l15 85q5 34 27 38l5 1q43 12 56 65l4 21h-28q-24 0 -31.5 9.5t-2.5 33.5l10 61q5 24 15.5 33.5t34.5 9.5h31z" />
    <glyph glyph-name="currency" unicode="&#xa4;" horiz-adv-x="646" 
d="M272 558q49 20 100 20q48 0 90 -20l63 54q18 15 29.5 15t24.5 -15l60 -72q23 -27 -10 -54l-62 -53q12 -46 5 -96q-9 -49 -37 -96l44 -53q23 -27 -9 -54l-84 -72q-18 -15 -30 -15t-24 15l-45 54q-48 -20 -98 -20q-51 0 -91 20l-64 -54q-18 -15 -30 -15t-24 15l-60 72
q-13 15 -11 27t20 27l65 55q-13 46 -4 94q7 46 35 94l-46 55q-12 15 -10 27t20 27l84 72q18 15 29.5 15t24.5 -15zM412 337q5 34 -14 57.5t-53 23.5t-62 -23.5t-35 -57.5q-5 -34 14.5 -58t53.5 -24t61.5 23.5t34.5 58.5z" />
    <glyph glyph-name="yen" unicode="&#xa5;" horiz-adv-x="709" 
d="M729 710q23 0 26 -12.5t-12 -29.5l-225 -274h52q21 0 28 -8.5t3 -29.5l-9 -48q-4 -21 -13.5 -29.5t-30.5 -8.5h-106l-6 -35h106q21 0 28 -8.5t3 -29.5l-9 -48q-3 -21 -13 -29.5t-31 -8.5h-102l-12 -69q-4 -23 -15 -32.5t-35 -9.5h-113q-24 0 -31.5 9.5t-3.5 32.5l12 69
h-102q-21 0 -28 8.5t-3 29.5l9 48q3 21 13 29.5t31 8.5h106l7 35h-107q-21 0 -28 8.5t-3 29.5l8 48q4 21 14 29.5t30 8.5h53l-128 274q-9 17 -1.5 29.5t29.5 12.5h113q40 0 54 -6t23 -31l71 -204l146 204q17 25 33 31t55 6h114z" />
    <glyph glyph-name="brokenbar" unicode="&#xa6;" horiz-adv-x="285" 
d="M292 856q22 0 28.5 -8.5t2.5 -29.5l-65 -367q-3 -21 -12.5 -29t-31.5 -8h-104q-21 0 -28 8t-3 29l64 367q4 21 14 29.5t31 8.5h104zM193 296q22 0 29 -8t3 -29l-65 -367q-4 -21 -13.5 -29.5t-31.5 -8.5h-104q-21 0 -28 8.5t-3 29.5l65 367q4 21 13.5 29t30.5 8h104z" />
    <glyph glyph-name="section" unicode="&#xa7;" horiz-adv-x="624" 
d="M93 528q17 93 93.5 145t208.5 52q95 0 145.5 -37t72.5 -109q7 -23 0 -34.5t-32 -22.5l-77 -30q-23 -10 -35 -5.5t-19 27.5q-18 51 -84 51q-72 0 -79 -48q-3 -21 16 -31.5t60 -19.5q96 -21 123 -32q114 -47 93 -170q-15 -82 -82 -131q26 -21 36.5 -61t0.5 -93
q-18 -95 -94 -146.5t-210 -51.5q-107 0 -175.5 38.5t-83.5 113.5q-7 41 40 57l84 31q26 9 36 3t17 -31q13 -53 95 -53q84 0 93 51q3 19 -14.5 29t-54.5 16q-10 2 -33 5q-112 18 -155 47q-72 47 -54 147q16 92 105 141q-57 47 -37 152zM304 313q-13 1 -30 6q-40 -30 -45 -67
q-4 -32 16.5 -45t64.5 -19l28 -3q36 29 40 65q3 27 -16 40.5t-58 22.5z" />
    <glyph glyph-name="dieresis" unicode="&#xa8;" horiz-adv-x="439" 
d="M196 733q42 0 55 -15.5t6 -55.5l-2 -13q-8 -40 -26.5 -56t-59.5 -16h-7q-42 0 -55 16t-5 56l2 13q8 41 25.5 56t59.5 15h7zM411 733q42 0 55 -15t5 -56l-2 -13q-8 -40 -26 -56t-59 -16h-7q-41 0 -55 16t-6 56l2 13q7 40 26 55.5t60 15.5h7z" />
    <glyph glyph-name="copyright" unicode="&#xa9;" horiz-adv-x="778" 
d="M38 350q26 151 149 255.5t274 104.5q150 0 236.5 -104.5t60.5 -255.5q-27 -151 -149 -255t-272 -104q-151 0 -238 105t-61 254zM664 350q20 114 -43 190.5t-175 76.5q-114 0 -204.5 -76.5t-109.5 -190.5q-20 -112 43.5 -189.5t176.5 -77.5q112 0 202 77.5t110 189.5z
M250 401q12 67 59.5 105t122.5 38q57 0 90.5 -25.5t41.5 -71.5q4 -21 -2 -30t-24 -14l-47 -16q-18 -5 -25 -1t-10 22q-6 28 -43 28q-46 0 -52 -36l-18 -101q-3 -18 7 -28t32 -10q36 0 52 29q11 18 19.5 22.5t24.5 -1.5l44 -17q16 -6 18.5 -14.5t-7.5 -28.5q-52 -97 -169 -97
q-75 0 -109 40t-22 108z" />
    <glyph glyph-name="ordfeminine" unicode="&#xaa;" horiz-adv-x="352" 
d="M97 619q51 54 142 54q141 0 119 -127l-22 -129q-4 -21 -13.5 -31.5t-32.5 -18.5q-47 -15 -109 -15q-79 0 -106 27t-19 74q9 47 44 69t117 22q9 0 14 -1l2 16q4 20 -16 20q-11 0 -29 -14q-15 -13 -24 -14.5t-25 5.5l-34 19q-12 6 -16.5 12t-2.5 13.5t11 18.5zM217 469h-17
q-18 0 -21 -16q-2 -10 1.5 -13.5t13.5 -3.5h7.5h6.5l2 1q2 0 2 2z" />
    <glyph glyph-name="guillemotleft" unicode="&#xab;" horiz-adv-x="638" 
d="M564 150q20 -23 -8 -47l-66 -57q-28 -22 -47 0l-159 192q-11 13 -9 24t18 24l230 197q28 25 48 0l45 -55q10 -14 8 -24t-17 -23l-137 -118zM300 150q20 -23 -8 -47l-66 -57q-26 -24 -47 0l-159 192q-20 24 9 48l230 197q28 26 48 0l45 -55q11 -14 9 -24t-18 -23
l-137 -118z" />
    <glyph glyph-name="logicalnot" unicode="&#xac;" horiz-adv-x="596" 
d="M532 424q21 0 28 -8.5t3 -29.5l-39 -221q-4 -22 -13.5 -30.5t-30.5 -8.5h-109q-21 0 -28 8.5t-3 30.5l16 94h-291q-21 0 -28 8.5t-3 30.5l15 88q4 22 14 30t31 8h438z" />
    <glyph glyph-name="registered" unicode="&#xae;" horiz-adv-x="456" 
d="M66 516q14 83 81.5 141.5t151.5 58.5q82 0 131.5 -59t35.5 -141q-14 -83 -81.5 -141.5t-150.5 -58.5t-132.5 58.5t-35.5 141.5zM123 516q-11 -60 24 -102.5t96 -42.5q59 0 108 42.5t60 102.5t-23.5 102t-93.5 42q-61 0 -110.5 -42t-60.5 -102zM297 610q32 0 49.5 -19
t11.5 -49q-7 -41 -42 -57l18 -37q15 -26 -20 -26h-20q-11 0 -15 2.5t-9 12.5l-17 38h-12l-6 -38q-1 -9 -5 -12t-13 -3h-28q-17 0 -13 15l27 157q4 16 19 16h75zM249 526h31q14 0 18 15q4 16 -12 16h-31z" />
    <glyph glyph-name="macron" unicode="&#xaf;" horiz-adv-x="352" 
d="M379 710q22 0 28 -7t2 -29l-8 -42q-3 -22 -11.5 -29t-30.5 -7h-244q-21 0 -27 7t-3 29l8 42q4 21 13 28.5t29 7.5h244z" />
    <glyph glyph-name="degree" unicode="&#xb0;" horiz-adv-x="419" 
d="M444 555q-13 -78 -77.5 -134.5t-142.5 -56.5q-80 0 -126.5 55.5t-33.5 135.5q13 82 75.5 136t142.5 54q81 0 128 -54.5t34 -135.5zM197 554q-4 -23 9.5 -39.5t37.5 -16.5q23 0 43 16.5t24 39.5q5 23 -9 40.5t-37 17.5q-24 0 -44 -17.5t-24 -40.5z" />
    <glyph glyph-name="plusminus" unicode="&#xb1;" horiz-adv-x="585" 
d="M536 503q24 0 31.5 -9t3.5 -33l-13 -75q-4 -24 -15 -33t-34 -9h-128l-10 -57q-4 -24 -15 -33t-35 -9h-78q-23 0 -31 9t-4 33l11 57h-126q-24 0 -32 9t-4 33l13 75q4 24 15.5 33t34.5 9h127l10 58q4 24 15 33.5t35 9.5h78q23 0 30.5 -9.5t3.5 -33.5l-10 -58h127zM487 221
q24 0 32 -9.5t3 -32.5l-14 -80q-5 -23 -15.5 -32.5t-34.5 -9.5h-416q-23 0 -30.5 9.5t-3.5 32.5l13 80q5 23 16 32.5t34 9.5h416z" />
    <glyph glyph-name="twosuperior" unicode="&#xb2;" horiz-adv-x="373" 
d="M103 715q54 94 178 94q72 0 107.5 -36t27.5 -91q-8 -54 -35.5 -87.5t-82.5 -48.5l-46 -12q-22 -5 -23 -10v-2h117q20 0 26.5 -7.5t2.5 -27.5l-8 -47q-3 -19 -11.5 -26.5t-28.5 -7.5h-247q-20 0 -26.5 8t-3.5 26l6 33q10 57 35 86t83 48l56 19q21 7 30.5 15t12.5 25
q4 23 -19 23t-38 -23q-16 -21 -24 -25.5t-30 1.5l-47 18q-19 7 -22 19.5t10 35.5z" />
    <glyph glyph-name="threesuperior" unicode="&#xb3;" horiz-adv-x="380" 
d="M97 721q52 93 183 93q72 0 108 -33t27 -89q-5 -27 -16 -43.5t-37 -32.5q46 -30 34 -97q-20 -116 -182 -116q-144 0 -158 94q-6 36 25 46l47 16q23 7 32.5 3t15.5 -24q8 -26 49 -26q34 0 37 19q2 12 -3.5 17.5t-22.5 5.5h-29q-17 0 -21 5.5t-2 23.5l10 50q3 19 9.5 25
t26.5 6h19q30 0 35 22q2 11 -4.5 16t-22.5 5q-43 0 -61 -27q-11 -19 -21.5 -23.5t-32.5 4.5l-35 16q-27 13 -10 44z" />
    <glyph glyph-name="acute" unicode="&#xb4;" horiz-adv-x="257" 
d="M231 734q45 25 66 -2l42 -56q12 -15 9.5 -24t-21.5 -16l-190 -60q-19 -7 -29.5 -6.5t-16.5 9.5l-23 33q-16 25 9 38z" />
    <glyph glyph-name="mu" unicode="&#xb5;" horiz-adv-x="570" 
d="M527 520q21 0 28 -8.5t3 -29.5l-70 -400q-7 -33 -43 -55q-72 -42 -163 -42q-59 0 -101 23l-33 -190q-4 -21 -14 -29.5t-32 -8.5h-109q-22 0 -29 8.5t-3 29.5l117 664q4 21 14 29.5t32 8.5h109q22 0 29 -8.5t3 -29.5l-48 -274q-5 -29 6.5 -42t43.5 -13q20 0 40 4q7 1 9 9
l56 316q4 21 13.5 29.5t31.5 8.5h110z" />
    <glyph glyph-name="paragraph" unicode="&#xb6;" horiz-adv-x="700" 
d="M677 710q22 0 29 -8.5t3 -29.5l-127 -723q-4 -21 -14 -29.5t-32 -8.5h-87q-22 0 -28.5 8.5t-2.5 29.5l103 587h-50l-103 -587q-5 -21 -14.5 -29.5t-31.5 -8.5h-87q-22 0 -29 8.5t-2 29.5l46 263q-107 1 -162.5 74t-35.5 183q19 111 99 176t191 65h335z" />
    <glyph glyph-name="periodcentered" unicode="&#xb7;" horiz-adv-x="282" 
d="M178 408q44 0 58.5 -17.5t6.5 -61.5l-7 -41q-8 -44 -28 -61t-65 -17h-38q-44 0 -58.5 17t-6.5 61l7 41q8 45 28 62t65 17h38z" />
    <glyph glyph-name="cedilla" unicode="&#xb8;" horiz-adv-x="251" 
d="M108 -50h7q44 -1 61.5 -31t5.5 -73q-26 -96 -164 -96q-34 0 -75 16q-24 10 -21 31l7 42q7 32 35 16q27 -15 53 -15q35 0 39 23q2 11 -6.5 16.5t-32.5 5.5h-21q-27 0 -8 30l52 85h95z" />
    <glyph glyph-name="onesuperior" unicode="&#xb9;" horiz-adv-x="294" 
d="M295 806q29 0 37.5 -11t3.5 -37l-54 -307q-4 -22 -14.5 -31t-34.5 -9h-54q-24 0 -31.5 9t-3.5 31l34 191l-29 -15q-40 -20 -55 14l-18 40q-12 33 25 53l116 61q22 11 49 11h29z" />
    <glyph glyph-name="ordmasculine" unicode="&#xba;" horiz-adv-x="352" 
d="M73 549q10 61 53 93t114 32q70 0 102.5 -38t20.5 -100l-11 -61q-22 -123 -168 -123q-70 0 -102 37.5t-20 98.5zM241 545q1 9 -4 14t-16 5q-23 0 -26 -19l-11 -64q-3 -19 19 -19q23 0 26 19z" />
    <glyph glyph-name="guillemotright" unicode="&#xbb;" horiz-adv-x="640" 
d="M60 382q-11 13 -9 23.5t18 23.5l64 56q28 25 48 0l162 -199q11 -13 9.5 -24t-17.5 -24l-226 -191q-28 -24 -48 0l-47 57q-20 24 8 48l135 113zM324 382q-11 13 -9 23.5t18 23.5l65 54q29 25 48 0l161 -197q19 -24 -8 -48l-225 -190q-15 -13 -25.5 -13t-21.5 13l-49 56
q-21 25 8 48l134 113z" />
    <glyph glyph-name="onequarter" unicode="&#xbc;" horiz-adv-x="915" 
d="M296 715q29 0 38 -11t4 -37l-54 -307q-4 -22 -14.5 -31t-34.5 -9h-54q-24 0 -31.5 9t-3.5 31l34 191l-29 -15q-23 -11 -35 -8t-20 22l-18 40q-12 33 25 53l116 60q20 12 49 12h28zM776 710q22 0 27 -11.5t-7 -28.5l-465 -633q-18 -24 -31.5 -30.5t-50.5 -6.5h-67
q-23 0 -29 12.5t7 29.5l466 633q17 23 30 29t48 6h72zM832 177q21 0 26 -6.5t2 -23.5l-8 -46q-3 -19 -10.5 -25t-28.5 -6h-10l-7 -35q-5 -34 -38 -34h-65q-18 0 -23 7.5t-2 26.5l7 35h-160q-20 0 -26 8t-3 27l5 30q5 27 21 43l194 193q16 15 28 20t35 5h51q24 0 31 -8.5
t2 -31.5l-32 -179h11zM705 243l-66 -66h54z" />
    <glyph glyph-name="onehalf" unicode="&#xbd;" horiz-adv-x="926" 
d="M296 715q29 0 38 -11t4 -37l-54 -307q-4 -22 -14.5 -31t-34.5 -9h-54q-24 0 -31.5 9t-3.5 31l34 191l-29 -15q-23 -11 -35 -8t-20 22l-18 40q-12 33 25 53l116 60q20 12 49 12h28zM763 710q22 0 27 -11.5t-7 -28.5l-465 -633q-18 -24 -32 -30.5t-51 -6.5h-67
q-22 0 -28 12.5t7 29.5l466 633q16 23 29.5 29t48.5 6h72zM576 308q55 95 178 95q72 0 107.5 -36.5t27.5 -91.5q-8 -53 -36 -86.5t-82 -48.5l-46 -13q-22 -3 -23 -10v-1h117q20 0 26.5 -7.5t2.5 -27.5l-8 -47q-3 -19 -11.5 -26.5t-28.5 -7.5h-247q-20 0 -26.5 7.5t-3.5 26.5
l6 33q10 57 35 86t83 48l56 18q21 7 30.5 15.5t12.5 25.5q4 22 -19 22q-22 0 -38 -22q-16 -21 -24 -25.5t-30 1.5l-47 18q-19 7 -22 19.5t10 34.5z" />
    <glyph glyph-name="threequarters" unicode="&#xbe;" horiz-adv-x="934" 
d="M89 632q52 93 182 93q72 0 108.5 -33t27.5 -89q-5 -27 -16 -43.5t-37 -32.5q46 -31 34 -97q-20 -116 -182 -116q-144 0 -158 94q-6 36 24 46l47 16q24 7 33.5 3t15.5 -24q8 -26 49 -26q35 0 36 19q3 12 -2.5 17.5t-23.5 5.5h-28q-17 0 -21.5 5.5t-1.5 23.5l10 50
q3 19 9 25t26 6h20q30 0 34 22q2 10 -4.5 15.5t-21.5 5.5q-43 0 -61 -27q-12 -19 -22.5 -23.5t-32.5 4.5l-34 16q-27 14 -10 44zM811 710q22 0 27 -11.5t-7 -28.5l-465 -633q-18 -24 -32 -30.5t-51 -6.5h-67q-22 0 -28 12.5t7 29.5l466 633q16 23 29.5 29t48.5 6h72z
M855 176q21 0 26 -6.5t2 -23.5l-8 -46q-3 -19 -10.5 -25t-28.5 -6h-10l-7 -35q-5 -34 -38 -34h-65q-18 0 -23 7.5t-2 26.5l7 35h-160q-20 0 -26 8t-3 27l5 30q5 27 21 43l194 193q16 15 28 20t35 5h51q24 0 31 -8.5t2 -31.5l-32 -179h11zM728 242l-66 -66h54z" />
    <glyph glyph-name="questiondown" unicode="&#xbf;" horiz-adv-x="589" 
d="M301 335q-44 0 -58 16.5t-7 61.5l6 35q8 44 28 61t65 17h50q44 0 58 -17t7 -61l-6 -35q-8 -45 -28 -61.5t-65 -16.5h-50zM501 -59q-47 -81 -115.5 -121.5t-179.5 -40.5q-125 0 -189 59t-48 153q7 42 24 74t43 53.5t48 35t53 29t45 23.5q42 25 47 55q4 22 14.5 31t32.5 9
h91q23 0 30 -9t3 -31q-11 -65 -40 -101.5t-72 -59.5q-11 -6 -32.5 -17t-33 -17.5t-25.5 -18t-22.5 -25.5t-11.5 -33q-5 -26 10 -41.5t50 -15.5q40 0 66 15.5t53 57.5q14 24 25.5 29.5t32.5 -2.5l85 -36q21 -9 24.5 -20.5t-8.5 -34.5z" />
    <glyph glyph-name="Agrave" unicode="&#xc0;" horiz-adv-x="688" 
d="M379 914q28 27 66 3l126 -83q22 -13 -3 -38l-34 -34q-15 -15 -47 -4l-171 56q-11 4 -14 9.5t0.5 12.5t14.5 18zM638 41q8 -41 -37 -41h-104q-37 0 -51 9t-16 33l-10 72h-217l-35 -72q-12 -24 -28 -33t-52 -9h-110q-42 0 -19 41l342 634q11 21 23 28t35 7h113
q22 0 32.5 -7t14.5 -26zM386 388q-3 35 -2.5 66.5t2.5 52.5l3 21h-9q-13 -72 -45 -139l-57 -118h124z" />
    <glyph glyph-name="Aacute" unicode="&#xc1;" horiz-adv-x="688" 
d="M462 914q45 24 66 -3l40 -58q11 -15 8.5 -24t-20.5 -16l-192 -56q-18 -6 -28.5 -5.5t-16.5 10.5l-21 33q-10 14 -8 22t16 16zM638 41q8 -41 -37 -41h-104q-37 0 -51 9t-16 33l-10 72h-217l-35 -72q-12 -24 -28 -33t-52 -9h-110q-42 0 -19 41l342 634q11 21 23 28t35 7
h113q22 0 32.5 -7t14.5 -26zM386 388q-3 35 -2.5 66.5t2.5 52.5l3 21h-9q-13 -72 -45 -139l-57 -118h124z" />
    <glyph glyph-name="Acircumflex" unicode="&#xc2;" horiz-adv-x="688" 
d="M473 920q27 0 38.5 -5t27.5 -25l85 -102q11 -12 6.5 -23t-27.5 -11h-82q-31 0 -43 3.5t-21 17.5l-22 36l-37 -35q-15 -15 -27.5 -18.5t-41.5 -3.5h-80q-23 0 -24.5 11t14.5 23l120 102q24 20 37.5 25t44.5 5h32zM638 41q8 -41 -37 -41h-104q-37 0 -51 9t-16 33l-10 72
h-217l-35 -72q-12 -24 -28 -33t-52 -9h-110q-42 0 -19 41l342 634q11 21 23 28t35 7h113q22 0 32.5 -7t14.5 -26zM386 388q-3 35 -2.5 66.5t2.5 52.5l3 21h-9q-13 -72 -45 -139l-57 -118h124z" />
    <glyph glyph-name="Atilde" unicode="&#xc3;" horiz-adv-x="688" 
d="M597 909q13 0 17 -5.5t2 -17.5q-12 -67 -40.5 -95t-78.5 -28q-42 0 -78 21t-47 21q-15 0 -19 -22q-3 -20 -22 -20h-62q-24 0 -19 23q11 68 40.5 95.5t76.5 27.5q43 0 80.5 -20.5t48.5 -20.5q14 0 18 22q4 19 23 19h60zM638 41q8 -41 -37 -41h-104q-37 0 -51 9t-16 33
l-10 72h-217l-35 -72q-12 -24 -28 -33t-52 -9h-110q-42 0 -19 41l342 634q11 21 23 28t35 7h113q22 0 32.5 -7t14.5 -26zM386 388q-3 35 -2.5 66.5t2.5 52.5l3 21h-9q-13 -72 -45 -139l-57 -118h124z" />
    <glyph glyph-name="Adieresis" unicode="&#xc4;" horiz-adv-x="688" 
d="M347 914q42 0 55.5 -15.5t6.5 -55.5l-2 -13q-8 -40 -26.5 -55.5t-60.5 -15.5h-7q-42 0 -54.5 15.5t-5.5 55.5l3 13q7 41 24.5 56t59.5 15h7zM562 914q42 0 55 -15t6 -56l-2 -13q-8 -40 -26 -55.5t-60 -15.5h-7q-41 0 -54.5 15.5t-6.5 55.5l3 13q7 40 25.5 55.5t59.5 15.5
h7zM638 41q8 -41 -37 -41h-104q-37 0 -51 9t-16 33l-10 72h-217l-35 -72q-12 -24 -28 -33t-52 -9h-110q-42 0 -19 41l342 634q11 21 23 28t35 7h113q22 0 32.5 -7t14.5 -26zM386 388q-3 35 -2.5 66.5t2.5 52.5l3 21h-9q-13 -72 -45 -139l-57 -118h124z" />
    <glyph glyph-name="Aring" unicode="&#xc5;" horiz-adv-x="688" 
d="M262 745q12 66 62.5 104t121.5 38q68 0 104 -38.5t24 -103.5q-11 -61 -55 -97l119 -607q9 -41 -37 -41h-104q-37 0 -51 9t-16 33l-10 72h-217l-35 -72q-12 -24 -28 -33t-52 -9h-110q-42 0 -19 41l328 603q-35 38 -25 101zM462 745q4 19 -5.5 31t-28.5 12
q-21 0 -35.5 -11.5t-18.5 -31.5q-3 -19 7.5 -31t31.5 -12q18 0 32 12t17 31zM386 388q-3 35 -2.5 66.5t2.5 52.5l3 21h-9q-13 -72 -45 -139l-57 -118h124z" />
    <glyph glyph-name="AE" unicode="&#xc6;" horiz-adv-x="906" 
d="M817 175q24 0 31.5 -9t3.5 -33l-16 -91q-5 -23 -15.5 -32.5t-34.5 -9.5h-339q-24 0 -31.5 9.5t-3.5 32.5l12 63h-202l-54 -68q-18 -22 -33 -29.5t-52 -7.5h-109q-23 0 -28.5 11t8.5 30l516 634q17 21 27.5 28t30.5 7h375q24 0 32 -9.5t3 -32.5l-16 -90q-4 -24 -15 -33.5
t-35 -9.5h-195l-16 -89h143q23 0 30.5 -9.5t3.5 -32.5l-16 -90q-4 -24 -15 -33.5t-34 -9.5h-143l-17 -96h204zM494 462l-147 -206h103z" />
    <glyph glyph-name="Ccedilla" unicode="&#xc7;" horiz-adv-x="647" 
d="M415 725q216 0 249 -178q5 -22 -2.5 -34.5t-31.5 -19.5l-103 -35q-24 -7 -34.5 -1.5t-15.5 28.5q-7 34 -28 49.5t-63 15.5q-58 0 -88.5 -25.5t-39.5 -78.5l-33 -182q-9 -53 12.5 -78.5t79.5 -25.5q79 0 115 65q14 24 26 29.5t33 -2.5l104 -40q39 -14 17 -54
q-81 -147 -260 -169l-22 -41h7q44 -1 61.5 -31.5t5.5 -73.5q-14 -51 -59.5 -73t-104.5 -22q-39 0 -75 16q-24 8 -21 31l7 41q6 32 35 17q26 -16 53 -16q35 0 39 23q2 12 -6.5 17t-32.5 5h-21q-27 0 -10 28l47 77q-129 9 -188 86.5t-38 200.5l33 185q22 129 113.5 197.5
t239.5 68.5z" />
    <glyph glyph-name="Egrave" unicode="&#xc8;" horiz-adv-x="588" 
d="M338 914q28 27 66 3l126 -83q23 -13 -3 -38l-34 -34q-14 -15 -47 -4l-171 56q-11 4 -14 9.5t1 12.5t14 18zM584 710q24 0 32 -9.5t4 -32.5l-16 -90q-4 -24 -15.5 -33.5t-34.5 -9.5h-264l-16 -89h211q24 0 31.5 -9.5t3.5 -32.5l-16 -90q-5 -24 -15.5 -33.5t-34.5 -9.5
h-211l-17 -96h273q23 0 30.5 -9t3.5 -33l-16 -91q-4 -23 -15 -32.5t-35 -9.5h-427q-24 0 -32 9.5t-3 32.5l110 626q5 23 15.5 32.5t34.5 9.5h419z" />
    <glyph glyph-name="Eacute" unicode="&#xc9;" horiz-adv-x="588" 
d="M421 914q46 23 66 -3l40 -58q12 -15 9 -24t-21 -16l-191 -56q-19 -6 -29.5 -5.5t-16.5 10.5l-21 33q-10 14 -7.5 22t16.5 16zM584 710q24 0 32 -9.5t4 -32.5l-16 -90q-4 -24 -15.5 -33.5t-34.5 -9.5h-264l-16 -89h211q24 0 31.5 -9.5t3.5 -32.5l-16 -90
q-5 -24 -15.5 -33.5t-34.5 -9.5h-211l-17 -96h273q23 0 30.5 -9t3.5 -33l-16 -91q-4 -23 -15 -32.5t-35 -9.5h-427q-24 0 -32 9.5t-3 32.5l110 626q5 23 15.5 32.5t34.5 9.5h419z" />
    <glyph glyph-name="Ecircumflex" unicode="&#xca;" horiz-adv-x="588" 
d="M432 920q27 0 38.5 -5t27.5 -25l85 -102q11 -12 6.5 -23t-27.5 -11h-82q-31 0 -43 3.5t-21 17.5l-22 36l-37 -35q-15 -15 -27 -18.5t-42 -3.5h-80q-15 0 -20.5 5.5t-2 13t12.5 15.5l120 102q24 20 37.5 25t44.5 5h32zM584 710q24 0 32 -9.5t4 -32.5l-16 -90
q-4 -24 -15.5 -33.5t-34.5 -9.5h-264l-16 -89h211q24 0 31.5 -9.5t3.5 -32.5l-16 -90q-5 -24 -15.5 -33.5t-34.5 -9.5h-211l-17 -96h273q23 0 30.5 -9t3.5 -33l-16 -91q-4 -23 -15 -32.5t-35 -9.5h-427q-24 0 -32 9.5t-3 32.5l110 626q5 23 15.5 32.5t34.5 9.5h419z" />
    <glyph glyph-name="Edieresis" unicode="&#xcb;" horiz-adv-x="588" 
d="M307 914q42 0 55 -15.5t6 -55.5l-2 -13q-7 -40 -26 -55.5t-61 -15.5h-7q-42 0 -54.5 15.5t-4.5 55.5l2 13q7 41 24.5 56t59.5 15h8zM522 914q41 0 54 -15.5t6 -55.5l-2 -13q-7 -40 -25.5 -55.5t-60.5 -15.5h-7q-41 0 -54.5 15.5t-5.5 55.5l2 13q7 40 25.5 55.5t60.5 15.5
h7zM584 710q24 0 32 -9.5t4 -32.5l-16 -90q-4 -24 -15.5 -33.5t-34.5 -9.5h-264l-16 -89h211q24 0 31.5 -9.5t3.5 -32.5l-16 -90q-5 -24 -15.5 -33.5t-34.5 -9.5h-211l-17 -96h273q23 0 30.5 -9t3.5 -33l-16 -91q-4 -23 -15 -32.5t-35 -9.5h-427q-24 0 -32 9.5t-3 32.5
l110 626q5 23 15.5 32.5t34.5 9.5h419z" />
    <glyph glyph-name="Igrave" unicode="&#xcc;" horiz-adv-x="300" 
d="M185 914q28 27 67 3l126 -83q13 -8 11.5 -16t-15.5 -22l-33 -34q-15 -15 -47 -4l-172 56q-16 7 -15 15.5t17 24.5zM116 670q5 23 15 31.5t32 8.5h118q23 0 30 -9t3 -31l-111 -630q-4 -22 -14 -31t-33 -9h-118q-22 0 -29.5 8.5t-3.5 31.5z" />
    <glyph glyph-name="Iacute" unicode="&#xcd;" horiz-adv-x="300" 
d="M268 914q47 23 66 -3l41 -58q11 -15 8.5 -24t-21.5 -16l-191 -56q-18 -6 -29 -5.5t-17 10.5l-21 33q-16 25 9 38zM116 670q5 23 15 31.5t32 8.5h118q23 0 30 -9t3 -31l-111 -630q-4 -22 -14 -31t-33 -9h-118q-22 0 -29.5 8.5t-3.5 31.5z" />
    <glyph glyph-name="Icircumflex" unicode="&#xce;" horiz-adv-x="300" 
d="M280 920q27 0 38.5 -5t27.5 -25l84 -102q11 -12 6.5 -23t-26.5 -11h-83q-31 0 -42.5 3.5t-20.5 17.5l-22 36l-38 -35q-15 -15 -27 -18.5t-41 -3.5h-81q-15 0 -20.5 5t-2 13t13.5 16l120 102q24 20 37 25t45 5h32zM116 670q5 23 15 31.5t32 8.5h118q23 0 30 -9t3 -31
l-111 -630q-4 -22 -14 -31t-33 -9h-118q-22 0 -29.5 8.5t-3.5 31.5z" />
    <glyph glyph-name="Idieresis" unicode="&#xcf;" horiz-adv-x="300" 
d="M154 914q42 0 55.5 -15.5t6.5 -55.5l-3 -13q-7 -40 -26 -55.5t-60 -15.5h-8q-41 0 -53.5 15.5t-5.5 55.5l3 13q7 41 24.5 56t58.5 15h8zM369 914q42 0 55 -15t6 -56l-3 -13q-7 -40 -25.5 -55.5t-59.5 -15.5h-7q-42 0 -55 15.5t-6 55.5l3 13q7 41 25 56t60 15h7zM116 670
q5 23 15 31.5t32 8.5h118q23 0 30 -9t3 -31l-111 -630q-4 -22 -14 -31t-33 -9h-118q-22 0 -29.5 8.5t-3.5 31.5z" />
    <glyph glyph-name="Eth" unicode="&#xd0;" horiz-adv-x="705" 
d="M436 710q145 0 212.5 -80.5t43.5 -212.5l-26 -150q-23 -129 -114 -198t-241 -69h-244q-24 0 -31.5 9.5t-3.5 32.5l45 254h-46q-14 0 -18.5 5t-1.5 21l13 76q5 26 30 26h46l43 244q4 23 14.5 32.5t34.5 9.5h244zM496 427q9 55 -13 81.5t-84 26.5h-82l-19 -111h82
q14 0 18 -5.5t1 -20.5l-13 -76q-3 -16 -9 -21t-20 -5h-82l-21 -121h81q116 0 136 108z" />
    <glyph glyph-name="Ntilde" unicode="&#xd1;" horiz-adv-x="702" 
d="M606 909q13 0 17 -5.5t2 -17.5q-12 -67 -40.5 -95t-78.5 -28q-42 0 -78 21t-48 21q-14 0 -18 -22q-3 -20 -23 -20h-61q-24 0 -19 23q11 68 40.5 95.5t76.5 27.5q33 0 58 -10.5t41.5 -20.5t28.5 -10q15 0 19 22q4 19 22 19h61zM679 710q24 0 32 -9.5t4 -32.5l-111 -626
q-4 -23 -15 -32.5t-35 -9.5h-110q-27 0 -37 20l-111 237q-22 48 -32.5 91.5t-19.5 114.5h-8q8 -144 -12 -258l-29 -163q-5 -23 -15.5 -32.5t-34.5 -9.5h-105q-24 0 -32 9.5t-3 32.5l110 626q5 23 15.5 32.5t34.5 9.5h114q29 0 39 -20l118 -256q25 -53 52 -183h8
q-11 87 -11.5 127t11.5 126l29 164q4 23 14.5 32.5t34.5 9.5h105z" />
    <glyph glyph-name="Ograve" unicode="&#xd2;" horiz-adv-x="682" 
d="M378 924q28 27 67 3l126 -83q22 -13 -3 -38l-34 -34q-15 -15 -47 -4l-172 56q-16 7 -15 15.5t17 24.5zM61 455q23 130 113.5 200t238.5 70q145 0 213.5 -80t45.5 -212l-31 -181q-23 -129 -113.5 -198t-238.5 -69q-146 0 -214 78.5t-46 210.5zM478 454q8 47 -16 71.5
t-76 24.5q-110 0 -127 -96l-35 -198q-8 -47 16 -71.5t77 -24.5q109 0 126 96z" />
    <glyph glyph-name="Oacute" unicode="&#xd3;" horiz-adv-x="682" 
d="M462 924q45 24 66 -3l40 -58q11 -15 8.5 -24t-21.5 -16l-191 -56q-18 -6 -28.5 -5.5t-16.5 10.5l-21 33q-10 14 -8 22t16 16zM61 455q23 130 113.5 200t238.5 70q145 0 213.5 -80t45.5 -212l-31 -181q-23 -129 -113.5 -198t-238.5 -69q-146 0 -214 78.5t-46 210.5z
M478 454q8 47 -16 71.5t-76 24.5q-110 0 -127 -96l-35 -198q-8 -47 16 -71.5t77 -24.5q109 0 126 96z" />
    <glyph glyph-name="Ocircumflex" unicode="&#xd4;" horiz-adv-x="682" 
d="M473 930q27 0 38.5 -5t27.5 -25l85 -102q11 -12 6 -23t-27 -11h-82q-31 0 -43 3.5t-21 17.5l-22 36l-37 -35q-15 -15 -27.5 -18.5t-41.5 -3.5h-80q-23 0 -24.5 11t14.5 23l120 102q24 20 37.5 25t44.5 5h32zM61 455q23 130 113.5 200t238.5 70q145 0 213.5 -80t45.5 -212
l-31 -181q-23 -129 -113.5 -198t-238.5 -69q-146 0 -214 78.5t-46 210.5zM478 454q8 47 -16 71.5t-76 24.5q-110 0 -127 -96l-35 -198q-8 -47 16 -71.5t77 -24.5q109 0 126 96z" />
    <glyph glyph-name="Otilde" unicode="&#xd5;" horiz-adv-x="682" 
d="M597 919q13 0 17 -5.5t2 -17.5q-12 -67 -40.5 -95t-78.5 -28q-42 0 -78 21t-48 21q-14 0 -18 -22q-3 -20 -23 -20h-61q-24 0 -19 23q11 68 40.5 95.5t76.5 27.5q43 0 80 -20.5t48 -20.5q15 0 19 22q4 19 22 19h61zM61 455q23 130 113.5 200t238.5 70q145 0 213.5 -80
t45.5 -212l-31 -181q-23 -129 -113.5 -198t-238.5 -69q-146 0 -214 78.5t-46 210.5zM478 454q8 47 -16 71.5t-76 24.5q-110 0 -127 -96l-35 -198q-8 -47 16 -71.5t77 -24.5q109 0 126 96z" />
    <glyph glyph-name="Odieresis" unicode="&#xd6;" horiz-adv-x="682" 
d="M347 924q42 0 55.5 -15.5t6.5 -55.5l-3 -13q-7 -40 -25.5 -55.5t-60.5 -15.5h-8q-41 0 -53.5 15.5t-5.5 55.5l3 13q7 41 24.5 56t59.5 15h7zM562 924q42 0 55 -15t6 -56l-3 -13q-7 -40 -25 -55.5t-60 -15.5h-7q-42 0 -55 15.5t-6 55.5l3 13q7 40 25.5 55.5t59.5 15.5h7z
M61 455q23 130 113.5 200t238.5 70q145 0 213.5 -80t45.5 -212l-31 -181q-23 -129 -113.5 -198t-238.5 -69q-146 0 -214 78.5t-46 210.5zM478 454q8 47 -16 71.5t-76 24.5q-110 0 -127 -96l-35 -198q-8 -47 16 -71.5t77 -24.5q109 0 126 96z" />
    <glyph glyph-name="multiply" unicode="&#xd7;" horiz-adv-x="534" 
d="M473 219q13 -16 11 -28.5t-21 -28.5l-68 -58q-19 -16 -31 -16t-26 16l-87 106l-123 -105q-20 -16 -32 -16t-25 16l-49 58q-13 16 -10.5 28.5t21.5 28.5l122 105l-86 105q-13 17 -10.5 29t20.5 28l69 58q34 29 57 0l86 -105l124 106q19 16 31.5 16t25.5 -16l49 -58
q13 -17 10.5 -29t-21.5 -28l-124 -106z" />
    <glyph glyph-name="Oslash" unicode="&#xd8;" horiz-adv-x="683" 
d="M734 753q19 0 6 -18l-96 -114q46 -75 28 -188l-32 -181q-23 -129 -113.5 -198t-237.5 -69q-89 0 -149 30l-34 -41q-9 -11 -15 -13.5t-24 -2.5h-93q-10 0 -11 6t6 13l89 108q-49 74 -29 189l31 181q23 130 114 200t238 70q92 0 152 -33l37 45q9 11 15.5 13.5t21.5 2.5h96z
M445 537q-24 13 -60 13q-52 0 -85.5 -24.5t-41.5 -71.5l-27 -153l-3 -25zM468 403q2 6 4 24l-214 -256q25 -11 58 -11q109 0 126 96z" />
    <glyph glyph-name="Ugrave" unicode="&#xd9;" horiz-adv-x="692" 
d="M381 914q28 27 66 3l126 -83q23 -13 -3 -38l-34 -34q-14 -15 -47 -4l-171 56q-11 4 -14 9.5t1 12.5t14 18zM233 252q-16 -92 88 -92q103 0 119 92l74 416q4 23 15 32.5t34 9.5h114q23 0 31 -9.5t4 -32.5l-75 -423q-23 -127 -109.5 -193.5t-233.5 -66.5q-145 0 -211 81.5
t-43 211.5l69 390q5 23 15.5 32.5t34.5 9.5h113q24 0 32 -9.5t3 -32.5z" />
    <glyph glyph-name="Uacute" unicode="&#xda;" horiz-adv-x="692" 
d="M464 914q46 23 66 -3l40 -58q12 -15 9 -24t-21 -16l-191 -56q-19 -6 -29.5 -5.5t-16.5 10.5l-21 33q-10 14 -7.5 22t16.5 16zM233 252q-16 -92 88 -92q103 0 119 92l74 416q4 23 15 32.5t34 9.5h114q23 0 31 -9.5t4 -32.5l-75 -423q-23 -127 -109.5 -193.5t-233.5 -66.5
q-145 0 -211 81.5t-43 211.5l69 390q5 23 15.5 32.5t34.5 9.5h113q24 0 32 -9.5t3 -32.5z" />
    <glyph glyph-name="Ucircumflex" unicode="&#xdb;" horiz-adv-x="692" 
d="M475 920q27 0 38.5 -5t27.5 -25l85 -102q11 -12 6.5 -23t-27.5 -11h-82q-31 0 -43 3.5t-21 17.5l-22 36l-37 -35q-15 -15 -27 -18.5t-42 -3.5h-80q-15 0 -20.5 5.5t-2 13t12.5 15.5l120 102q24 20 37.5 25t44.5 5h32zM233 252q-16 -92 88 -92q103 0 119 92l74 416
q4 23 15 32.5t34 9.5h114q23 0 31 -9.5t4 -32.5l-75 -423q-23 -127 -109.5 -193.5t-233.5 -66.5q-145 0 -211 81.5t-43 211.5l69 390q5 23 15.5 32.5t34.5 9.5h113q24 0 32 -9.5t3 -32.5z" />
    <glyph glyph-name="Udieresis" unicode="&#xdc;" horiz-adv-x="692" 
d="M350 914q42 0 55 -15.5t6 -55.5l-2 -13q-7 -40 -26 -55.5t-61 -15.5h-7q-42 0 -54.5 15.5t-4.5 55.5l2 13q7 41 24.5 56t59.5 15h8zM565 914q41 0 54 -15.5t6 -55.5l-2 -13q-7 -40 -25.5 -55.5t-60.5 -15.5h-7q-41 0 -54.5 15.5t-5.5 55.5l2 13q7 40 25.5 55.5t60.5 15.5
h7zM233 252q-16 -92 88 -92q103 0 119 92l74 416q4 23 15 32.5t34 9.5h114q23 0 31 -9.5t4 -32.5l-75 -423q-23 -127 -109.5 -193.5t-233.5 -66.5q-145 0 -211 81.5t-43 211.5l69 390q5 23 15.5 32.5t34.5 9.5h113q24 0 32 -9.5t3 -32.5z" />
    <glyph glyph-name="Yacute" unicode="&#xdd;" horiz-adv-x="673" 
d="M459 914q45 24 66 -3l40 -58q11 -15 8.5 -24t-21.5 -16l-191 -56q-18 -6 -28.5 -5.5t-16.5 10.5l-21 33q-10 14 -8 22t16 16zM717 710q15 0 21.5 -6t4 -15t-11.5 -21l-300 -393l-40 -233q-5 -23 -16 -32.5t-34 -9.5h-114q-23 0 -30.5 9.5t-3.5 32.5l40 233l-160 393
q-8 17 -1 29.5t29 12.5h116q40 0 54 -6t23 -31l71 -204l147 204q17 25 33 31t55 6h117z" />
    <glyph glyph-name="Thorn" unicode="&#xde;" horiz-adv-x="637" 
d="M412 620q120 0 179.5 -75.5t37.5 -196.5q-21 -119 -103.5 -183.5t-205.5 -64.5h-108l-10 -58q-4 -23 -15 -32.5t-35 -9.5h-112q-24 0 -32 9.5t-3 32.5l110 626q5 23 15.5 32.5t34.5 9.5h112q24 0 32 -9.5t4 -32.5l-9 -48h108zM325 275q39 0 67 24t34 61q7 37 -12 61
t-58 24h-83l-30 -170h82z" />
    <glyph glyph-name="germandbls" unicode="&#xdf;" horiz-adv-x="588" 
d="M83 535q18 104 89 159.5t191 55.5q124 0 178.5 -58.5t37.5 -154.5q-10 -52 -32 -84t-65 -59l-1 -4q45 -22 63.5 -62.5t4.5 -119.5q-18 -103 -87.5 -155.5t-179.5 -52.5h-41q-24 0 -31.5 9.5t-2.5 32.5l16 91q4 24 15 33t34 9h15q56 1 66 59q11 60 -46 60h-14
q-24 0 -31.5 9.5t-2.5 33.5l15 86q4 24 13.5 33t29.5 9h8q46 0 56 56q10 54 -49 54q-58 0 -67 -57l-84 -476q-4 -23 -15 -32.5t-35 -9.5h-101q-24 0 -31.5 9.5t-3.5 32.5z" />
    <glyph glyph-name="agrave" unicode="&#xe0;" horiz-adv-x="545" 
d="M285 732q30 27 66 2l125 -84q11 -8 10 -16t-15 -22l-35 -33q-14 -15 -46 -3l-170 60q-16 7 -15 15.5t17 24.5zM31 324q19 109 87.5 160t192.5 51t192 -34q23 -12 28 -22.5t0 -35.5l-68 -387q-4 -21 -13.5 -31t-32.5 -16q-99 -24 -217 -24q-112 0 -159.5 62.5t-28.5 168.5
zM327 369q-15 4 -39 4q-33 0 -50 -12.5t-22 -42.5l-22 -122q-7 -50 48 -50q32 0 52 5l37 211q2 6 -4 7z" />
    <glyph glyph-name="aacute" unicode="&#xe1;" horiz-adv-x="545" 
d="M364 734q46 25 66 -2l42 -56q12 -15 10 -24t-22 -16l-190 -60q-36 -12 -46 3l-23 33q-16 25 9 38zM31 324q19 109 87.5 160t192.5 51t192 -34q23 -12 28 -22.5t0 -35.5l-68 -387q-4 -21 -13.5 -31t-32.5 -16q-99 -24 -217 -24q-112 0 -159.5 62.5t-28.5 168.5zM327 369
q-15 4 -39 4q-33 0 -50 -12.5t-22 -42.5l-22 -122q-7 -50 48 -50q32 0 52 5l37 211q2 6 -4 7z" />
    <glyph glyph-name="acircumflex" unicode="&#xe2;" horiz-adv-x="545" 
d="M377 740q28 0 39 -4.5t28 -24.5l84 -102q11 -12 6 -23.5t-27 -11.5h-78q-30 0 -42 4t-20 18l-23 35l-37 -35q-15 -14 -28 -18t-41 -4h-81q-15 0 -20.5 5.5t-1.5 13.5t13 16l120 102q24 20 37.5 24.5t44.5 4.5h27zM31 324q19 109 87.5 160t192.5 51t192 -34
q23 -12 28 -22.5t0 -35.5l-68 -387q-4 -21 -13.5 -31t-32.5 -16q-99 -24 -217 -24q-112 0 -159.5 62.5t-28.5 168.5zM327 369q-15 4 -39 4q-33 0 -50 -12.5t-22 -42.5l-22 -122q-7 -50 48 -50q32 0 52 5l37 211q2 6 -4 7z" />
    <glyph glyph-name="atilde" unicode="&#xe3;" horiz-adv-x="545" 
d="M502 731q24 0 19 -23q-12 -68 -41 -95.5t-79 -27.5q-42 0 -78 20.5t-47 20.5q-15 0 -19 -22q-3 -19 -22 -19h-62q-22 0 -19 23q12 67 41.5 95t76.5 28q43 0 80 -21t48 -21q15 0 19 22q3 20 22 20h61zM31 324q19 109 87.5 160t192.5 51t192 -34q23 -12 28 -22.5t0 -35.5
l-68 -387q-4 -21 -13.5 -31t-32.5 -16q-99 -24 -217 -24q-112 0 -159.5 62.5t-28.5 168.5zM327 369q-15 4 -39 4q-33 0 -50 -12.5t-22 -42.5l-22 -122q-7 -50 48 -50q32 0 52 5l37 211q2 6 -4 7z" />
    <glyph glyph-name="adieresis" unicode="&#xe4;" horiz-adv-x="545" 
d="M252 733q41 0 54 -15.5t6 -55.5l-2 -13q-7 -40 -25.5 -56t-60.5 -16h-7q-42 0 -55 16t-5 56l2 13q8 41 25.5 56t59.5 15h8zM467 733q41 0 54 -15t5 -56l-2 -13q-7 -40 -25 -56t-60 -16h-7q-41 0 -55 16t-6 56l2 13q7 40 26 55.5t61 15.5h7zM31 324q19 109 87.5 160
t192.5 51t192 -34q23 -12 28 -22.5t0 -35.5l-68 -387q-4 -21 -13.5 -31t-32.5 -16q-99 -24 -217 -24q-112 0 -159.5 62.5t-28.5 168.5zM327 369q-15 4 -39 4q-33 0 -50 -12.5t-22 -42.5l-22 -122q-7 -50 48 -50q32 0 52 5l37 211q2 6 -4 7z" />
    <glyph glyph-name="aring" unicode="&#xe5;" horiz-adv-x="545" 
d="M214 680q9 54 51 85.5t100 31.5q57 0 86.5 -32t19.5 -85q-9 -53 -50 -84.5t-97 -31.5q-58 0 -89 31t-21 85zM379 680q2 16 -6 26t-23 10q-37 0 -44 -36q-3 -15 5.5 -24.5t26.5 -9.5q15 0 26.5 9t14.5 25zM31 324q19 109 87.5 160t192.5 51t192 -34q23 -12 28 -22.5
t0 -35.5l-68 -387q-4 -21 -13.5 -31t-32.5 -16q-99 -24 -217 -24q-112 0 -159.5 62.5t-28.5 168.5zM327 369q-15 4 -39 4q-33 0 -50 -12.5t-22 -42.5l-22 -122q-7 -50 48 -50q32 0 52 5l37 211q2 6 -4 7z" />
    <glyph glyph-name="ae" unicode="&#xe6;" horiz-adv-x="771" 
d="M413 487q66 48 150 48q110 0 163 -46.5t38 -133.5q-12 -71 -70 -110.5t-147 -39.5q-47 0 -102 6l-4 -21q-11 -65 48 -65q46 0 79 37q12 16 22 18.5t31 -8.5l61 -34q35 -20 7 -58q-65 -95 -227 -95q-71 0 -120 28q-66 -28 -149 -28q-118 0 -164 45.5t-33 130.5
q14 85 74.5 121t185.5 36q8 0 22 -0.5t18 -0.5l4 25q1 12 2 23t-9.5 19.5t-32.5 8.5q-33 0 -62 -36q-11 -15 -20.5 -17.5t-31.5 6.5l-70 30q-13 6 -18.5 13t-4 17.5t11.5 24.5q38 53 90.5 78.5t133.5 25.5q79 0 124 -48zM582 362q4 19 -7.5 30t-37.5 11q-28 0 -46.5 -16
t-22.5 -44l-2 -13q40 -4 61 -4q50 0 55 36zM273 192q-22 2 -44 2q-46 0 -54 -42q-7 -40 37 -40q22 0 57 5q-3 30 2 61z" />
    <glyph glyph-name="ccedilla" unicode="&#xe7;" horiz-adv-x="517" 
d="M31 324q38 211 280 211q89 0 138.5 -38.5t59.5 -101.5q4 -23 -3.5 -34.5t-30.5 -18.5l-90 -30q-24 -8 -34.5 -2t-15.5 29q-9 40 -55 40q-53 0 -63 -55l-23 -129q-10 -54 44 -54q43 0 66 41q13 22 25 27.5t34 -2.5l92 -29q41 -14 16 -56q-69 -114 -201 -133l-22 -39h7
q44 -1 61.5 -31t5.5 -73q-26 -96 -164 -96q-35 0 -74 16q-25 10 -22 31l8 42q5 32 34 16q27 -15 53 -15q35 0 39 23q2 11 -6.5 16.5t-32.5 5.5h-19q-29 0 -10 30l44 72q-98 9 -137 69.5t-23 157.5z" />
    <glyph glyph-name="egrave" unicode="&#xe8;" horiz-adv-x="542" 
d="M282 732q30 27 66 2l125 -84q20 -13 -5 -38l-34 -33q-15 -15 -47 -3l-170 60q-16 7 -15 15.5t17 24.5zM31 324q18 101 92 156t193 55q112 0 170.5 -48t46.5 -137q-11 -69 -69 -107t-154 -38q-52 0 -113 6l-4 -21q-11 -64 54 -64q53 0 87 36q14 15 25 18t33 -8l65 -33
q36 -19 9 -58q-71 -96 -243 -96q-128 0 -179 65t-32 170zM351 362q6 41 -55 41q-63 0 -76 -62l-3 -11q37 -5 69 -5q59 0 65 37z" />
    <glyph glyph-name="eacute" unicode="&#xe9;" horiz-adv-x="542" 
d="M361 734q46 25 66 -2l43 -56q11 -15 9 -24t-21 -16l-191 -60q-36 -12 -46 3l-22 33q-10 14 -8 22.5t17 15.5zM31 324q18 101 92 156t193 55q112 0 170.5 -48t46.5 -137q-11 -69 -69 -107t-154 -38q-52 0 -113 6l-4 -21q-11 -64 54 -64q53 0 87 36q14 15 25 18t33 -8
l65 -33q36 -19 9 -58q-71 -96 -243 -96q-128 0 -179 65t-32 170zM351 362q6 41 -55 41q-63 0 -76 -62l-3 -11q37 -5 69 -5q59 0 65 37z" />
    <glyph glyph-name="ecircumflex" unicode="&#xea;" horiz-adv-x="542" 
d="M154 574q-15 0 -20.5 5.5t-1.5 13.5t13 16l121 102q23 20 36.5 24.5t44.5 4.5h28q27 0 38 -4.5t28 -24.5l84 -102q11 -12 6 -23.5t-27 -11.5h-77q-31 0 -43 4t-20 18l-23 35l-37 -35q-15 -14 -27.5 -18t-41.5 -4h-81zM316 535q112 0 170.5 -48t46.5 -137
q-11 -69 -69 -107t-154 -38q-52 0 -113 6l-4 -21q-11 -64 54 -64q53 0 87 36q14 15 25 18t33 -8l65 -33q36 -19 9 -58q-71 -96 -243 -96q-128 0 -179 65t-32 170l19 104q18 101 92 156t193 55zM351 362q6 41 -55 41q-63 0 -76 -62l-3 -11q37 -5 69 -5q59 0 65 37z" />
    <glyph glyph-name="edieresis" unicode="&#xeb;" horiz-adv-x="542" 
d="M249 733q41 0 54.5 -15.5t6.5 -55.5l-2 -13q-8 -40 -26.5 -56t-59.5 -16h-8q-41 0 -54 16t-6 56l2 13q8 41 26 56t59 15h8zM464 733q41 0 54 -15t6 -56l-2 -13q-8 -40 -26 -56t-59 -16h-7q-42 0 -55.5 16t-6.5 56l2 13q7 40 26 55.5t61 15.5h7zM31 324q18 101 92 156
t193 55q112 0 170.5 -48t46.5 -137q-11 -69 -69 -107t-154 -38q-52 0 -113 6l-4 -21q-11 -64 54 -64q53 0 87 36q14 15 25 18t33 -8l65 -33q36 -19 9 -58q-71 -96 -243 -96q-128 0 -179 65t-32 170zM351 362q6 41 -55 41q-63 0 -76 -62l-3 -11q37 -5 69 -5q59 0 65 37z" />
    <glyph glyph-name="igrave" unicode="&#xec;" horiz-adv-x="269" 
d="M136 732q30 27 64 0l115 -91q11 -9 9.5 -16t-16.5 -22l-30 -29q-16 -16 -46 0l-155 71q-15 9 -13.5 17t18.5 23zM228 520q22 0 29 -8.5t3 -29.5l-78 -444q-4 -21 -14 -29.5t-32 -8.5h-109q-22 0 -29 8.5t-3 29.5l78 444q4 21 14 29.5t32 8.5h109z" />
    <glyph glyph-name="iacute" unicode="&#xed;" horiz-adv-x="269" 
d="M206 734q44 28 67 2l47 -53q11 -14 9.5 -23.5t-20.5 -16.5l-180 -69q-36 -16 -46 0l-26 31q-10 14 -8.5 21.5t15.5 16.5zM228 520q22 0 29 -8.5t3 -29.5l-78 -444q-4 -21 -14 -29.5t-32 -8.5h-109q-22 0 -29 8.5t-3 29.5l78 444q4 21 14 29.5t32 8.5h109z" />
    <glyph glyph-name="icircumflex" unicode="&#xee;" horiz-adv-x="269" 
d="M365 607q11 -12 6 -23t-27 -11h-75q-29 0 -40.5 4.5t-19.5 18.5l-17 30l-31 -32q-13 -14 -25.5 -17.5t-41.5 -3.5h-80q-22 0 -22.5 11t13.5 23l112 100q21 19 34.5 23.5t45.5 4.5h26q27 0 38.5 -4.5t26.5 -23.5zM228 520q22 0 29 -8.5t3 -29.5l-78 -444q-4 -21 -14 -29.5
t-32 -8.5h-109q-22 0 -29 8.5t-3 29.5l78 444q4 21 14 29.5t32 8.5h109z" />
    <glyph glyph-name="idieresis" unicode="&#xef;" horiz-adv-x="269" 
d="M111 733q42 0 55 -15.5t6 -55.5l-2 -13q-8 -40 -26.5 -56t-59.5 -16h-7q-42 0 -55 16t-5 56l2 13q8 41 25.5 56t59.5 15h7zM318 733q41 0 54 -15t5 -56l-2 -13q-7 -40 -25 -56t-60 -16h-7q-41 0 -55 16t-6 56l2 13q7 40 26 55.5t61 15.5h7zM228 520q22 0 29 -8.5t3 -29.5
l-78 -444q-4 -21 -14 -29.5t-32 -8.5h-109q-22 0 -29 8.5t-3 29.5l78 444q4 21 14 29.5t32 8.5h109z" />
    <glyph glyph-name="eth" unicode="&#xf0;" horiz-adv-x="559" 
d="M479 758q15 14 26 1l32 -29q14 -11 -3 -27l-32 -30q72 -81 35 -293l-32 -182q-18 -103 -91 -158t-194 -55t-174.5 60.5t-35.5 164.5l17 91q17 95 85 143.5t170 48.5q69 0 110 -27q4 55 -23 85l-39 -35q-9 -8 -13.5 -8t-13.5 6l-30 21q-13 10 4 27l24 24q-29 6 -113 6
q-23 0 -30.5 8.5t-4.5 31.5l13 71q4 23 14 32t33 9q151 0 224 -27zM335 291q9 54 -52 54q-63 0 -72 -54l-16 -92q-11 -53 53 -53q60 0 71 53z" />
    <glyph glyph-name="ntilde" unicode="&#xf1;" 
d="M496 731q24 0 19 -23q-12 -68 -41 -95.5t-79 -27.5q-42 0 -78 20.5t-47 20.5q-15 0 -19 -22q-3 -19 -22 -19h-62q-22 0 -19 23q12 67 41.5 95t76.5 28q43 0 80 -21t48 -21q15 0 19 22q3 20 22 20h61zM116 498q100 37 219 37q113 0 159 -57.5t28 -162.5l-49 -277
q-4 -21 -14 -29.5t-31 -8.5h-110q-22 0 -28.5 8.5t-2.5 29.5l48 274q5 29 -7 42t-43 13q-26 0 -45 -4q-2 -1 -4 -4l-56 -321q-4 -21 -14 -29.5t-32 -8.5h-109q-22 0 -29 8.5t-3 29.5l71 400q5 25 15 37.5t37 22.5z" />
    <glyph glyph-name="ograve" unicode="&#xf2;" horiz-adv-x="550" 
d="M280 732q30 27 66 2l125 -84q20 -13 -5 -38l-34 -33q-15 -15 -47 -3l-170 60q-16 7 -15 15.5t17 24.5zM30 323q19 103 91.5 157.5t193.5 54.5q120 0 174 -61t36 -165l-19 -112q-19 -103 -91.5 -157.5t-194.5 -54.5q-119 0 -173 61t-36 165zM341 321q11 54 -53 54
q-61 0 -72 -54l-21 -122q-11 -53 52 -53q62 0 73 53z" />
    <glyph glyph-name="oacute" unicode="&#xf3;" horiz-adv-x="550" 
d="M359 734q46 25 66 -2l43 -56q11 -15 9 -24t-21 -16l-191 -60q-36 -12 -46 3l-22 33q-10 14 -8 22.5t17 15.5zM30 323q19 103 91.5 157.5t193.5 54.5q120 0 174 -61t36 -165l-19 -112q-19 -103 -91.5 -157.5t-194.5 -54.5q-119 0 -173 61t-36 165zM341 321q11 54 -53 54
q-61 0 -72 -54l-21 -122q-11 -53 52 -53q62 0 73 53z" />
    <glyph glyph-name="ocircumflex" unicode="&#xf4;" horiz-adv-x="550" 
d="M152 574q-15 0 -20.5 5.5t-1.5 13.5t13 16l121 102q23 20 36.5 24.5t44.5 4.5h28q27 0 38 -4.5t28 -24.5l84 -102q11 -12 6 -23.5t-27 -11.5h-77q-31 0 -43 4t-20 18l-23 35l-37 -35q-15 -14 -27.5 -18t-41.5 -4h-81zM315 535q120 0 174 -61t36 -165l-19 -112
q-19 -103 -91.5 -157.5t-194.5 -54.5q-119 0 -173 61t-36 165l19 112q19 103 91.5 157.5t193.5 54.5zM341 321q11 54 -53 54q-61 0 -72 -54l-21 -122q-11 -53 52 -53q62 0 73 53z" />
    <glyph glyph-name="otilde" unicode="&#xf5;" horiz-adv-x="550" 
d="M497 731q24 0 19 -23q-12 -68 -41 -95.5t-79 -27.5q-42 0 -78 20.5t-47 20.5q-15 0 -19 -22q-3 -19 -22 -19h-62q-22 0 -19 23q12 67 41.5 95t76.5 28q43 0 80 -21t48 -21q15 0 19 22q3 20 22 20h61zM30 323q19 103 91.5 157.5t193.5 54.5q120 0 174 -61t36 -165
l-19 -112q-19 -103 -91.5 -157.5t-194.5 -54.5q-119 0 -173 61t-36 165zM341 321q11 54 -53 54q-61 0 -72 -54l-21 -122q-11 -53 52 -53q62 0 73 53z" />
    <glyph glyph-name="odieresis" unicode="&#xf6;" horiz-adv-x="550" 
d="M247 733q41 0 54.5 -15.5t6.5 -55.5l-2 -13q-8 -40 -26.5 -56t-59.5 -16h-8q-41 0 -54 16t-6 56l2 13q8 41 26 56t59 15h8zM462 733q41 0 54 -15t6 -56l-2 -13q-8 -40 -26 -56t-59 -16h-7q-42 0 -55.5 16t-6.5 56l2 13q7 40 26 55.5t61 15.5h7zM30 323q19 103 91.5 157.5
t193.5 54.5q120 0 174 -61t36 -165l-19 -112q-19 -103 -91.5 -157.5t-194.5 -54.5q-119 0 -173 61t-36 165zM341 321q11 54 -53 54q-61 0 -72 -54l-21 -122q-11 -53 52 -53q62 0 73 53z" />
    <glyph glyph-name="divide" unicode="&#xf7;" horiz-adv-x="554" 
d="M356 605q43 0 57 -16t6 -59l-2 -11q-8 -43 -27.5 -59.5t-62.5 -16.5h-50q-43 0 -56.5 16.5t-5.5 59.5l2 11q8 43 27 59t62 16h50zM505 411q24 0 31.5 -9.5t3.5 -33.5l-15 -85q-4 -24 -15.5 -33t-34.5 -9h-416q-24 0 -31.5 9t-3.5 33l15 85q4 24 15 33.5t35 9.5h416z
M286 208q44 0 57 -16t5 -59l-1 -11q-8 -43 -27.5 -59.5t-61.5 -16.5h-50q-43 0 -57 16.5t-6 59.5l2 11q8 43 27 59t62 16h50z" />
    <glyph glyph-name="oslash" unicode="&#xf8;" horiz-adv-x="551" 
d="M539 552q21 0 6 -18l-52 -64q50 -60 32 -161l-19 -112q-18 -103 -90.5 -157.5t-194.5 -54.5q-61 0 -106 17l-19 -23q-12 -14 -35 -14h-57q-21 0 -5 18l50 61q-55 61 -37 167l19 112q18 103 91 157.5t194 54.5q67 0 113 -20l19 23q12 14 34 14h57zM333 386q-12 13 -40 13
q-63 0 -72 -54l-19 -103q-2 -12 -2 -20zM207 131q13 -9 36 -9q64 0 73 53l18 100q2 8 2 14z" />
    <glyph glyph-name="ugrave" unicode="&#xf9;" 
d="M282 732q29 27 66 2l125 -84q11 -8 10 -16t-15 -22l-35 -33q-14 -15 -47 -3l-169 60q-16 7 -15.5 15.5t17.5 24.5zM516 520q22 0 29 -8.5t3 -29.5l-71 -400q-5 -25 -15 -37.5t-37 -22.5q-100 -37 -219 -37q-112 0 -158 60t-27 166l47 271q4 21 14 29.5t32 8.5h109
q22 0 29 -8.5t3 -29.5l-48 -274q-5 -29 6.5 -42t42.5 -13q21 0 41 4q7 1 9 9l55 316q4 21 14 29.5t32 8.5h109z" />
    <glyph glyph-name="uacute" unicode="&#xfa;" 
d="M361 734q45 25 66 -2l42 -56q12 -15 9.5 -24t-21.5 -16l-190 -60q-19 -7 -29.5 -6.5t-16.5 9.5l-23 33q-16 25 9 38zM516 520q22 0 29 -8.5t3 -29.5l-71 -400q-5 -25 -15 -37.5t-37 -22.5q-100 -37 -219 -37q-112 0 -158 60t-27 166l47 271q4 21 14 29.5t32 8.5h109
q22 0 29 -8.5t3 -29.5l-48 -274q-5 -29 6.5 -42t42.5 -13q21 0 41 4q7 1 9 9l55 316q4 21 14 29.5t32 8.5h109z" />
    <glyph glyph-name="ucircumflex" unicode="&#xfb;" 
d="M374 740q28 0 39 -4.5t27 -24.5l85 -102q11 -12 6 -23.5t-28 -11.5h-77q-31 0 -42.5 4t-19.5 18l-23 35l-37 -35q-15 -14 -28 -18t-41 -4h-81q-15 0 -20.5 5.5t-1.5 13.5t13 16l120 102q23 19 36.5 24t45.5 5h27zM516 520q22 0 29 -8.5t3 -29.5l-71 -400
q-5 -25 -15 -37.5t-37 -22.5q-100 -37 -219 -37q-112 0 -158 60t-27 166l47 271q4 21 14 29.5t32 8.5h109q22 0 29 -8.5t3 -29.5l-48 -274q-5 -29 6.5 -42t42.5 -13q21 0 41 4q7 1 9 9l55 316q4 21 14 29.5t32 8.5h109z" />
    <glyph glyph-name="udieresis" unicode="&#xfc;" 
d="M248 733q42 0 55 -15.5t6 -55.5l-2 -13q-8 -40 -26.5 -56t-59.5 -16h-7q-42 0 -55 16t-5 56l2 13q8 41 25.5 56t59.5 15h7zM463 733q42 0 55 -15t5 -56l-2 -13q-8 -40 -26 -56t-59 -16h-7q-41 0 -55 16t-6 56l2 13q7 40 26 55.5t60 15.5h7zM516 520q22 0 29 -8.5t3 -29.5
l-71 -400q-5 -25 -15 -37.5t-37 -22.5q-100 -37 -219 -37q-112 0 -158 60t-27 166l47 271q4 21 14 29.5t32 8.5h109q22 0 29 -8.5t3 -29.5l-48 -274q-5 -29 6.5 -42t42.5 -13q21 0 41 4q7 1 9 9l55 316q4 21 14 29.5t32 8.5h109z" />
    <glyph glyph-name="yacute" unicode="&#xfd;" horiz-adv-x="558" 
d="M361 734q45 25 66 -2l42 -56q11 -15 9 -24t-21 -16l-191 -60q-36 -12 -45 3l-23 33q-10 14 -8 22.5t17 15.5zM516 520q22 0 28.5 -8.5t2.5 -29.5l-85 -487q-41 -225 -280 -225q-82 0 -129 25t-70 76q-17 38 28 58l85 39q26 9 35 6t18 -19q19 -33 58 -33q55 0 66 58l6 39
q-27 -4 -68 -4q-112 0 -158 62t-27 168l42 237q4 21 13.5 29.5t31.5 8.5h110q22 0 28.5 -8.5t2.5 -29.5l-43 -244q-10 -55 51 -55q27 0 47 4l52 295q4 21 14 29.5t31 8.5h110z" />
    <glyph glyph-name="thorn" unicode="&#xfe;" horiz-adv-x="550" 
d="M112 701q4 22 13.5 30.5t31.5 8.5h110q22 0 29 -8.5t3 -30.5l-30 -169q29 3 63 3q115 0 162.5 -60t28.5 -165l-19 -108q-38 -217 -271 -217q-13 0 -60 5l-30 -171q-4 -22 -13.5 -30t-31.5 -8h-110q-22 0 -28.5 8t-2.5 30zM339 324q9 49 -48 49q-25 0 -51 -6l-38 -216
q20 -5 43 -5q62 0 72 55z" />
    <glyph glyph-name="ydieresis" unicode="&#xff;" horiz-adv-x="558" 
d="M248 733q42 0 55 -15.5t6 -55.5l-2 -13q-8 -40 -26.5 -56t-59.5 -16h-8q-41 0 -54 16t-5 56l2 13q7 41 25 56t59 15h8zM463 733q42 0 55 -15t5 -56l-2 -13q-8 -40 -26 -56t-59 -16h-7q-42 0 -55.5 16t-5.5 56l2 13q7 40 25.5 55.5t60.5 15.5h7zM516 520q22 0 28.5 -8.5
t2.5 -29.5l-85 -487q-41 -225 -280 -225q-82 0 -129 25t-70 76q-17 38 28 58l85 39q26 9 35 6t18 -19q19 -33 58 -33q55 0 66 58l6 39q-27 -4 -68 -4q-112 0 -158 62t-27 168l42 237q4 21 13.5 29.5t31.5 8.5h110q22 0 28.5 -8.5t2.5 -29.5l-43 -244q-10 -55 51 -55
q27 0 47 4l52 295q4 21 14 29.5t31 8.5h110z" />
    <glyph glyph-name="Amacron" unicode="&#x100;" horiz-adv-x="688" 
d="M569 892q22 0 28.5 -7t2.5 -29l-8 -42q-4 -22 -12.5 -29t-30.5 -7h-243q-22 0 -28 7t-2 29l8 42q4 21 13 28.5t29 7.5h243zM638 41q8 -41 -37 -41h-104q-37 0 -51 9t-16 33l-10 72h-217l-35 -72q-12 -24 -28 -33t-52 -9h-110q-42 0 -19 41l342 634q11 21 23 28t35 7h113
q22 0 32.5 -7t14.5 -26zM386 388q-3 35 -2.5 66.5t2.5 52.5l3 21h-9q-13 -72 -45 -139l-57 -118h124z" />
    <glyph glyph-name="amacron" unicode="&#x101;" horiz-adv-x="545" 
d="M473 710q22 0 28 -7t2 -29l-8 -42q-3 -22 -11.5 -29t-30.5 -7h-244q-21 0 -27 7t-3 29l8 42q4 21 13 28.5t29 7.5h244zM31 324q19 109 87.5 160t192.5 51t192 -34q23 -12 28 -22.5t0 -35.5l-68 -387q-4 -21 -13.5 -31t-32.5 -16q-99 -24 -217 -24q-112 0 -159.5 62.5
t-28.5 168.5zM327 369q-15 4 -39 4q-33 0 -50 -12.5t-22 -42.5l-22 -122q-7 -50 48 -50q32 0 52 5l37 211q2 6 -4 7z" />
    <glyph glyph-name="Abreve" unicode="&#x102;" horiz-adv-x="688" 
d="M620 860q-59 -106 -196 -106q-66 0 -106.5 27.5t-51.5 78.5q-5 24 23 35l71 25q17 6 24 3.5t12 -15.5q12 -33 49 -33q35 0 60 33q10 13 17 15.5t21 -2.5l65 -26q25 -10 12 -35zM638 41q8 -41 -37 -41h-104q-37 0 -51 9t-16 33l-10 72h-217l-35 -72q-12 -24 -28 -33
t-52 -9h-110q-42 0 -19 41l342 634q11 21 23 28t35 7h113q22 0 32.5 -7t14.5 -26zM386 388q-3 35 -2.5 66.5t2.5 52.5l3 21h-9q-13 -72 -45 -139l-57 -118h124z" />
    <glyph glyph-name="abreve" unicode="&#x103;" horiz-adv-x="545" 
d="M524 680q-58 -106 -195 -106q-66 0 -107 27.5t-51 78.5q-4 14 1.5 21.5t21.5 13.5l68 24q18 6 24.5 3.5t12.5 -15.5q12 -32 50 -32q36 0 60 33q10 12 16.5 14.5t21.5 -2.5l66 -25q14 -6 16 -13.5t-5 -21.5zM31 324q19 109 87.5 160t192.5 51t192 -34q23 -12 28 -22.5
t0 -35.5l-68 -387q-4 -21 -13.5 -31t-32.5 -16q-99 -24 -217 -24q-112 0 -159.5 62.5t-28.5 168.5zM327 369q-15 4 -39 4q-33 0 -50 -12.5t-22 -42.5l-22 -122q-7 -50 48 -50q32 0 52 5l37 211q2 6 -4 7z" />
    <glyph glyph-name="Aogonek" unicode="&#x104;" horiz-adv-x="688" 
d="M472 710q22 0 32.5 -7t14.5 -26l119 -636q4 -23 -9 -35q-82 -70 -84 -121q0 -19 15 -19q8 0 19 6q20 11 23 -6l13 -51q5 -19 -11 -29q-47 -32 -118 -32q-92 0 -95 73q-1 85 107 173q-39 1 -52.5 9.5t-15.5 32.5l-10 72h-217l-35 -72q-12 -24 -28 -33t-52 -9h-110
q-42 0 -19 41l342 634q11 21 23 28t35 7h113zM386 388q-3 35 -2.5 66.5t2.5 52.5l3 21h-9q-13 -72 -45 -139l-57 -118h124z" />
    <glyph glyph-name="aogonek" unicode="&#x105;" horiz-adv-x="546" 
d="M31 324q19 109 87.5 160t192.5 51t192 -34q23 -12 28 -22.5t0 -35.5l-68 -387q-4 -21 -15 -32q-85 -82 -88 -139q0 -19 15 -19q9 0 19 6q18 11 23 -6l13 -51q4 -19 -11 -29q-47 -32 -118 -32q-40 0 -67.5 17t-27.5 56q0 82 95 163q-40 -5 -101 -5q-112 0 -159.5 62.5
t-28.5 168.5zM327 369q-15 4 -39 4q-33 0 -50 -12.5t-22 -42.5l-22 -122q-7 -50 48 -50q32 0 52 5l37 211q2 6 -4 7z" />
    <glyph glyph-name="Cacute" unicode="&#x106;" horiz-adv-x="647" 
d="M461 914q47 23 66 -3l41 -58q11 -15 8.5 -24t-21.5 -16l-191 -56q-18 -6 -29 -5.5t-17 10.5l-21 33q-16 25 9 38zM62 459q22 129 113.5 197.5t239.5 68.5q216 0 249 -178q5 -22 -2.5 -34.5t-31.5 -19.5l-103 -35q-24 -7 -34.5 -1.5t-15.5 28.5q-7 34 -28 49.5t-63 15.5
q-58 0 -88.5 -25.5t-39.5 -78.5l-33 -182q-9 -53 12.5 -78.5t79.5 -25.5q79 0 115 65q14 24 26 29.5t33 -2.5l104 -40q39 -14 17 -54q-94 -173 -323 -173q-145 0 -213.5 79t-46.5 210z" />
    <glyph glyph-name="cacute" unicode="&#x107;" horiz-adv-x="517" 
d="M343 734q45 25 66 -2l42 -56q12 -15 9.5 -24t-21.5 -16l-191 -60q-36 -12 -45 3l-23 33q-10 14 -7.5 22t16.5 16zM31 324q38 211 279 211q89 0 138.5 -38.5t60.5 -101.5q4 -22 -4 -33.5t-31 -19.5l-89 -30q-25 -8 -35 -2t-15 29q-9 40 -55 40q-53 0 -64 -55l-22 -129
q-5 -26 6.5 -40t36.5 -14q42 0 67 41q12 22 24.5 27.5t34.5 -2.5l91 -29q41 -13 16 -56q-81 -137 -259 -137q-120 0 -169 61t-30 168z" />
    <glyph glyph-name="Ccircumflex" unicode="&#x108;" horiz-adv-x="647" 
d="M473 920q27 0 38.5 -5t27.5 -25l84 -102q11 -12 6.5 -23t-26.5 -11h-83q-31 0 -42.5 3.5t-20.5 17.5l-22 36l-38 -35q-15 -15 -27 -18.5t-41 -3.5h-81q-15 0 -20.5 5t-2 13t13.5 16l120 102q24 20 37 25t45 5h32zM62 459q22 129 113.5 197.5t239.5 68.5q216 0 249 -178
q5 -22 -2.5 -34.5t-31.5 -19.5l-103 -35q-24 -7 -34.5 -1.5t-15.5 28.5q-7 34 -28 49.5t-63 15.5q-58 0 -88.5 -25.5t-39.5 -78.5l-33 -182q-9 -53 12.5 -78.5t79.5 -25.5q79 0 115 65q14 24 26 29.5t33 -2.5l104 -40q39 -14 17 -54q-94 -173 -323 -173q-145 0 -213.5 79
t-46.5 210z" />
    <glyph glyph-name="ccircumflex" unicode="&#x109;" horiz-adv-x="517" 
d="M507 609q11 -12 6 -23.5t-28 -11.5h-77q-31 0 -42.5 4t-20.5 18l-22 35l-37 -35q-15 -14 -28 -18t-41 -4h-81q-23 0 -24 11.5t15 23.5l120 102q23 20 36.5 24.5t45.5 4.5h27q27 0 38 -4.5t28 -24.5zM310 535q89 0 138.5 -38.5t60.5 -101.5q4 -22 -4 -33.5t-31 -19.5
l-89 -30q-25 -8 -35 -2t-15 29q-9 40 -55 40q-53 0 -64 -55l-22 -129q-5 -26 6.5 -40t36.5 -14q42 0 67 41q12 22 24.5 27.5t34.5 -2.5l91 -29q41 -13 16 -56q-81 -137 -259 -137q-120 0 -169 61t-30 168l19 110q38 211 279 211z" />
    <glyph glyph-name="Cdotaccent" unicode="&#x10a;" horiz-adv-x="647" 
d="M455 915q43 0 56 -15.5t5 -59.5l-2 -8q-8 -44 -26 -59.5t-61 -15.5h-6q-43 0 -56.5 15.5t-6.5 59.5l2 8q8 44 26.5 59.5t62.5 15.5h6zM62 459q22 129 113.5 197.5t239.5 68.5q216 0 249 -178q5 -22 -2.5 -34.5t-31.5 -19.5l-103 -35q-24 -7 -34.5 -1.5t-15.5 28.5
q-7 34 -28 49.5t-63 15.5q-58 0 -88.5 -25.5t-39.5 -78.5l-33 -182q-9 -53 12.5 -78.5t79.5 -25.5q79 0 115 65q14 24 26 29.5t33 -2.5l104 -40q39 -14 17 -54q-94 -173 -323 -173q-145 0 -213.5 79t-46.5 210z" />
    <glyph glyph-name="cdotaccent" unicode="&#x10b;" horiz-adv-x="517" 
d="M338 736q43 0 56 -15.5t5 -59.5l-2 -8q-7 -43 -25 -59t-62 -16h-6q-43 0 -56.5 15.5t-5.5 59.5l2 8q7 43 25.5 59t62.5 16h6zM31 324q38 211 279 211q89 0 138.5 -38.5t60.5 -101.5q4 -22 -4 -33.5t-31 -19.5l-89 -30q-25 -8 -35 -2t-15 29q-9 40 -55 40q-53 0 -64 -55
l-22 -129q-5 -26 6.5 -40t36.5 -14q42 0 67 41q12 22 24.5 27.5t34.5 -2.5l91 -29q41 -13 16 -56q-81 -137 -259 -137q-120 0 -169 61t-30 168z" />
    <glyph glyph-name="Ccaron" unicode="&#x10c;" horiz-adv-x="647" 
d="M628 920q15 0 20 -5.5t1 -13.5t-14 -16l-118 -102q-23 -20 -36.5 -24.5t-43.5 -4.5h-28q-29 0 -40.5 4.5t-26.5 24.5l-83 102q-12 12 -8.5 23.5t25.5 11.5h84q30 0 41.5 -4t21.5 -18l24 -34l35 34q15 14 28 18t42 4h76zM62 459q22 129 113.5 197.5t239.5 68.5
q216 0 249 -178q5 -22 -2.5 -34.5t-31.5 -19.5l-103 -35q-24 -7 -34.5 -1.5t-15.5 28.5q-7 34 -28 49.5t-63 15.5q-58 0 -88.5 -25.5t-39.5 -78.5l-33 -182q-9 -53 12.5 -78.5t79.5 -25.5q79 0 115 65q14 24 26 29.5t33 -2.5l104 -40q39 -14 17 -54q-94 -173 -323 -173
q-145 0 -213.5 79t-46.5 210z" />
    <glyph glyph-name="ccaron" unicode="&#x10d;" horiz-adv-x="517" 
d="M511 739q16 0 20.5 -5.5t0.5 -12.5t-14 -16l-119 -102q-23 -20 -36 -25t-43 -5h-28q-29 0 -40 5t-28 25l-82 102q-12 12 -8.5 23t25.5 11h82q30 0 41 -4t21 -17l24 -35l36 34q15 14 28 18t42 4h78zM310 535q89 0 138.5 -38.5t60.5 -101.5q4 -22 -4 -33.5t-31 -19.5
l-89 -30q-25 -8 -35 -2t-15 29q-9 40 -55 40q-53 0 -64 -55l-22 -129q-5 -26 6.5 -40t36.5 -14q42 0 67 41q12 22 24.5 27.5t34.5 -2.5l91 -29q41 -13 16 -56q-81 -137 -259 -137q-120 0 -169 61t-30 168l19 110q38 211 279 211z" />
    <glyph glyph-name="Dcaron" unicode="&#x10e;" horiz-adv-x="677" 
d="M601 920q15 0 19.5 -5.5t1 -13t-13.5 -16.5l-118 -102q-24 -20 -37 -24.5t-44 -4.5h-27q-29 0 -40.5 4.5t-27.5 24.5l-83 102q-11 12 -7.5 23.5t25.5 11.5h84q30 0 41.5 -4t20.5 -18l25 -34l35 34q15 14 28 18t42 4h76zM408 710q146 0 213 -81t43 -214l-26 -150
q-23 -130 -113 -197.5t-239 -67.5h-246q-24 0 -32 9.5t-3 32.5l110 626q5 23 15.5 32.5t34.5 9.5h243zM468 427q20 108 -97 108h-81l-64 -360h82q115 0 135 108z" />
    <glyph glyph-name="dcaron" unicode="&#x10f;" horiz-adv-x="655" 
d="M32 328q19 108 84 157.5t178 49.5q7 0 67 -3l30 170q4 21 14 29.5t31 8.5h110q22 0 28.5 -8.5t2.5 -29.5l-110 -625q-4 -25 -14 -35.5t-37 -21.5q-95 -35 -212 -35q-115 0 -162.5 63.5t-28.5 170.5zM715 539q-8 -21 -18 -28t-31 -7h-48q-34 0 -26 34l36 160
q5 25 14.5 33.5t32.5 8.5h72q51 0 33 -42zM332 369q-22 5 -43 5q-63 0 -73 -55l-21 -123q-9 -49 48 -49q28 0 48 4q2 1 4 5z" />
    <glyph glyph-name="Dcroat" unicode="&#x110;" horiz-adv-x="705" 
d="M436 710q145 0 212.5 -80.5t43.5 -212.5l-26 -150q-23 -129 -114 -198t-241 -69h-244q-24 0 -31.5 9.5t-3.5 32.5l45 254h-46q-14 0 -18.5 5t-1.5 21l13 76q5 26 30 26h46l43 244q4 23 14.5 32.5t34.5 9.5h244zM496 427q9 55 -13 81.5t-84 26.5h-82l-19 -111h82
q14 0 18 -5.5t1 -20.5l-13 -76q-3 -16 -9 -21t-20 -5h-82l-21 -121h81q116 0 136 108z" />
    <glyph glyph-name="dcroat" unicode="&#x111;" horiz-adv-x="548" 
d="M617 682q14 0 18 -5.5t2 -20.5l-8 -47q-3 -16 -9 -21.5t-20 -5.5h-43l-90 -505q-5 -25 -14.5 -36t-36.5 -21q-95 -35 -212 -35q-116 0 -163.5 61.5t-28.5 167.5l19 109q38 212 263 212q10 0 67 -3l9 50h-86q-14 0 -18 5.5t-2 21.5l9 47q4 26 28 26h87l3 20q4 21 14 29.5
t32 8.5h109q22 0 29 -8.5t3 -29.5l-4 -20h43zM332 369q-20 5 -43 5q-62 0 -72 -55l-22 -123q-9 -49 48 -49q28 0 48 4q2 1 4 5z" />
    <glyph glyph-name="Emacron" unicode="&#x112;" horiz-adv-x="588" 
d="M529 892q21 0 27.5 -7t2.5 -29l-7 -42q-4 -22 -13 -29t-30 -7h-244q-21 0 -27 7.5t-2 28.5l7 42q4 21 13 28.5t29 7.5h244zM584 710q24 0 32 -9.5t4 -32.5l-16 -90q-4 -24 -15.5 -33.5t-34.5 -9.5h-264l-16 -89h211q24 0 31.5 -9.5t3.5 -32.5l-16 -90q-5 -24 -15.5 -33.5
t-34.5 -9.5h-211l-17 -96h273q23 0 30.5 -9t3.5 -33l-16 -91q-4 -23 -15 -32.5t-35 -9.5h-427q-24 0 -32 9.5t-3 32.5l110 626q5 23 15.5 32.5t34.5 9.5h419z" />
    <glyph glyph-name="emacron" unicode="&#x113;" horiz-adv-x="542" 
d="M206 596q-21 0 -27 7t-2 29l7 42q4 21 13.5 28.5t28.5 7.5h244q22 0 28 -7t2 -29l-7 -42q-4 -22 -12.5 -29t-30.5 -7h-244zM316 535q112 0 170.5 -48t46.5 -137q-11 -69 -69 -107t-154 -38q-52 0 -113 6l-4 -21q-11 -64 54 -64q53 0 87 36q14 15 25 18t33 -8l65 -33
q36 -19 9 -58q-71 -96 -243 -96q-128 0 -179 65t-32 170l19 104q18 101 92 156t193 55zM351 362q6 41 -55 41q-63 0 -76 -62l-3 -11q37 -5 69 -5q59 0 65 37z" />
    <glyph glyph-name="Ebreve" unicode="&#x114;" horiz-adv-x="588" 
d="M579 860q-59 -106 -196 -106q-66 0 -106.5 27.5t-50.5 78.5q-6 24 22 35l71 25q17 6 24 3.5t12 -15.5q12 -33 49 -33q34 0 60 33q10 13 17 15.5t21 -2.5l65 -26q25 -9 12 -35zM584 710q24 0 32 -9.5t4 -32.5l-16 -90q-4 -24 -15.5 -33.5t-34.5 -9.5h-264l-16 -89h211
q24 0 31.5 -9.5t3.5 -32.5l-16 -90q-5 -24 -15.5 -33.5t-34.5 -9.5h-211l-17 -96h273q23 0 30.5 -9t3.5 -33l-16 -91q-4 -23 -15 -32.5t-35 -9.5h-427q-24 0 -32 9.5t-3 32.5l110 626q5 23 15.5 32.5t34.5 9.5h419z" />
    <glyph glyph-name="ebreve" unicode="&#x115;" horiz-adv-x="542" 
d="M521 680q-58 -106 -194 -106q-66 0 -107.5 27.5t-51.5 78.5q-3 14 2 21.5t21 13.5l68 24q18 6 24.5 3.5t12.5 -15.5q12 -32 50 -32q37 0 60 33q10 12 16.5 14.5t21.5 -2.5l66 -25q14 -6 16 -13.5t-5 -21.5zM31 324q18 101 92 156t193 55q112 0 170.5 -48t46.5 -137
q-11 -69 -69 -107t-154 -38q-52 0 -113 6l-4 -21q-11 -64 54 -64q53 0 87 36q14 15 25 18t33 -8l65 -33q36 -19 9 -58q-71 -96 -243 -96q-128 0 -179 65t-32 170zM351 362q6 41 -55 41q-63 0 -76 -62l-3 -11q37 -5 69 -5q59 0 65 37z" />
    <glyph glyph-name="Edotaccent" unicode="&#x116;" horiz-adv-x="588" 
d="M414 915q43 0 56.5 -15.5t5.5 -59.5l-2 -8q-8 -44 -26 -59.5t-62 -15.5h-6q-43 0 -56.5 15.5t-5.5 59.5l2 8q7 43 25.5 59t62.5 16h6zM584 710q24 0 32 -9.5t4 -32.5l-16 -90q-4 -24 -15.5 -33.5t-34.5 -9.5h-264l-16 -89h211q24 0 31.5 -9.5t3.5 -32.5l-16 -90
q-5 -24 -15.5 -33.5t-34.5 -9.5h-211l-17 -96h273q23 0 30.5 -9t3.5 -33l-16 -91q-4 -23 -15 -32.5t-35 -9.5h-427q-24 0 -32 9.5t-3 32.5l110 626q5 23 15.5 32.5t34.5 9.5h419z" />
    <glyph glyph-name="edotaccent" unicode="&#x117;" horiz-adv-x="542" 
d="M356 736q44 0 57 -15.5t5 -59.5l-2 -8q-8 -44 -26 -59.5t-61 -15.5h-6q-44 0 -57.5 15.5t-5.5 59.5l2 8q7 43 25.5 59t62.5 16h6zM31 324q18 101 92 156t193 55q112 0 170.5 -48t46.5 -137q-11 -69 -69 -107t-154 -38q-52 0 -113 6l-4 -21q-11 -64 54 -64q53 0 87 36
q14 15 25 18t33 -8l65 -33q36 -19 9 -58q-71 -96 -243 -96q-128 0 -179 65t-32 170zM351 362q6 41 -55 41q-63 0 -76 -62l-3 -11q37 -5 69 -5q59 0 65 37z" />
    <glyph glyph-name="Eogonek" unicode="&#x118;" horiz-adv-x="588" 
d="M584 710q24 0 32 -9.5t4 -32.5l-16 -90q-4 -24 -15.5 -33.5t-34.5 -9.5h-264l-16 -89h211q24 0 31.5 -9.5t3.5 -32.5l-16 -90q-5 -24 -15.5 -33.5t-34.5 -9.5h-211l-17 -96h273q23 0 30.5 -9t3.5 -33l-16 -91q-4 -23 -21 -36q-81 -68 -83 -121q0 -19 15 -19q8 0 19 6
q18 11 23 -6l13 -51q4 -19 -11 -29q-47 -32 -118 -32q-94 0 -95 73q-1 84 109 173h-328q-24 0 -32 9.5t-3 32.5l110 626q5 23 15.5 32.5t34.5 9.5h419z" />
    <glyph glyph-name="eogonek" unicode="&#x119;" horiz-adv-x="543" 
d="M31 324q18 101 92 156t193 55q112 0 170.5 -48t46.5 -137q-11 -69 -69 -107t-154 -38q-52 0 -113 6l-4 -21q-11 -64 54 -64q53 0 87 36q14 15 25 18t33 -8l65 -33q36 -19 9 -58q-12 -15 -30 -32q-60 -59 -87 -101t-28 -63q0 -19 16 -19q9 0 19 6q18 11 23 -6l12 -51
q5 -18 -10 -29q-47 -32 -118 -32q-93 0 -94 73q-3 79 90 160q-22 -2 -36 -2q-128 0 -179 65t-32 170zM286 325q59 0 65 37q6 41 -55 41q-63 0 -76 -62l-3 -11q37 -5 69 -5z" />
    <glyph glyph-name="Ecaron" unicode="&#x11a;" horiz-adv-x="588" 
d="M588 920q15 0 19.5 -5.5t0.5 -13.5t-14 -16l-118 -102q-24 -20 -36.5 -24.5t-43.5 -4.5h-27q-29 0 -40.5 4.5t-27.5 24.5l-83 102q-12 12 -8.5 23.5t26.5 11.5h84q30 0 41.5 -4t20.5 -18l25 -34l35 34q15 14 28 18t42 4h76zM584 710q24 0 32 -9.5t4 -32.5l-16 -90
q-4 -24 -15.5 -33.5t-34.5 -9.5h-264l-16 -89h211q24 0 31.5 -9.5t3.5 -32.5l-16 -90q-5 -24 -15.5 -33.5t-34.5 -9.5h-211l-17 -96h273q23 0 30.5 -9t3.5 -33l-16 -91q-4 -23 -15 -32.5t-35 -9.5h-427q-24 0 -32 9.5t-3 32.5l110 626q5 23 15.5 32.5t34.5 9.5h419z" />
    <glyph glyph-name="ecaron" unicode="&#x11b;" horiz-adv-x="542" 
d="M530 739q15 0 19.5 -5.5t0.5 -13t-14 -15.5l-118 -102q-24 -21 -36.5 -25.5t-43.5 -4.5h-27q-29 0 -40.5 5t-27.5 25l-83 102q-11 12 -7.5 23t25.5 11h81q30 0 41.5 -4t20.5 -17l25 -35l35 34q15 14 28 18t42 4h79zM316 535q112 0 170.5 -48t46.5 -137q-11 -69 -69 -107
t-154 -38q-52 0 -113 6l-4 -21q-11 -64 54 -64q53 0 87 36q14 15 25 18t33 -8l65 -33q36 -19 9 -58q-71 -96 -243 -96q-128 0 -179 65t-32 170l19 104q18 101 92 156t193 55zM351 362q6 41 -55 41q-63 0 -76 -62l-3 -11q37 -5 69 -5q59 0 65 37z" />
    <glyph glyph-name="Gcircumflex" unicode="&#x11c;" horiz-adv-x="675" 
d="M473 930q27 0 38.5 -5t26.5 -25l85 -102q11 -12 6.5 -23t-27.5 -11h-82q-31 0 -43 3.5t-20 17.5l-23 36l-37 -35q-15 -15 -27 -18.5t-42 -3.5h-80q-15 0 -20.5 5t-2 13t13.5 16l119 102q25 20 38 25t45 5h32zM625 408q23 0 30.5 -9.5t3.5 -33.5l-25 -145
q-19 -109 -109.5 -172t-236.5 -63q-145 0 -213 81t-45 213l32 181q22 130 112.5 197.5t239.5 67.5q218 0 252 -178q5 -23 -3 -35t-32 -19l-102 -31q-25 -7 -35 -1.5t-15 28.5q-15 61 -94 61q-58 0 -88 -25.5t-40 -78.5l-32 -182q-9 -53 12 -78.5t79 -25.5q51 0 83 18t38 50
l3 20h-96q-24 0 -31.5 9t-3.5 33l13 75q5 24 15.5 33.5t34.5 9.5h253z" />
    <glyph glyph-name="gcircumflex" unicode="&#x11d;" horiz-adv-x="548" 
d="M157 574q-23 0 -24 11.5t15 23.5l120 102q23 20 36.5 24.5t45.5 4.5h27q27 0 38 -4.5t28 -24.5l85 -102q11 -12 6 -23.5t-28 -11.5h-77q-31 0 -42.5 4t-20.5 18l-22 35l-37 -35q-15 -14 -28 -18t-41 -4h-81zM503 501q23 -11 28.5 -22t0.5 -36l-80 -452
q-38 -224 -274 -224q-158 0 -205 104q-18 38 29 58l85 39q24 9 34 6.5t18 -16.5q21 -36 59 -36q55 0 66 58l7 40q-42 -6 -67 -6q-112 0 -159 62.5t-28 167.5l14 82q19 108 88 158.5t193 50.5q125 0 191 -34zM331 364q2 3 -2 5q-13 4 -40 4q-63 0 -73 -55l-16 -93
q-9 -50 48 -50q1 0 51 5z" />
    <glyph glyph-name="Gbreve" unicode="&#x11e;" horiz-adv-x="675" 
d="M619 870q-59 -106 -196 -106q-66 0 -106.5 27.5t-50.5 78.5q-3 14 2 21.5t21 13.5l71 25q17 6 23.5 3.5t11.5 -15.5q13 -33 49 -33t60 33q10 13 17 15.5t21 -2.5l66 -26q24 -9 11 -35zM625 408q23 0 30.5 -9.5t3.5 -33.5l-25 -145q-19 -109 -109.5 -172t-236.5 -63
q-145 0 -213 81t-45 213l32 181q22 130 112.5 197.5t239.5 67.5q218 0 252 -178q5 -23 -3 -35t-32 -19l-102 -31q-25 -7 -35 -1.5t-15 28.5q-15 61 -94 61q-58 0 -88 -25.5t-40 -78.5l-32 -182q-9 -53 12 -78.5t79 -25.5q51 0 83 18t38 50l3 20h-96q-24 0 -31.5 9t-3.5 33
l13 75q5 24 15.5 33.5t34.5 9.5h253z" />
    <glyph glyph-name="gbreve" unicode="&#x11f;" horiz-adv-x="548" 
d="M524 680q-60 -106 -195 -106q-137 0 -159 106q-3 14 2 21.5t21 13.5l69 24q17 6 24 3.5t12 -15.5q12 -32 50 -32q37 0 61 33q9 12 16 14.5t21 -2.5l66 -25q25 -11 12 -35zM31 326q19 108 88 158.5t193 50.5q125 0 191 -34q23 -11 28.5 -22t0.5 -36l-80 -452
q-38 -224 -274 -224q-158 0 -205 104q-18 38 29 58l85 39q24 9 34 6.5t18 -16.5q21 -36 59 -36q55 0 66 58l7 40q-42 -6 -67 -6q-112 0 -159 62.5t-28 167.5zM329 369q-13 4 -40 4q-63 0 -73 -55l-16 -93q-9 -50 48 -50q1 0 51 5l32 184q2 3 -2 5z" />
    <glyph glyph-name="Gdotaccent" unicode="&#x120;" horiz-adv-x="675" 
d="M454 925q44 0 57 -15.5t5 -59.5l-2 -8q-8 -44 -26 -59.5t-61 -15.5h-6q-44 0 -57.5 15.5t-5.5 59.5l2 8q7 43 25.5 59t62.5 16h6zM625 408q23 0 30.5 -9.5t3.5 -33.5l-25 -145q-19 -109 -109.5 -172t-236.5 -63q-145 0 -213 81t-45 213l32 181q22 130 112.5 197.5
t239.5 67.5q218 0 252 -178q5 -23 -3 -35t-32 -19l-102 -31q-25 -7 -35 -1.5t-15 28.5q-15 61 -94 61q-58 0 -88 -25.5t-40 -78.5l-32 -182q-9 -53 12 -78.5t79 -25.5q51 0 83 18t38 50l3 20h-96q-24 0 -31.5 9t-3.5 33l13 75q5 24 15.5 33.5t34.5 9.5h253z" />
    <glyph glyph-name="gdotaccent" unicode="&#x121;" horiz-adv-x="548" 
d="M359 736q43 0 56 -15.5t5 -59.5l-2 -8q-7 -43 -25 -59t-62 -16h-6q-43 0 -56.5 15.5t-5.5 59.5l2 8q7 43 25.5 59t62.5 16h6zM31 326q19 108 88 158.5t193 50.5q125 0 191 -34q23 -11 28.5 -22t0.5 -36l-80 -452q-38 -224 -274 -224q-158 0 -205 104q-18 38 29 58l85 39
q24 9 34 6.5t18 -16.5q21 -36 59 -36q55 0 66 58l7 40q-42 -6 -67 -6q-112 0 -159 62.5t-28 167.5zM329 369q-13 4 -40 4q-63 0 -73 -55l-16 -93q-9 -50 48 -50q1 0 51 5l32 184q2 3 -2 5z" />
    <glyph glyph-name="Gcommaaccent" unicode="&#x122;" horiz-adv-x="675" 
d="M625 408q23 0 30.5 -9.5t3.5 -33.5l-25 -145q-19 -109 -109.5 -172t-236.5 -63q-145 0 -213 81t-45 213l32 181q22 130 112.5 197.5t239.5 67.5q218 0 252 -178q5 -23 -3 -35t-32 -19l-102 -31q-25 -7 -35 -1.5t-15 28.5q-15 61 -94 61q-58 0 -88 -25.5t-40 -78.5
l-32 -182q-9 -53 12 -78.5t79 -25.5q51 0 83 18t38 50l3 20h-96q-24 0 -31.5 9t-3.5 33l13 75q5 24 15.5 33.5t34.5 9.5h253zM297 -227q-17 -33 -52 -33h-63q-31 0 -21 30l41 140q6 23 17.5 32.5t33.5 9.5h90q48 0 27 -42z" />
    <glyph glyph-name="gcommaaccent" unicode="&#x123;" horiz-adv-x="548" 
d="M315 732q11 20 20.5 26.5t31.5 6.5h58q18 0 24 -6.5t2 -22.5l-35 -118q-8 -27 -17 -36t-33 -9h-84q-55 0 -33 45zM31 326q19 108 88 158.5t193 50.5q125 0 191 -34q23 -11 28.5 -22t0.5 -36l-80 -452q-38 -224 -274 -224q-158 0 -205 104q-18 38 29 58l85 39q24 9 34 6.5
t18 -16.5q21 -36 59 -36q55 0 66 58l7 40q-42 -6 -67 -6q-112 0 -159 62.5t-28 167.5zM329 369q-13 4 -40 4q-63 0 -73 -55l-16 -93q-9 -50 48 -50q1 0 51 5l32 184q2 3 -2 5z" />
    <glyph glyph-name="Hcircumflex" unicode="&#x124;" horiz-adv-x="692" 
d="M475 920q27 0 38.5 -5t27.5 -25l85 -102q11 -12 6.5 -23t-27.5 -11h-82q-31 0 -43 3.5t-21 17.5l-22 36l-37 -35q-15 -15 -27 -18.5t-42 -3.5h-80q-15 0 -20.5 5.5t-2 13t12.5 15.5l120 102q24 20 37.5 25t44.5 5h32zM671 711q23 0 30.5 -9.5t3.5 -33.5l-110 -626
q-5 -23 -15.5 -32.5t-34.5 -9.5h-113q-24 0 -32 9.5t-3 32.5l40 230h-193l-41 -230q-4 -23 -15 -32.5t-35 -9.5h-113q-24 0 -31.5 9.5t-3.5 32.5l111 626q5 24 15.5 33.5t34.5 9.5h113q24 0 31.5 -9.5t3.5 -33.5l-39 -221h193l39 221q4 24 15.5 33.5t34.5 9.5h114z" />
    <glyph glyph-name="hcircumflex" unicode="&#x125;" horiz-adv-x="558" 
d="M49 783q-15 0 -20.5 5.5t-1.5 13t13 15.5l120 102q24 20 37.5 25t44.5 5h27q27 0 38.5 -5t28.5 -25l84 -102q11 -12 6.5 -23t-27.5 -11h-78q-31 0 -42.5 3.5t-19.5 17.5l-23 36l-37 -35q-14 -14 -27 -18t-42 -4h-81zM337 535q113 0 159 -57t28 -162l-49 -278
q-4 -21 -14 -29.5t-31 -8.5h-110q-22 0 -28.5 8.5t-2.5 29.5l48 274q10 55 -50 55q-32 0 -48 -4l-57 -325q-4 -21 -14 -29.5t-32 -8.5h-109q-22 0 -29 8.5t-3 29.5l117 664q4 21 14 29.5t32 8.5h109q22 0 29 -8.5t3 -29.5l-31 -171q36 4 69 4z" />
    <glyph glyph-name="Hbar" unicode="&#x126;" horiz-adv-x="720" 
d="M749 629q14 0 18 -5.5t1 -20.5l-9 -54q-3 -16 -9 -21t-20 -5h-38l-84 -481q-5 -23 -15.5 -32.5t-34.5 -9.5h-113q-24 0 -32 9.5t-3 32.5l40 230h-193l-41 -230q-4 -23 -15 -32.5t-35 -9.5h-113q-24 0 -31.5 9.5t-3.5 32.5l85 481h-37q-14 0 -18 5t-1 21l9 54q5 26 30 26
h36l7 39q5 24 15.5 33.5t34.5 9.5h113q24 0 31.5 -9.5t3.5 -33.5l-7 -39h194l6 39q5 24 15.5 33.5t34.5 9.5h113q24 0 31.5 -9.5t3.5 -33.5l-6 -39h37zM301 523l-13 -76h193l13 76h-193z" />
    <glyph glyph-name="hbar" unicode="&#x127;" horiz-adv-x="558" 
d="M268 531q36 4 69 4q113 0 159 -57t28 -162l-49 -278q-4 -21 -14 -29.5t-31 -8.5h-110q-22 0 -28.5 8.5t-2.5 29.5l48 274q10 55 -50 55q-32 0 -48 -4l-57 -325q-4 -21 -14 -29.5t-32 -8.5h-109q-22 0 -29 8.5t-3 29.5l96 543h-34q-15 0 -19 5.5t-1 21.5l8 45q4 26 29 26
h34l4 23q4 21 14 29.5t32 8.5h109q22 0 29 -8.5t3 -29.5l-4 -23h91q14 0 18.5 -5.5t1.5 -20.5l-8 -45q-3 -16 -9 -21.5t-20 -5.5h-91z" />
    <glyph glyph-name="Itilde" unicode="&#x128;" horiz-adv-x="300" 
d="M404 909q13 0 17 -5.5t2 -17.5q-12 -67 -41 -95t-78 -28q-42 0 -78.5 21t-47.5 21q-14 0 -18 -22q-4 -20 -23 -20h-61q-24 0 -19 23q11 68 40.5 95.5t76.5 27.5q43 0 80 -20.5t48 -20.5q15 0 19 22q4 19 22 19h61zM116 670q5 23 15 31.5t32 8.5h118q23 0 30 -9t3 -31
l-111 -630q-4 -22 -14 -31t-33 -9h-118q-22 0 -29.5 8.5t-3.5 31.5z" />
    <glyph glyph-name="itilde" unicode="&#x129;" horiz-adv-x="269" 
d="M333 738q21 0 16 -24q-13 -69 -40 -97t-69 -28q-33 0 -60 19.5t-37 19.5q-15 0 -19 -20t-19 -20h-58q-20 0 -15 24q22 126 107 126q35 0 64 -21t38 -21q14 0 17 22q4 20 20 20h55zM228 520q22 0 29 -8.5t3 -29.5l-78 -444q-4 -21 -14 -29.5t-32 -8.5h-109q-22 0 -29 8.5
t-3 29.5l78 444q4 21 14 29.5t32 8.5h109z" />
    <glyph glyph-name="Imacron" unicode="&#x12a;" horiz-adv-x="300" 
d="M376 892q22 0 28 -7t2 -29l-7 -42q-5 -22 -13 -29t-30 -7h-244q-21 0 -27 7.5t-2 28.5l7 42q4 21 13 28.5t29 7.5h244zM116 670q5 23 15 31.5t32 8.5h118q23 0 30 -9t3 -31l-111 -630q-4 -22 -14 -31t-33 -9h-118q-22 0 -29.5 8.5t-3.5 31.5z" />
    <glyph glyph-name="imacron" unicode="&#x12b;" horiz-adv-x="269" 
d="M304 707q16 0 20 -7t0 -28l-7 -42q-4 -22 -10 -29t-22 -7h-207q-16 0 -20 7t0 29l7 42q4 20 11.5 27.5t21.5 7.5h206zM228 520q22 0 29 -8.5t3 -29.5l-78 -444q-4 -21 -14 -29.5t-32 -8.5h-109q-22 0 -29 8.5t-3 29.5l78 444q4 21 14 29.5t32 8.5h109z" />
    <glyph glyph-name="Ibreve" unicode="&#x12c;" horiz-adv-x="300" 
d="M426 860q-59 -106 -196 -106q-65 0 -106 27.5t-51 78.5q-5 24 23 35l71 25q17 6 23.5 3.5t11.5 -15.5q14 -33 50 -33q35 0 59 33q10 13 17 15t22 -2l65 -26q26 -10 11 -35zM116 670q5 23 15 31.5t32 8.5h118q23 0 30 -9t3 -31l-111 -630q-4 -22 -14 -31t-33 -9h-118
q-22 0 -29.5 8.5t-3.5 31.5z" />
    <glyph glyph-name="ibreve" unicode="&#x12d;" horiz-adv-x="269" 
d="M364 715q25 -11 11 -35q-58 -106 -190 -106q-135 0 -155 106q-3 14 2 21.5t21 13.5l70 25q18 5 24.5 3t12.5 -15q6 -18 15.5 -25t28.5 -7q33 0 57 32q9 12 16 14.5t21 -2.5zM228 520q22 0 29 -8.5t3 -29.5l-78 -444q-4 -21 -14 -29.5t-32 -8.5h-109q-22 0 -29 8.5
t-3 29.5l78 444q4 21 14 29.5t32 8.5h109z" />
    <glyph glyph-name="Iogonek" unicode="&#x12e;" horiz-adv-x="300" 
d="M175 -181q4 -20 -11 -30q-51 -35 -118 -35q-92 0 -95 72q-1 85 101 174q-34 0 -42.5 9.5t-3.5 35.5l110 625q5 23 15 31.5t32 8.5h118q23 0 30 -9t3 -31l-111 -630q-4 -25 -19 -36q-77 -67 -79 -120q0 -18 15 -18q8 0 19 6q20 11 23 -6z" />
    <glyph glyph-name="iogonek" unicode="&#x12f;" horiz-adv-x="269" 
d="M156 563q-43 0 -56 16t-5 58l1 11q8 42 27 58t61 16h50q43 0 56 -16t5 -58l-2 -11q-8 -42 -26 -58t-61 -16h-50zM160 -181q5 -19 -10 -30q-51 -35 -116 -35q-91 0 -95 67q-4 81 97 179q-28 0 -36.5 9.5t-3.5 33.5l77 439q4 21 14 29.5t32 8.5h109q22 0 29 -8.5t3 -29.5
l-78 -444q-5 -23 -16 -31q-71 -69 -73 -123q0 -18 15 -18q9 0 18 5q20 12 23 -6z" />
    <glyph glyph-name="Idotaccent" unicode="&#x130;" horiz-adv-x="300" 
d="M262 915q43 0 56 -15.5t5 -59.5l-2 -8q-8 -44 -26 -59.5t-61 -15.5h-6q-43 0 -56.5 15.5t-6.5 59.5l2 8q8 44 26.5 59.5t62.5 15.5h6zM116 670q5 23 15 31.5t32 8.5h118q23 0 30 -9t3 -31l-111 -630q-4 -22 -14 -31t-33 -9h-118q-22 0 -29.5 8.5t-3.5 31.5z" />
    <glyph glyph-name="dotlessi" unicode="&#x131;" horiz-adv-x="269" 
d="M228 520q22 0 29 -8.5t3 -29.5l-78 -444q-4 -21 -14 -29.5t-32 -8.5h-109q-22 0 -29 8.5t-3 29.5l78 444q4 21 14 29.5t32 8.5h109z" />
    <glyph glyph-name="IJ" unicode="&#x132;" horiz-adv-x="886" 
d="M871 711q23 0 30 -9.5t3 -32.5l-77 -439q-22 -124 -97.5 -184.5t-211.5 -60.5q-101 0 -160 44t-75 126q-4 22 4 34t32 20l99 33q24 9 35.5 3.5t16.5 -27.5q14 -58 74 -58q73 0 88 86l74 423q5 23 15.5 32.5t33.5 9.5h116zM116 670q5 23 15 31.5t32 8.5h118q23 0 30 -9
t3 -31l-111 -630q-4 -22 -14 -31t-33 -9h-118q-22 0 -29.5 8.5t-3.5 31.5z" />
    <glyph glyph-name="ij" unicode="&#x133;" horiz-adv-x="540" 
d="M234 722q43 0 56 -16t5 -58l-2 -11q-8 -42 -26 -58t-61 -16h-50q-43 0 -56 16t-5 58l1 11q8 42 27 58t61 16h50zM504 722q42 0 55 -16t5 -58l-1 -11q-8 -42 -26.5 -58t-61.5 -16h-50q-42 0 -55 16t-6 58l2 11q8 42 26.5 58t61.5 16h50zM228 520q22 0 29 -8.5t3 -29.5
l-78 -444q-4 -21 -14 -29.5t-32 -8.5h-109q-22 0 -29 8.5t-3 29.5l78 444q4 21 14 29.5t32 8.5h109zM497 520q22 0 29 -8.5t3 -29.5l-86 -492q-21 -113 -93.5 -166.5t-199.5 -53.5q-23 0 -30 8.5t-3 30.5l15 85q4 22 14 31t32 9q69 0 80 68l85 480q4 21 14 29.5t32 8.5h108z
" />
    <glyph glyph-name="Jcircumflex" unicode="&#x134;" horiz-adv-x="582" 
d="M567 920q27 0 38.5 -5t27.5 -25l85 -102q11 -12 6 -23t-27 -11h-82q-31 0 -43 3.5t-21 17.5l-22 36l-37 -35q-15 -15 -27.5 -18.5t-41.5 -3.5h-80q-23 0 -24.5 11t14.5 23l120 102q24 20 37.5 25t44.5 5h32zM567 711q23 0 30.5 -9.5t3.5 -32.5l-77 -439
q-43 -245 -309 -245q-202 0 -235 170q-4 22 3.5 34t31.5 20l100 33q24 9 35 4t16 -28q14 -58 74 -58q73 0 88 86l75 423q5 24 15 33t34 9h115z" />
    <glyph glyph-name="jcircumflex" unicode="&#x135;" horiz-adv-x="270" 
d="M226 735q27 0 38 -4.5t27 -23.5l83 -100q11 -12 6.5 -23t-27.5 -11h-74q-30 0 -42 4t-20 17l-22 35l-37 -35q-14 -13 -26.5 -17t-40.5 -4h-79q-15 0 -20.5 5.5t-1.5 13t13 15.5l117 100q22 19 35.5 23.5t44.5 4.5h26zM227 520q22 0 29.5 -8.5t3.5 -29.5l-87 -492
q-20 -113 -92.5 -166.5t-200.5 -53.5q-22 0 -29 8.5t-3 30.5l15 85q4 23 14 31.5t32 8.5q69 0 80 68l84 480q4 21 14.5 29.5t32.5 8.5h107z" />
    <glyph glyph-name="Kcommaaccent" unicode="&#x136;" horiz-adv-x="654" 
d="M600 49q7 -21 -2 -35t-33 -14h-108q-40 0 -56 8t-25 34l-56 179q-8 26 -20.5 38t-39.5 12h-17l-40 -229q-5 -23 -15.5 -32.5t-34.5 -9.5h-113q-24 0 -32 9.5t-3 32.5l110 626q5 23 15.5 32.5t34.5 9.5h113q24 0 32 -9.5t3 -32.5l-39 -222h13h9l183 227q19 24 34 30.5
t52 6.5h116q23 0 27.5 -12t-10.5 -32l-237 -294q33 -23 51 -73zM281 -227q-17 -33 -52 -33h-63q-31 0 -21 30l41 140q6 23 17.5 32.5t33.5 9.5h90q48 0 27 -42z" />
    <glyph glyph-name="kcommaaccent" unicode="&#x137;" horiz-adv-x="553" 
d="M489 51q9 -27 -0.5 -39t-40.5 -12h-91q-35 0 -48 7t-18 31l-24 123q-7 30 -40 30h-19l-27 -152q-4 -22 -13.5 -30.5t-31.5 -8.5h-109q-22 0 -29 8.5t-3 30.5l117 662q4 22 14 30.5t32 8.5h109q22 0 28.5 -8.5t2.5 -30.5l-63 -361h15h6l109 144q16 22 31 29t47 7h89
q61 0 23 -49l-147 -194q16 -17 24 -45zM241 -199q-11 -21 -23 -28t-35 -7h-57q-18 0 -22.5 6t0.5 23l31 118q7 25 19 34.5t38 9.5h85q49 0 25 -44z" />
    <glyph glyph-name="kgreenlandic" unicode="&#x138;" horiz-adv-x="561" 
d="M474 49q14 -49 -43 -49h-91q-36 0 -48.5 6.5t-18.5 29.5l-35 127l-49 -46l-19 -77q-6 -23 -17 -31.5t-34 -8.5h-105q-23 0 -29.5 8.5t-0.5 31.5l108 441q5 22 16 30.5t34 8.5h106q23 0 29.5 -8.5t1.5 -30.5l-31 -106l121 111q21 21 35 27.5t44 6.5h113q29 0 31.5 -13
t-18.5 -31l-173 -164z" />
    <glyph glyph-name="Lacute" unicode="&#x139;" horiz-adv-x="542" 
d="M268 914q47 23 66 -3l41 -58q11 -15 8.5 -24t-21.5 -16l-191 -56q-18 -6 -29 -5.5t-17 10.5l-21 33q-16 25 9 38zM278 710q24 0 32 -9.5t4 -32.5l-87 -493h240q24 0 31.5 -9t3.5 -33l-16 -91q-5 -23 -15.5 -32.5t-34.5 -9.5h-396q-24 0 -31.5 9.5t-3.5 32.5l111 626
q4 23 14.5 32.5t34.5 9.5h113z" />
    <glyph glyph-name="lacute" unicode="&#x13a;" horiz-adv-x="272" 
d="M256 947q46 24 63 -3l39 -63q7 -11 8.5 -18.5t-3.5 -13t-17 -8.5l-198 -59q-36 -12 -45 3l-22 38q-9 13 -7 22t16 16zM183 38q-4 -21 -14 -29.5t-32 -8.5h-109q-22 0 -29 8.5t-3 29.5l117 664q4 21 14 29.5t32 8.5h109q22 0 29 -8.5t3 -29.5z" />
    <glyph glyph-name="Lcommaaccent" unicode="&#x13b;" horiz-adv-x="542" 
d="M278 710q24 0 32 -9.5t4 -32.5l-87 -493h240q24 0 31.5 -9t3.5 -33l-16 -91q-5 -23 -15.5 -32.5t-34.5 -9.5h-396q-24 0 -31.5 9.5t-3.5 32.5l111 626q4 23 14.5 32.5t34.5 9.5h113zM227 -227q-17 -33 -51 -33h-64q-16 0 -20.5 7t-0.5 23l42 140q6 23 17.5 32.5t33.5 9.5
h90q49 0 26 -42z" />
    <glyph glyph-name="lcommaaccent" unicode="&#x13c;" horiz-adv-x="272" 
d="M182 38q-4 -21 -13.5 -29.5t-31.5 -8.5h-110q-22 0 -28.5 8.5t-2.5 29.5l117 664q4 21 13.5 29.5t31.5 8.5h110q22 0 28.5 -8.5t2.5 -29.5zM84 -206q-11 -20 -23 -27t-35 -7h-61q-18 0 -22 6t0 22l33 126q7 26 19 35t38 9h88q26 0 32 -11t-6 -33z" />
    <glyph glyph-name="Lcaron" unicode="&#x13d;" horiz-adv-x="550" 
d="M278 710q24 0 32 -9.5t4 -32.5l-87 -493h240q24 0 31.5 -9t3.5 -33l-16 -91q-5 -23 -15.5 -32.5t-34.5 -9.5h-396q-24 0 -31.5 9.5t-3.5 32.5l111 626q4 23 14.5 32.5t34.5 9.5h113zM490 513q-11 -20 -21 -27t-31 -7h-58q-16 0 -20 5.5t1 20.5l47 166q8 23 18.5 31
t32.5 8h90q26 0 32 -10t-5 -29z" />
    <glyph glyph-name="lcaron" unicode="&#x13e;" horiz-adv-x="343" 
d="M443 559q-10 -21 -18 -28t-29 -7h-54q-31 0 -22 29l38 148q6 23 14 31.5t30 8.5h76q53 0 34 -40zM183 38q-4 -21 -14 -29.5t-32 -8.5h-109q-22 0 -29 8.5t-3 29.5l117 664q4 21 14 29.5t32 8.5h109q22 0 29 -8.5t3 -29.5z" />
    <glyph glyph-name="Ldot" unicode="&#x13f;" horiz-adv-x="545" 
d="M278 710q24 0 32 -9.5t4 -32.5l-87 -493h240q24 0 31.5 -9t3.5 -33l-16 -91q-5 -23 -15.5 -32.5t-34.5 -9.5h-396q-24 0 -31.5 9.5t-3.5 32.5l111 626q4 23 14.5 32.5t34.5 9.5h113zM452 500q43 0 56 -16t6 -58l-7 -38q-8 -42 -26.5 -58t-60.5 -16h-36q-43 0 -56.5 16
t-5.5 58l7 38q8 42 26.5 58t60.5 16h36z" />
    <glyph glyph-name="ldot" unicode="&#x140;" horiz-adv-x="481" 
d="M183 38q-4 -21 -14 -29.5t-32 -8.5h-109q-22 0 -29 8.5t-3 29.5l117 664q4 21 14 29.5t32 8.5h109q22 0 29 -8.5t3 -29.5zM426 476q44 0 58 -17t7 -61l-8 -41q-8 -44 -27.5 -61t-64.5 -17h-38q-45 0 -59 17t-6 61l7 41q7 44 27.5 61t65.5 17h38z" />
    <glyph glyph-name="Lslash" unicode="&#x141;" horiz-adv-x="584" 
d="M510 175q24 0 31.5 -9t3.5 -33l-16 -91q-4 -23 -15 -32.5t-35 -9.5h-396q-23 0 -30.5 9.5t-3.5 32.5l36 206l-43 -17q-30 -14 -39 12l-15 51q-8 25 18 36l100 42l53 296q4 23 15 32.5t34 9.5h114q23 0 31 -9.5t4 -32.5l-37 -208l121 50q31 13 40 -13l15 -50
q7 -25 -19 -36l-178 -74l-29 -162h240z" />
    <glyph glyph-name="lslash" unicode="&#x142;" horiz-adv-x="375" 
d="M400 440q9 -23 -17 -37l-94 -45l-56 -320q-4 -21 -14 -29.5t-32 -8.5h-109q-22 0 -29 8.5t-3 29.5l39 220l-28 -14q-31 -15 -41 10l-17 43q-9 23 16 37l91 44l57 324q4 21 14 29.5t32 8.5h109q22 0 29 -8.5t3 -29.5l-40 -225l32 16q29 15 40 -10z" />
    <glyph glyph-name="Nacute" unicode="&#x143;" horiz-adv-x="702" 
d="M471 914q45 24 66 -3l40 -58q11 -15 8.5 -24t-21.5 -16l-191 -56q-18 -6 -28.5 -5.5t-16.5 10.5l-21 33q-10 14 -8 22t16 16zM679 710q24 0 32 -9.5t4 -32.5l-111 -626q-4 -23 -15 -32.5t-35 -9.5h-110q-27 0 -37 20l-111 237q-22 48 -32.5 91.5t-19.5 114.5h-8
q8 -144 -12 -258l-29 -163q-5 -23 -15.5 -32.5t-34.5 -9.5h-105q-24 0 -32 9.5t-3 32.5l110 626q5 23 15.5 32.5t34.5 9.5h114q29 0 39 -20l118 -256q25 -53 52 -183h8q-11 87 -11.5 127t11.5 126l29 164q4 23 14.5 32.5t34.5 9.5h105z" />
    <glyph glyph-name="nacute" unicode="&#x144;" 
d="M358 734q46 25 66 -2l42 -56q12 -15 10 -24t-22 -16l-190 -60q-36 -12 -46 3l-23 33q-16 25 9 38zM116 498q100 37 219 37q113 0 159 -57.5t28 -162.5l-49 -277q-4 -21 -14 -29.5t-31 -8.5h-110q-22 0 -28.5 8.5t-2.5 29.5l48 274q5 29 -7 42t-43 13q-26 0 -45 -4
q-2 -1 -4 -4l-56 -321q-4 -21 -14 -29.5t-32 -8.5h-109q-22 0 -29 8.5t-3 29.5l71 400q5 25 15 37.5t37 22.5z" />
    <glyph glyph-name="Ncommaaccent" unicode="&#x145;" horiz-adv-x="702" 
d="M679 710q24 0 32 -9.5t4 -32.5l-111 -626q-4 -23 -15 -32.5t-35 -9.5h-110q-27 0 -37 20l-111 237q-22 48 -32.5 91.5t-19.5 114.5h-8q8 -144 -12 -258l-29 -163q-5 -23 -15.5 -32.5t-34.5 -9.5h-105q-24 0 -32 9.5t-3 32.5l110 626q5 23 15.5 32.5t34.5 9.5h114
q29 0 39 -20l118 -256q25 -53 52 -183h8q-11 87 -11.5 127t11.5 126l29 164q4 23 14.5 32.5t34.5 9.5h105zM307 -227q-17 -33 -51 -33h-64q-16 0 -20.5 7t-0.5 23l41 140q7 23 18.5 32.5t33.5 9.5h89q50 0 27 -42z" />
    <glyph glyph-name="ncommaaccent" unicode="&#x146;" 
d="M116 498q100 37 219 37q113 0 159 -57.5t28 -162.5l-49 -277q-4 -21 -14 -29.5t-31 -8.5h-110q-22 0 -28.5 8.5t-2.5 29.5l48 274q5 29 -7 42t-43 13q-26 0 -45 -4q-2 -1 -4 -4l-56 -321q-4 -21 -14 -29.5t-32 -8.5h-109q-22 0 -29 8.5t-3 29.5l71 400q5 25 15 37.5
t37 22.5zM237 -193q-12 -21 -24.5 -28t-34.5 -7h-58q-17 0 -21 6t1 23l33 122q7 25 19.5 34.5t37.5 9.5h85q49 0 25 -44z" />
    <glyph glyph-name="Ncaron" unicode="&#x147;" horiz-adv-x="702" 
d="M637 920q23 0 23 -11t-16 -24l-118 -102q-23 -20 -36.5 -24.5t-43.5 -4.5h-27q-30 0 -41 4.5t-27 24.5l-83 102q-12 12 -8.5 23.5t25.5 11.5h84q30 0 41.5 -4t21.5 -18l24 -34l35 34q15 14 28 18t42 4h76zM679 710q24 0 32 -9.5t4 -32.5l-111 -626q-4 -23 -15 -32.5
t-35 -9.5h-110q-27 0 -37 20l-111 237q-22 48 -32.5 91.5t-19.5 114.5h-8q8 -144 -12 -258l-29 -163q-5 -23 -15.5 -32.5t-34.5 -9.5h-105q-24 0 -32 9.5t-3 32.5l110 626q5 23 15.5 32.5t34.5 9.5h114q29 0 39 -20l118 -256q25 -53 52 -183h8q-11 87 -11.5 127t11.5 126
l29 164q4 23 14.5 32.5t34.5 9.5h105z" />
    <glyph glyph-name="ncaron" unicode="&#x148;" 
d="M527 739q15 0 19.5 -5.5t0.5 -13t-14 -15.5l-118 -102q-24 -21 -36.5 -25.5t-43.5 -4.5h-27q-29 0 -40.5 5t-27.5 25l-83 102q-12 12 -8.5 23t26.5 11h81q30 0 41.5 -4t20.5 -17l24 -35l36 34q15 14 28 18t42 4h79zM335 535q113 0 159 -57.5t28 -162.5l-49 -277
q-4 -21 -14 -29.5t-31 -8.5h-110q-22 0 -28.5 8.5t-2.5 29.5l48 274q5 29 -7 42t-43 13q-26 0 -45 -4q-2 -1 -4 -4l-56 -321q-4 -21 -14 -29.5t-32 -8.5h-109q-22 0 -29 8.5t-3 29.5l71 400q5 25 15 37.5t37 22.5q100 37 219 37z" />
    <glyph glyph-name="napostrophe" unicode="&#x149;" 
d="M151 561q-13 -17 -22 -21.5t-29 -4.5h-73q-30 0 -18 26l66 142q10 20 18 26.5t30 6.5h107q25 0 31.5 -11t-6.5 -28zM116 498q100 37 219 37q113 0 159 -57.5t28 -162.5l-49 -277q-4 -21 -14 -29.5t-31 -8.5h-110q-22 0 -28.5 8.5t-2.5 29.5l48 274q5 29 -7 42t-43 13
q-26 0 -45 -4q-2 -1 -4 -4l-56 -321q-4 -21 -14 -29.5t-32 -8.5h-109q-22 0 -29 8.5t-3 29.5l71 400q5 25 15 37.5t37 22.5z" />
    <glyph glyph-name="Eng" unicode="&#x14a;" horiz-adv-x="702" 
d="M679 710q24 0 32 -9.5t4 -32.5l-120 -678q-20 -113 -92.5 -166.5t-200.5 -53.5q-22 0 -29 8.5t-3 30.5l15 85q4 23 14 31.5t32 8.5q66 0 78 68l1 9l-114 246q-23 49 -33 91.5t-19 114.5h-8q8 -144 -12 -258l-29 -163q-5 -23 -15.5 -32.5t-34.5 -9.5h-105q-24 0 -32 9.5
t-3 32.5l110 626q5 23 15.5 32.5t34.5 9.5h113q28 0 38 -20l119 -256q11 -24 19 -48.5t11.5 -39t10 -46t10.5 -49.5h8q-11 87 -11.5 127t11.5 126l29 164q4 23 15 32.5t34 9.5h107z" />
    <glyph glyph-name="eng" unicode="&#x14b;" 
d="M116 498q100 37 219 37q113 0 159 -57.5t28 -162.5l-58 -329q-20 -112 -91 -164t-197 -52q-22 0 -29 8.5t-3 30.5l15 84q3 21 13 29.5t32 8.5q64 0 75 67l56 314q5 29 -7 42t-43 13q-26 0 -45 -4q-2 -1 -4 -4l-56 -321q-4 -21 -14 -29.5t-32 -8.5h-109q-22 0 -29 8.5
t-3 29.5l71 400q5 25 15 37.5t37 22.5z" />
    <glyph glyph-name="Omacron" unicode="&#x14c;" horiz-adv-x="682" 
d="M569 902q22 0 28.5 -7t2.5 -29l-8 -42q-4 -22 -12.5 -29t-30.5 -7h-244q-21 0 -27 7t-2 29l8 42q4 21 13 28.5t28 7.5h244zM61 455q23 130 113.5 200t238.5 70q145 0 213.5 -80t45.5 -212l-31 -181q-23 -129 -113.5 -198t-238.5 -69q-146 0 -214 78.5t-46 210.5zM478 454
q8 47 -16 71.5t-76 24.5q-110 0 -127 -96l-35 -198q-8 -47 16 -71.5t77 -24.5q109 0 126 96z" />
    <glyph glyph-name="omacron" unicode="&#x14d;" horiz-adv-x="550" 
d="M204 596q-21 0 -27 7t-2 29l7 42q4 21 13.5 28.5t28.5 7.5h244q22 0 28 -7t2 -29l-7 -42q-4 -22 -12.5 -29t-30.5 -7h-244zM315 535q120 0 174 -61t36 -165l-19 -112q-19 -103 -91.5 -157.5t-194.5 -54.5q-119 0 -173 61t-36 165l19 112q19 103 91.5 157.5t193.5 54.5z
M341 321q11 54 -53 54q-61 0 -72 -54l-21 -122q-11 -53 52 -53q62 0 73 53z" />
    <glyph glyph-name="Obreve" unicode="&#x14e;" horiz-adv-x="682" 
d="M620 870q-61 -106 -196 -106q-66 0 -106.5 27.5t-51.5 78.5q-5 24 23 35l71 25q17 6 23.5 3.5t11.5 -15.5q13 -33 50 -33q35 0 59 33q10 13 17.5 15.5t21.5 -2.5l65 -26q25 -10 12 -35zM61 455q23 130 113.5 200t238.5 70q145 0 213.5 -80t45.5 -212l-31 -181
q-23 -129 -113.5 -198t-238.5 -69q-146 0 -214 78.5t-46 210.5zM478 454q8 47 -16 71.5t-76 24.5q-110 0 -127 -96l-35 -198q-8 -47 16 -71.5t77 -24.5q109 0 126 96z" />
    <glyph glyph-name="obreve" unicode="&#x14f;" horiz-adv-x="550" 
d="M519 680q-58 -106 -194 -106q-66 0 -107.5 27.5t-51.5 78.5q-3 14 2 21.5t21 13.5l68 24q18 6 24.5 3.5t12.5 -15.5q12 -32 50 -32q37 0 60 33q10 12 16.5 14.5t21.5 -2.5l66 -25q14 -6 16 -13.5t-5 -21.5zM30 323q19 103 91.5 157.5t193.5 54.5q120 0 174 -61t36 -165
l-19 -112q-19 -103 -91.5 -157.5t-194.5 -54.5q-119 0 -173 61t-36 165zM341 321q11 54 -53 54q-61 0 -72 -54l-21 -122q-11 -53 52 -53q62 0 73 53z" />
    <glyph glyph-name="Ohungarumlaut" unicode="&#x150;" horiz-adv-x="682" 
d="M318 772q-11 2 -15 8.5t-1.5 14t10.5 15.5l92 97q30 34 70 26l21 -5q19 10 43 3l64 -18q13 -4 17.5 -11t0.5 -15.5t-15 -16.5l-132 -90q-27 -20 -47 -15l-28 7q-19 -13 -37 -8zM413 725q145 0 213.5 -80t45.5 -212l-31 -181q-23 -129 -113.5 -198t-238.5 -69
q-146 0 -214 78.5t-46 210.5l32 181q23 130 113.5 200t238.5 70zM478 454q8 47 -16 71.5t-76 24.5q-110 0 -127 -96l-35 -198q-8 -47 16 -71.5t77 -24.5q109 0 126 96z" />
    <glyph glyph-name="ohungarumlaut" unicode="&#x151;" horiz-adv-x="550" 
d="M217 578q-11 2 -15 8.5t-1.5 14t10.5 15.5l91 97q31 34 70 26l21 -5q19 10 43 3l66 -18q19 -6 19 -18t-17 -25l-132 -89q-18 -12 -27 -15.5t-21 0.5l-28 6q-20 -13 -36 -8zM315 535q120 0 174 -61t36 -165l-19 -112q-19 -103 -91.5 -157.5t-194.5 -54.5q-119 0 -173 61
t-36 165l19 112q19 103 91.5 157.5t193.5 54.5zM341 321q11 54 -53 54q-61 0 -72 -54l-21 -122q-11 -53 52 -53q62 0 73 53z" />
    <glyph glyph-name="OE" unicode="&#x152;" horiz-adv-x="884" 
d="M794 175q24 0 31.5 -9t3.5 -33l-16 -91q-4 -23 -15 -32.5t-35 -9.5h-352q-50 -15 -126 -15q-145 0 -212 80t-44 212l32 180q22 130 114 199t240 69q65 0 114 -15h351q24 0 32 -9.5t3 -32.5l-16 -90q-4 -24 -15 -33.5t-35 -9.5h-210l-15 -89h157q24 0 31.5 -9.5t3.5 -32.5
l-16 -90q-5 -24 -15.5 -33.5t-34.5 -9.5h-157l-17 -96h218zM223 256q-8 -47 16 -71.5t77 -24.5q35 0 62 12l64 366q-22 12 -57 12q-110 0 -127 -96z" />
    <glyph glyph-name="oe" unicode="&#x153;" horiz-adv-x="791" 
d="M440 482q66 53 154 53q107 0 155 -47t33 -133q-12 -71 -68.5 -110.5t-145.5 -39.5q-46 0 -102 6l-4 -21q-11 -65 48 -65q46 0 79 37q12 16 22 18.5t31 -8.5l62 -34q33 -20 6 -58q-65 -95 -226 -95q-84 0 -129 45q-60 -45 -147 -45q-114 0 -163.5 62t-31.5 167l19 113
q37 208 268 208q92 0 140 -53zM605 362q4 19 -6.5 30t-37.5 11t-45.5 -16t-23.5 -44l-2 -12q33 -5 61 -5q49 0 54 36zM318 319q9 56 -42 56q-49 0 -58 -51l-23 -128q-9 -50 40 -50q54 0 61 53z" />
    <glyph glyph-name="Racute" unicode="&#x154;" horiz-adv-x="661" 
d="M437 914q45 24 66 -3l40 -58q11 -15 8.5 -24t-21.5 -16l-191 -56q-18 -6 -28.5 -5.5t-16.5 10.5l-21 33q-10 14 -8 22t16 16zM450 710q114 0 170.5 -67t35.5 -182q-24 -137 -143 -198q9 -18 19 -43l60 -171q7 -21 -2 -35t-33 -14h-108q-39 0 -57.5 11t-26.5 37l-40 137
q-9 29 -20.5 40t-41.5 11h-26l-34 -194q-5 -23 -15.5 -32.5t-34.5 -9.5h-113q-24 0 -32 9.5t-3 32.5l110 626q5 23 15.5 32.5t34.5 9.5h285zM451 470q6 30 -8 47.5t-46 17.5h-107l-24 -132h108q31 0 51.5 18t25.5 49z" />
    <glyph glyph-name="racute" unicode="&#x155;" horiz-adv-x="361" 
d="M284 734q46 25 66 -2l43 -56q11 -15 9 -24t-21 -16l-191 -60q-36 -12 -46 3l-22 33q-10 14 -8 22.5t17 15.5zM325 535h31q22 0 29 -8.5t3 -29.5l-15 -85q-4 -22 -13.5 -30.5t-31.5 -8.5h-38q-27 0 -47 -4q-4 0 -6 -6l-57 -325q-4 -21 -14 -29.5t-32 -8.5h-109
q-22 0 -29 8.5t-3 29.5l72 405q5 26 15 38.5t37 21.5q78 28 208 32z" />
    <glyph glyph-name="Rcommaaccent" unicode="&#x156;" horiz-adv-x="661" 
d="M450 710q114 0 170.5 -67t35.5 -182q-24 -137 -143 -198q9 -18 19 -43l60 -171q7 -21 -2 -35t-33 -14h-108q-39 0 -57.5 11t-26.5 37l-40 137q-9 29 -20.5 40t-41.5 11h-26l-34 -194q-5 -23 -15.5 -32.5t-34.5 -9.5h-113q-24 0 -32 9.5t-3 32.5l110 626q5 23 15.5 32.5
t34.5 9.5h285zM451 470q6 30 -8 47.5t-46 17.5h-107l-24 -132h108q31 0 51.5 18t25.5 49zM286 -227q-17 -33 -51 -33h-64q-16 0 -20.5 7t-0.5 23l41 140q7 23 18.5 32.5t33.5 9.5h89q50 0 27 -42z" />
    <glyph glyph-name="rcommaaccent" unicode="&#x157;" horiz-adv-x="361" 
d="M324 535h32q21 0 28 -8.5t3 -29.5l-14 -85q-5 -22 -14.5 -30.5t-30.5 -8.5h-38q-27 0 -47 -4q-5 0 -7 -6l-57 -325q-4 -21 -13.5 -29.5t-31.5 -8.5h-110q-21 0 -28 8.5t-3 29.5l71 405q5 25 15.5 37.5t36.5 22.5q78 28 208 32zM86 -197q-11 -20 -23 -27t-35 -7h-58
q-18 0 -22 5.5t1 22.5l33 120q7 25 19 34.5t38 9.5h84q49 0 25 -44z" />
    <glyph glyph-name="Rcaron" unicode="&#x158;" horiz-adv-x="661" 
d="M603 920q23 0 23 -11t-16 -24l-118 -102q-23 -20 -36.5 -24.5t-43.5 -4.5h-27q-30 0 -41 4.5t-27 24.5l-83 102q-12 12 -8.5 23.5t25.5 11.5h84q30 0 41.5 -4t21.5 -18l24 -34l35 34q15 14 28 18t42 4h76zM450 710q114 0 170.5 -67t35.5 -182q-24 -137 -143 -198
q9 -18 19 -43l60 -171q7 -21 -2 -35t-33 -14h-108q-39 0 -57.5 11t-26.5 37l-40 137q-9 29 -20.5 40t-41.5 11h-26l-34 -194q-5 -23 -15.5 -32.5t-34.5 -9.5h-113q-24 0 -32 9.5t-3 32.5l110 626q5 23 15.5 32.5t34.5 9.5h285zM451 470q6 30 -8 47.5t-46 17.5h-107l-24 -132
h108q31 0 51.5 18t25.5 49z" />
    <glyph glyph-name="rcaron" unicode="&#x159;" horiz-adv-x="361" 
d="M453 739q15 0 19.5 -5.5t0.5 -13t-14 -15.5l-118 -102q-24 -21 -36.5 -25.5t-43.5 -4.5h-27q-29 0 -40.5 5t-27.5 25l-83 102q-11 12 -7.5 23t25.5 11h81q30 0 41.5 -4t20.5 -17l25 -35l35 34q15 14 28 18t42 4h79zM356 535q22 0 29 -8.5t3 -29.5l-15 -85
q-4 -22 -13.5 -30.5t-31.5 -8.5h-38q-27 0 -47 -4q-4 0 -6 -6l-57 -325q-4 -21 -14 -29.5t-32 -8.5h-109q-22 0 -29 8.5t-3 29.5l72 405q5 26 15 38.5t37 21.5q78 28 208 32h31z" />
    <glyph glyph-name="Sacute" unicode="&#x15a;" horiz-adv-x="642" 
d="M442 924q46 23 66 -3l41 -58q11 -15 8.5 -24t-21.5 -16l-191 -56q-18 -6 -29 -5.5t-17 10.5l-21 33q-16 25 9 38zM66 518q18 100 101.5 153.5t225.5 53.5q107 0 165 -37.5t82 -110.5q7 -22 1 -32t-31 -20l-99 -39q-22 -9 -32 -5t-18 26q-18 52 -92 52q-95 0 -104 -52
q-5 -29 25 -41t96 -20q26 -4 49 -9.5t49.5 -15.5t46.5 -23t39 -32.5t28 -43.5t14 -56t-4 -71q-39 -210 -337 -210q-114 0 -187 40t-88 115q-7 40 37 55l100 34q24 8 36 3.5t19 -25.5q18 -53 103 -53q107 0 118 57q5 27 -22.5 39t-84.5 20q-41 6 -72 13t-69 25t-60 43t-33 68
t-2 99z" />
    <glyph glyph-name="sacute" unicode="&#x15b;" horiz-adv-x="516" 
d="M337 734q46 25 66 -2l43 -56q11 -15 9 -24t-21 -16l-191 -60q-36 -12 -46 3l-22 33q-10 14 -8 22.5t17 15.5zM39 375q28 160 250 160q91 0 139 -27.5t69 -79.5q14 -37 -30 -55l-76 -32q-6 -2 -10.5 -4t-8.5 -2t-6.5 -0.5t-5.5 1t-4.5 2t-4 3.5t-3 3.5t-3.5 5t-4 5.5
q-21 27 -69 27q-36 0 -50.5 -6t-16.5 -21q-3 -16 12.5 -22.5t63.5 -10.5q115 -10 160 -49.5t31 -119.5q-14 -81 -82 -124.5t-182 -43.5q-192 0 -218 119q-8 37 33 52l85 28q26 7 34 3.5t16 -18.5q14 -32 69 -32q72 0 78 31q3 19 -14 26t-75 11q-98 6 -145 46.5t-32 123.5z
" />
    <glyph glyph-name="Scircumflex" unicode="&#x15c;" horiz-adv-x="642" 
d="M454 930q27 0 38.5 -5t26.5 -25l85 -102q11 -12 6.5 -23t-27.5 -11h-82q-31 0 -43 3.5t-20 17.5l-23 36l-37 -35q-15 -15 -27 -18.5t-42 -3.5h-80q-15 0 -20.5 5t-2 13t13.5 16l119 102q25 20 38 25t45 5h32zM66 518q18 100 101.5 153.5t225.5 53.5q107 0 165 -37.5
t82 -110.5q7 -22 1 -32t-31 -20l-99 -39q-22 -9 -32 -5t-18 26q-18 52 -92 52q-95 0 -104 -52q-5 -29 25 -41t96 -20q26 -4 49 -9.5t49.5 -15.5t46.5 -23t39 -32.5t28 -43.5t14 -56t-4 -71q-39 -210 -337 -210q-114 0 -187 40t-88 115q-7 40 37 55l100 34q24 8 36 3.5
t19 -25.5q18 -53 103 -53q107 0 118 57q5 27 -22.5 39t-84.5 20q-41 6 -72 13t-69 25t-60 43t-33 68t-2 99z" />
    <glyph glyph-name="scircumflex" unicode="&#x15d;" horiz-adv-x="516" 
d="M501 609q11 -12 6 -23.5t-27 -11.5h-77q-31 0 -43 4t-20 18l-23 35l-37 -35q-15 -14 -27.5 -18t-41.5 -4h-81q-15 0 -20.5 5.5t-1.5 13.5t13 16l121 102q23 20 36.5 24.5t44.5 4.5h28q27 0 38 -4.5t28 -24.5zM289 535q91 0 139 -27.5t69 -79.5q14 -37 -30 -55l-76 -32
q-6 -2 -10.5 -4t-8.5 -2t-6.5 -0.5t-5.5 1t-4.5 2t-4 3.5t-3 3.5t-3.5 5t-4 5.5q-21 27 -69 27q-36 0 -50.5 -6t-16.5 -21q-3 -16 12.5 -22.5t63.5 -10.5q115 -10 160 -49.5t31 -119.5q-14 -81 -82 -124.5t-182 -43.5q-192 0 -218 119q-8 37 33 52l85 28q26 7 34 3.5
t16 -18.5q14 -32 69 -32q72 0 78 31q3 19 -14 26t-75 11q-98 6 -145 46.5t-32 123.5q28 160 250 160z" />
    <glyph glyph-name="Scedilla" unicode="&#x15e;" horiz-adv-x="642" 
d="M66 518q18 100 101.5 153.5t225.5 53.5q107 0 165 -37.5t82 -110.5q7 -22 1 -32t-31 -20l-99 -39q-22 -9 -32 -5t-18 26q-18 52 -92 52q-95 0 -104 -52q-5 -29 25 -41t96 -20q26 -4 49 -9.5t49.5 -15.5t46.5 -23t39 -32.5t28 -43.5t14 -56t-4 -71q-32 -181 -262 -206
l-22 -41h6q44 -1 62 -31t5 -73q-14 -50 -59 -72.5t-104 -22.5q-36 0 -75 15q-25 10 -21 31l7 42q5 33 34 16q27 -15 54 -15q34 0 39 23q2 12 -7 17t-33 5h-20q-28 0 -10 27l46 75q-106 5 -172 44.5t-80 110.5q-7 40 37 55l100 34q24 8 36 3.5t19 -25.5q18 -53 103 -53
q107 0 118 57q5 27 -22.5 39t-84.5 20q-41 6 -72 13t-69 25t-60 43t-33 68t-2 99z" />
    <glyph glyph-name="scedilla" unicode="&#x15f;" horiz-adv-x="516" 
d="M39 375q28 160 250 160q91 0 139 -27.5t69 -79.5q14 -37 -30 -55l-76 -32q-6 -2 -10.5 -4t-8.5 -2t-6.5 -0.5t-5.5 1t-4.5 2t-4 3.5t-3 3.5t-3.5 5t-4 5.5q-21 27 -69 27q-36 0 -50.5 -6t-16.5 -21q-3 -16 12.5 -22.5t63.5 -10.5q115 -10 160 -49.5t31 -119.5
q-11 -67 -61 -109t-133 -54l-22 -40h6q44 -1 62 -31t5 -73q-14 -51 -59 -73.5t-104 -22.5q-34 0 -75 16q-25 10 -21 31l7 42q5 33 34 16q27 -15 54 -15q34 0 39 23q5 22 -40 22h-20q-26 0 -11 27l46 74q-166 9 -189 118q-8 37 33 52l85 28q26 7 34 3.5t16 -18.5
q14 -32 69 -32q72 0 78 31q3 19 -14 26t-75 11q-98 6 -145 46.5t-32 123.5z" />
    <glyph glyph-name="Scaron" unicode="&#x160;" horiz-adv-x="642" 
d="M609 930q15 0 19.5 -5.5t1 -13t-13.5 -16.5l-118 -102q-24 -20 -37 -24.5t-44 -4.5h-27q-29 0 -40.5 4.5t-27.5 24.5l-83 102q-11 12 -7.5 23.5t25.5 11.5h84q30 0 41.5 -4t20.5 -18l25 -34l35 34q15 14 28 18t42 4h76zM66 518q18 100 101.5 153.5t225.5 53.5
q107 0 165 -37.5t82 -110.5q7 -22 1 -32t-31 -20l-99 -39q-22 -9 -32 -5t-18 26q-18 52 -92 52q-95 0 -104 -52q-5 -29 25 -41t96 -20q26 -4 49 -9.5t49.5 -15.5t46.5 -23t39 -32.5t28 -43.5t14 -56t-4 -71q-39 -210 -337 -210q-114 0 -187 40t-88 115q-7 40 37 55l100 34
q24 8 36 3.5t19 -25.5q18 -53 103 -53q107 0 118 57q5 27 -22.5 39t-84.5 20q-41 6 -72 13t-69 25t-60 43t-33 68t-2 99z" />
    <glyph glyph-name="scaron" unicode="&#x161;" horiz-adv-x="516" 
d="M506 739q15 0 19.5 -5.5t0.5 -13t-14 -15.5l-118 -102q-24 -21 -36.5 -25.5t-43.5 -4.5h-27q-29 0 -40.5 5t-27.5 25l-83 102q-11 12 -7.5 23t25.5 11h81q30 0 41.5 -4t20.5 -17l25 -35l35 34q15 14 28 18t42 4h79zM289 535q91 0 139 -27.5t69 -79.5q14 -37 -30 -55
l-76 -32q-6 -2 -10.5 -4t-8.5 -2t-6.5 -0.5t-5.5 1t-4.5 2t-4 3.5t-3 3.5t-3.5 5t-4 5.5q-21 27 -69 27q-36 0 -50.5 -6t-16.5 -21q-3 -16 12.5 -22.5t63.5 -10.5q115 -10 160 -49.5t31 -119.5q-14 -81 -82 -124.5t-182 -43.5q-192 0 -218 119q-8 37 33 52l85 28
q26 7 34 3.5t16 -18.5q14 -32 69 -32q72 0 78 31q3 19 -14 26t-75 11q-98 6 -145 46.5t-32 123.5q28 160 250 160z" />
    <glyph glyph-name="Tcaron" unicode="&#x164;" horiz-adv-x="602" 
d="M585 920q23 0 23 -11t-16 -24l-118 -102q-24 -20 -36.5 -24.5t-43.5 -4.5h-27q-29 0 -40.5 4.5t-27.5 24.5l-83 102q-12 12 -8.5 23.5t26.5 11.5h84q30 0 41 -4t21 -18l24 -34l35 34q15 14 28.5 18t41.5 4h76zM620 710q24 0 32 -9.5t3 -32.5l-16 -90q-4 -24 -15 -33.5
t-35 -9.5h-148l-87 -493q-5 -23 -15.5 -32.5t-34.5 -9.5h-113q-24 0 -32 9.5t-3 32.5l87 493h-149q-24 0 -31.5 9.5t-3.5 33.5l16 90q5 23 15.5 32.5t34.5 9.5h495z" />
    <glyph glyph-name="tcaron" unicode="&#x165;" horiz-adv-x="399" 
d="M487 589q-11 -20 -23 -27t-33 -7h-57q-17 0 -20.5 5.5t0.5 22.5l29 115q6 24 18 33t37 9h87q51 0 25 -42zM295 640q21 0 28 -8.5t4 -29.5l-15 -82h70q21 0 28 -8.5t3 -29.5l-13 -75q-4 -22 -14 -30.5t-31 -8.5h-69l-27 -147q-7 -40 5.5 -55t50.5 -15q23 0 30 -8.5
t3 -30.5l-16 -86q-4 -22 -13.5 -30.5t-32.5 -8.5q-133 -2 -185 48t-30 173l28 160h-43q-22 0 -29 8.5t-3 30.5l14 75q4 21 13.5 29.5t30.5 8.5h44l14 82q4 21 14 29.5t31 8.5h110z" />
    <glyph glyph-name="Tbar" unicode="&#x166;" horiz-adv-x="615" 
d="M626 710q24 0 32 -9.5t3 -32.5l-16 -90q-4 -24 -15 -33.5t-35 -9.5h-148l-29 -163h96q14 0 18.5 -5.5t1.5 -20.5l-12 -67q-3 -16 -9 -21.5t-21 -5.5h-95l-37 -210q-5 -23 -15.5 -32.5t-34.5 -9.5h-113q-24 0 -32 9.5t-3 32.5l37 210h-95q-15 0 -19 5.5t-1 21.5l11 67
q5 26 30 26h95l29 163h-149q-24 0 -31.5 9.5t-3.5 33.5l16 90q5 23 15.5 32.5t34.5 9.5h495z" />
    <glyph glyph-name="tbar" unicode="&#x167;" horiz-adv-x="400" 
d="M295 640q22 0 29 -8t3 -30l-14 -82h69q22 0 28.5 -8t3.5 -30l-14 -75q-4 -22 -13.5 -30t-30.5 -8h-70l-9 -53h68q14 0 18 -5.5t1 -20.5l-7 -46q-3 -16 -9 -21.5t-20 -5.5h-69l-1 -5q-6 -37 7.5 -48.5t49.5 -11.5q22 0 29.5 -8.5t3.5 -31.5l-15 -86q-4 -22 -14 -30.5
t-32 -8.5q-133 -2 -185 48t-31 174l2 8h-44q-14 0 -18 5.5t-1 21.5l8 46q5 26 29 26h43l10 53h-44q-22 0 -28.5 8t-2.5 30l13 75q4 22 13.5 30t31.5 8h43l15 82q4 22 13.5 30t31.5 8h109z" />
    <glyph glyph-name="Utilde" unicode="&#x168;" horiz-adv-x="692" 
d="M599 909q13 0 17 -5.5t2 -17.5q-12 -67 -40.5 -95t-78.5 -28q-42 0 -78 21t-47 21q-15 0 -19 -22q-3 -20 -22 -20h-62q-24 0 -19 23q11 68 40.5 95.5t76.5 27.5q44 0 81 -20.5t48 -20.5q14 0 18 22q4 19 23 19h60zM233 252q-16 -92 88 -92q103 0 119 92l74 416
q4 23 15 32.5t34 9.5h114q23 0 31 -9.5t4 -32.5l-75 -423q-23 -127 -109.5 -193.5t-233.5 -66.5q-145 0 -211 81.5t-43 211.5l69 390q5 23 15.5 32.5t34.5 9.5h113q24 0 32 -9.5t3 -32.5z" />
    <glyph glyph-name="utilde" unicode="&#x169;" 
d="M498 731q25 0 20 -23q-12 -68 -41 -95.5t-79 -27.5q-42 0 -78 20.5t-48 20.5q-14 0 -18 -22q-3 -19 -23 -19h-61q-23 0 -19 23q12 67 41.5 95t75.5 28q44 0 81 -21t48 -21q15 0 18 22q4 20 23 20h60zM516 520q22 0 29 -8.5t3 -29.5l-71 -400q-5 -25 -15 -37.5t-37 -22.5
q-100 -37 -219 -37q-112 0 -158 60t-27 166l47 271q4 21 14 29.5t32 8.5h109q22 0 29 -8.5t3 -29.5l-48 -274q-5 -29 6.5 -42t42.5 -13q21 0 41 4q7 1 9 9l55 316q4 21 14 29.5t32 8.5h109z" />
    <glyph glyph-name="Umacron" unicode="&#x16a;" horiz-adv-x="692" 
d="M572 892q21 0 27.5 -7t2.5 -29l-7 -42q-4 -22 -13 -29t-30 -7h-244q-21 0 -27 7.5t-2 28.5l7 42q4 21 13 28.5t29 7.5h244zM233 252q-16 -92 88 -92q103 0 119 92l74 416q4 23 15 32.5t34 9.5h114q23 0 31 -9.5t4 -32.5l-75 -423q-23 -127 -109.5 -193.5t-233.5 -66.5
q-145 0 -211 81.5t-43 211.5l69 390q5 23 15.5 32.5t34.5 9.5h113q24 0 32 -9.5t3 -32.5z" />
    <glyph glyph-name="umacron" unicode="&#x16b;" 
d="M470 710q22 0 28 -7t2 -29l-8 -42q-3 -22 -11.5 -29t-30.5 -7h-244q-21 0 -27 7t-3 29l8 42q4 21 13 28.5t29 7.5h244zM516 520q22 0 29 -8.5t3 -29.5l-71 -400q-5 -25 -15 -37.5t-37 -22.5q-100 -37 -219 -37q-112 0 -158 60t-27 166l47 271q4 21 14 29.5t32 8.5h109
q22 0 29 -8.5t3 -29.5l-48 -274q-5 -29 6.5 -42t42.5 -13q21 0 41 4q7 1 9 9l55 316q4 21 14 29.5t32 8.5h109z" />
    <glyph glyph-name="Ubreve" unicode="&#x16c;" horiz-adv-x="692" 
d="M622 860q-59 -106 -196 -106q-66 0 -106.5 27.5t-50.5 78.5q-6 24 22 35l71 25q17 6 24 3.5t12 -15.5q12 -33 49 -33q35 0 60 33q10 13 17 15.5t21 -2.5l65 -26q25 -9 12 -35zM233 252q-16 -92 88 -92q103 0 119 92l74 416q4 23 15 32.5t34 9.5h114q23 0 31 -9.5t4 -32.5
l-75 -423q-23 -127 -109.5 -193.5t-233.5 -66.5q-145 0 -211 81.5t-43 211.5l69 390q5 23 15.5 32.5t34.5 9.5h113q24 0 32 -9.5t3 -32.5z" />
    <glyph glyph-name="ubreve" unicode="&#x16d;" 
d="M521 680q-58 -106 -195 -106t-159 106q-3 14 2 21.5t22 13.5l68 24q17 6 24 3.5t12 -15.5q13 -32 50 -32t61 33q10 12 16.5 14.5t20.5 -2.5l67 -25q24 -11 11 -35zM516 520q22 0 29 -8.5t3 -29.5l-71 -400q-5 -25 -15 -37.5t-37 -22.5q-100 -37 -219 -37q-112 0 -158 60
t-27 166l47 271q4 21 14 29.5t32 8.5h109q22 0 29 -8.5t3 -29.5l-48 -274q-5 -29 6.5 -42t42.5 -13q21 0 41 4q7 1 9 9l55 316q4 21 14 29.5t32 8.5h109z" />
    <glyph glyph-name="Uring" unicode="&#x16e;" horiz-adv-x="692" 
d="M316 855q10 54 51.5 85.5t99.5 31.5q56 0 86 -32t21 -85q-10 -53 -51 -84.5t-97 -31.5q-58 0 -89 31t-21 85zM481 855q3 16 -5 26t-23 10q-38 0 -45 -36q-2 -15 6.5 -24.5t26.5 -9.5q15 0 26.5 9.5t13.5 24.5zM233 252q-16 -92 88 -92q103 0 119 92l74 416q4 23 15 32.5
t34 9.5h114q23 0 31 -9.5t4 -32.5l-75 -423q-23 -127 -109.5 -193.5t-233.5 -66.5q-145 0 -211 81.5t-43 211.5l69 390q5 23 15.5 32.5t34.5 9.5h113q24 0 32 -9.5t3 -32.5z" />
    <glyph glyph-name="uring" unicode="&#x16f;" 
d="M208 651q9 54 51 85.5t100 31.5q57 0 86.5 -32t19.5 -85q-9 -53 -50 -84.5t-97 -31.5q-58 0 -89 31t-21 85zM373 651q2 16 -6 25.5t-23 9.5q-38 0 -44 -35q-3 -15 5.5 -25t26.5 -10q15 0 26.5 9.5t14.5 25.5zM516 520q22 0 29 -8.5t3 -29.5l-71 -400q-5 -25 -15 -37.5
t-37 -22.5q-100 -37 -219 -37q-112 0 -158 60t-27 166l47 271q4 21 14 29.5t32 8.5h109q22 0 29 -8.5t3 -29.5l-48 -274q-5 -29 6.5 -42t42.5 -13q21 0 41 4q7 1 9 9l55 316q4 21 14 29.5t32 8.5h109z" />
    <glyph glyph-name="Uhungarumlaut" unicode="&#x170;" horiz-adv-x="692" 
d="M321 762q-18 4 -18.5 15t12.5 23l91 97q31 34 70 26l21 -5q19 10 43 3l65 -18q13 -4 17.5 -11t0.5 -15.5t-15 -16.5l-133 -90q-27 -20 -46 -15l-29 7q-18 -13 -36 -8zM677 710q23 0 31 -9.5t4 -32.5l-75 -423q-23 -127 -109.5 -193.5t-233.5 -66.5q-145 0 -211 81.5
t-43 211.5l69 390q5 23 15.5 32.5t34.5 9.5h113q24 0 32 -9.5t3 -32.5l-74 -416q-16 -92 88 -92q103 0 119 92l74 416q4 23 15 32.5t34 9.5h114z" />
    <glyph glyph-name="uhungarumlaut" unicode="&#x171;" 
d="M219 578q-18 4 -18.5 15t12.5 23l91 97q31 34 70 26l21 -4q20 9 43 2l65 -18q13 -4 17.5 -11t0.5 -15.5t-15 -16.5l-133 -89q-17 -12 -26 -15.5t-21 0.5l-28 6q-20 -13 -36 -8zM516 520q22 0 29 -8.5t3 -29.5l-71 -400q-5 -25 -15 -37.5t-37 -22.5q-100 -37 -219 -37
q-112 0 -158 60t-27 166l47 271q4 21 14 29.5t32 8.5h109q22 0 29 -8.5t3 -29.5l-48 -274q-5 -29 6.5 -42t42.5 -13q21 0 41 4q7 1 9 9l55 316q4 21 14 29.5t32 8.5h109z" />
    <glyph glyph-name="Uogonek" unicode="&#x172;" horiz-adv-x="692" 
d="M677 710q23 0 31 -9.5t4 -32.5l-75 -423q-21 -121 -116 -198q-65 -53 -91.5 -95.5t-27.5 -66.5q0 -19 15 -19q9 0 19 6q18 11 23 -6l13 -51q4 -19 -11 -29q-47 -32 -118 -32q-94 0 -95 73q-1 79 93 160q-16 -2 -47 -2q-145 0 -211 81.5t-43 211.5l69 390q5 23 15.5 32.5
t34.5 9.5h113q24 0 32 -9.5t3 -32.5l-74 -416q-16 -92 88 -92q103 0 119 92l74 416q4 23 15 32.5t34 9.5h114z" />
    <glyph glyph-name="uogonek" unicode="&#x173;" 
d="M516 520q22 0 29 -8.5t3 -29.5l-71 -400q-4 -27 -17 -41q-50 -52 -74 -93t-24 -61q-2 -18 15 -18q9 0 19 6q20 11 23 -6l12 -50q4 -20 -11 -30q-51 -35 -118 -35q-93 0 -95 67q-1 81 97 171q-49 -7 -98 -7q-112 0 -158 61t-27 167l47 269q4 21 14 29.5t32 8.5h109
q22 0 29 -8.5t3 -29.5l-48 -274q-5 -29 6.5 -42t42.5 -13q21 0 41 4q7 1 9 9l55 316q4 21 14 29.5t32 8.5h109z" />
    <glyph glyph-name="Wcircumflex" unicode="&#x174;" horiz-adv-x="935" 
d="M601 920q27 0 38.5 -5t27.5 -25l85 -102q11 -12 6.5 -23t-27.5 -11h-82q-31 0 -43 3.5t-21 17.5l-22 36l-37 -35q-15 -15 -27 -18.5t-42 -3.5h-80q-15 0 -20.5 5.5t-2 13t12.5 15.5l120 102q24 20 37.5 25t44.5 5h32zM967 710q22 0 26 -10t-6 -31l-264 -634
q-9 -21 -22 -28t-36 -7h-124q-22 0 -33.5 7t-12.5 26l-12 233q-3 90 13 180h-9q-20 -93 -53 -180l-94 -231q-9 -21 -22.5 -28t-36.5 -7h-120q-44 0 -46 33l-40 636q-2 22 5 31.5t29 9.5h121q28 0 39 -7t12 -30l-1 -262q-2 -85 -18 -177h7q20 100 50 177l108 262q9 23 23 30
t39 7h107q26 0 37.5 -7.5t12.5 -29.5l14 -262q4 -68 -11 -177h8q13 74 45 177l89 262q8 22 21.5 29.5t41.5 7.5h113z" />
    <glyph glyph-name="wcircumflex" unicode="&#x175;" horiz-adv-x="772" 
d="M266 574q-23 0 -24 11.5t15 23.5l120 102q23 20 36.5 24.5t45.5 4.5h27q27 0 38 -4.5t28 -24.5l84 -102q12 -12 7 -23.5t-28 -11.5h-77q-31 0 -42.5 4t-20.5 18l-22 35l-37 -35q-16 -14 -28.5 -18t-41.5 -4h-80zM766 520q27 0 31.5 -9t-7.5 -35l-191 -442
q-16 -34 -58 -34h-103q-46 0 -47 34l-9 134q-1 27 1 62.5t4 57.5l2 22h-7q-21 -82 -46 -142l-57 -134q-14 -34 -58 -34h-92q-44 0 -47 34l-40 442q-3 26 5 35t35 9h92q35 0 46 -7t11 -31l1 -133q0 -23 -4 -62t-8 -67l-4 -27h8q23 103 43 156l54 132q9 24 22.5 31.5t48.5 7.5
h64q35 0 45.5 -7t10.5 -31l8 -133q1 -24 -2 -63t-6 -66l-4 -27h8q20 98 40 156l47 132q8 24 22 31.5t49 7.5h92z" />
    <glyph glyph-name="Ycircumflex" unicode="&#x176;" horiz-adv-x="673" 
d="M470 920q27 0 38.5 -5t27.5 -25l85 -102q11 -12 6 -23t-27 -11h-82q-31 0 -43 3.5t-21 17.5l-22 36l-37 -35q-15 -15 -27.5 -18.5t-41.5 -3.5h-80q-23 0 -24.5 11t14.5 23l120 102q24 20 37.5 25t44.5 5h32zM717 710q15 0 21.5 -6t4 -15t-11.5 -21l-300 -393l-40 -233
q-5 -23 -16 -32.5t-34 -9.5h-114q-23 0 -30.5 9.5t-3.5 32.5l40 233l-160 393q-8 17 -1 29.5t29 12.5h116q40 0 54 -6t23 -31l71 -204l147 204q17 25 33 31t55 6h117z" />
    <glyph glyph-name="ycircumflex" unicode="&#x177;" horiz-adv-x="558" 
d="M154 574q-23 0 -24 11.5t15 23.5l120 102q23 20 36.5 24.5t45.5 4.5h27q27 0 38 -4.5t28 -24.5l84 -102q12 -12 7 -23.5t-28 -11.5h-77q-31 0 -42.5 4t-20.5 18l-22 35l-37 -35q-16 -14 -28.5 -18t-41.5 -4h-80zM516 520q22 0 28.5 -8.5t2.5 -29.5l-85 -487
q-41 -225 -280 -225q-82 0 -129 25t-70 76q-17 38 28 58l85 39q26 9 35 6t18 -19q19 -33 58 -33q55 0 66 58l6 39q-27 -4 -68 -4q-112 0 -158 62t-27 168l42 237q4 21 13.5 29.5t31.5 8.5h110q22 0 28.5 -8.5t2.5 -29.5l-43 -244q-10 -55 51 -55q27 0 47 4l52 295
q4 21 14 29.5t31 8.5h110z" />
    <glyph glyph-name="Ydieresis" unicode="&#x178;" horiz-adv-x="673" 
d="M344 914q42 0 55.5 -15.5t6.5 -55.5l-3 -13q-7 -40 -25.5 -55.5t-60.5 -15.5h-8q-41 0 -53.5 15.5t-5.5 55.5l3 13q7 41 24.5 56t59.5 15h7zM559 914q42 0 55 -15t6 -56l-3 -13q-7 -40 -25 -55.5t-60 -15.5h-7q-42 0 -55 15.5t-6 55.5l3 13q7 40 25.5 55.5t59.5 15.5h7z
M717 710q15 0 21.5 -6t4 -15t-11.5 -21l-300 -393l-40 -233q-5 -23 -16 -32.5t-34 -9.5h-114q-23 0 -30.5 9.5t-3.5 32.5l40 233l-160 393q-8 17 -1 29.5t29 12.5h116q40 0 54 -6t23 -31l71 -204l147 204q17 25 33 31t55 6h117z" />
    <glyph glyph-name="Zacute" unicode="&#x179;" horiz-adv-x="609" 
d="M428 914q47 23 66 -3l41 -58q11 -15 8.5 -24t-21.5 -16l-191 -56q-18 -6 -29 -5.5t-17 10.5l-21 33q-16 25 9 38zM608 710q24 0 32 -9.5t3 -32.5l-10 -60q-5 -24 -22 -44l-349 -389h257q24 0 31.5 -9t3.5 -33l-16 -91q-5 -23 -15.5 -32.5t-34.5 -9.5h-474
q-23 0 -30.5 9.5t-3.5 32.5l10 61q4 24 21 42l349 390h-246q-24 0 -31.5 9.5t-3.5 33.5l16 90q4 23 15 32.5t34 9.5h464z" />
    <glyph glyph-name="zacute" unicode="&#x17a;" horiz-adv-x="492" 
d="M331 734q45 25 66 -2l42 -56q12 -15 9.5 -24t-21.5 -16l-191 -60q-36 -12 -45 3l-23 33q-10 14 -7.5 22t16.5 16zM404 158q22 0 28.5 -8t2.5 -29l-14 -83q-4 -21 -13.5 -29.5t-31.5 -8.5h-366q-22 0 -29 8.5t-3 29.5l14 78q4 24 22 40l221 206h-156q-22 0 -28.5 8
t-2.5 29l14 83q4 21 13.5 29.5t31.5 8.5h356q21 0 28 -8.5t3 -29.5l-14 -78q-4 -24 -28 -46l-225 -200h177z" />
    <glyph glyph-name="Zdotaccent" unicode="&#x17b;" horiz-adv-x="609" 
d="M422 915q43 0 56 -15.5t5 -59.5l-2 -8q-8 -44 -26 -59.5t-61 -15.5h-6q-43 0 -56.5 15.5t-6.5 59.5l2 8q8 44 26.5 59.5t62.5 15.5h6zM608 710q24 0 32 -9.5t3 -32.5l-10 -60q-5 -24 -22 -44l-349 -389h257q24 0 31.5 -9t3.5 -33l-16 -91q-5 -23 -15.5 -32.5t-34.5 -9.5
h-474q-23 0 -30.5 9.5t-3.5 32.5l10 61q4 24 21 42l349 390h-246q-24 0 -31.5 9.5t-3.5 33.5l16 90q4 23 15 32.5t34 9.5h464z" />
    <glyph glyph-name="zdotaccent" unicode="&#x17c;" horiz-adv-x="492" 
d="M326 736q43 0 56 -15.5t5 -59.5l-2 -8q-7 -43 -25 -59t-62 -16h-6q-43 0 -56.5 15.5t-5.5 59.5l2 8q7 43 25.5 59t62.5 16h6zM404 158q22 0 28.5 -8t2.5 -29l-14 -83q-4 -21 -13.5 -29.5t-31.5 -8.5h-366q-22 0 -29 8.5t-3 29.5l14 78q4 24 22 40l221 206h-156
q-22 0 -28.5 8t-2.5 29l14 83q4 21 13.5 29.5t31.5 8.5h356q21 0 28 -8.5t3 -29.5l-14 -78q-4 -24 -28 -46l-225 -200h177z" />
    <glyph glyph-name="Zcaron" unicode="&#x17d;" horiz-adv-x="609" 
d="M595 920q15 0 20 -5.5t1 -13.5t-14 -16l-118 -102q-23 -20 -36.5 -24.5t-43.5 -4.5h-28q-29 0 -40.5 4.5t-26.5 24.5l-83 102q-12 12 -8.5 23.5t25.5 11.5h84q30 0 41.5 -4t21.5 -18l24 -34l35 34q15 14 28 18t42 4h76zM608 710q24 0 32 -9.5t3 -32.5l-10 -60
q-5 -24 -22 -44l-349 -389h257q24 0 31.5 -9t3.5 -33l-16 -91q-5 -23 -15.5 -32.5t-34.5 -9.5h-474q-23 0 -30.5 9.5t-3.5 32.5l10 61q4 24 21 42l349 390h-246q-24 0 -31.5 9.5t-3.5 33.5l16 90q4 23 15 32.5t34 9.5h464z" />
    <glyph glyph-name="zcaron" unicode="&#x17e;" horiz-adv-x="492" 
d="M499 739q16 0 20.5 -5.5t0.5 -12.5t-14 -16l-119 -102q-23 -20 -36 -25t-43 -5h-28q-29 0 -40 5t-28 25l-82 102q-12 12 -8.5 23t25.5 11h82q30 0 41 -4t21 -17l24 -35l36 34q15 14 28 18t42 4h78zM463 520q21 0 28 -8.5t3 -29.5l-14 -78q-4 -24 -28 -46l-225 -200h177
q22 0 28.5 -8t2.5 -29l-14 -83q-4 -21 -13.5 -29.5t-31.5 -8.5h-366q-22 0 -29 8.5t-3 29.5l14 78q4 24 22 40l221 206h-156q-22 0 -28.5 8t-2.5 29l14 83q4 21 13.5 29.5t31.5 8.5h356z" />
    <glyph glyph-name="longs" unicode="&#x17f;" horiz-adv-x="332" 
d="M123 523q20 112 93 164.5t200 52.5q22 0 29 -8.5t3 -30.5l-13 -73q-4 -23 -14 -31.5t-32 -8.5q-67 0 -80 -68l-85 -482q-4 -21 -14 -29.5t-32 -8.5h-108q-22 0 -29 8.5t-3 29.5l58 330h-33q-21 0 -28 8.5t-3 30.5l13 75q4 21 13.5 29.5t31.5 8.5h33v3z" />
    <glyph glyph-name="florin" unicode="&#x192;" horiz-adv-x="460" 
d="M168 512q43 228 292 228q22 0 30 -8.5t6 -30.5l-8 -85q-1 -22 -10.5 -31t-31.5 -9q-45 0 -65 -17.5t-28 -59.5l-15 -75h75q22 0 29.5 -8.5t5.5 -30.5l-8 -87q-1 -21 -10.5 -29.5t-30.5 -8.5h-92l-47 -244q-45 -236 -293 -236q-22 0 -29.5 8.5t-5.5 30.5l8 85
q1 22 10.5 31t31.5 9q44 0 64.5 18.5t28.5 58.5l46 239h-66q-21 0 -28.5 8t-6.5 30l8 87q2 22 11 30.5t31 8.5h82z" />
    <glyph glyph-name="Aringacute" unicode="&#x1fa;" horiz-adv-x="687" 
d="M481 984q44 17 62 -1l38 -45q21 -22 -11 -29l-176 -42q-34 -7 -43 3l-22 30q-17 19 16 32zM273 729q11 60 57 91.5t112 31.5q64 0 98 -36t24 -97q-7 -43 -49 -73l122 -605q9 -41 -36 -41h-105q-38 0 -52 9t-16 33l-9 72h-217l-36 -72q-11 -24 -27 -33t-53 -9h-108
q-44 0 -20 41l337 605q-32 30 -22 83zM459 723q4 18 -5 29.5t-27 11.5q-43 0 -51 -41q-2 -18 7.5 -29.5t29.5 -11.5q17 0 30 11.5t16 29.5zM384 388q-3 35 -2 66.5t4 52.5l2 21h-10q-12 -72 -44 -139l-58 -118h124z" />
    <glyph glyph-name="aringacute" unicode="&#x1fb;" horiz-adv-x="545" 
d="M369 917q43 18 62 -1l39 -42q21 -22 -11 -30l-178 -44q-35 -9 -43 2l-21 24q-16 18 8 29zM214 672q9 53 49.5 83t96.5 30q55 0 84 -31t20 -82q-9 -52 -48.5 -82.5t-94.5 -30.5q-57 0 -87 30.5t-20 82.5zM374 672q3 16 -5 25t-23 9q-17 0 -28.5 -9t-14.5 -25
q-2 -15 6.5 -24.5t24.5 -9.5q15 0 26.5 9.5t13.5 24.5zM31 324q19 109 87.5 160t192.5 51t192 -34q23 -12 28 -22.5t0 -35.5l-68 -387q-4 -21 -13.5 -31t-32.5 -16q-99 -24 -217 -24q-112 0 -159.5 62.5t-28.5 168.5zM327 369q-15 4 -39 4q-33 0 -50 -12.5t-22 -42.5
l-22 -122q-7 -50 48 -50q32 0 52 5l37 211q2 6 -4 7z" />
    <glyph glyph-name="AEacute" unicode="&#x1fc;" horiz-adv-x="906" 
d="M761 914q46 23 66 -3l41 -58q11 -15 8.5 -24t-21.5 -16l-191 -56q-18 -6 -29 -5.5t-17 10.5l-21 33q-16 25 9 38zM817 175q24 0 31.5 -9t3.5 -33l-16 -91q-5 -23 -15.5 -32.5t-34.5 -9.5h-339q-24 0 -31.5 9.5t-3.5 32.5l12 63h-202l-54 -68q-18 -22 -33 -29.5t-52 -7.5
h-109q-23 0 -28.5 11t8.5 30l516 634q17 21 27.5 28t30.5 7h375q24 0 32 -9.5t3 -32.5l-16 -90q-4 -24 -15 -33.5t-35 -9.5h-195l-16 -89h143q23 0 30.5 -9.5t3.5 -32.5l-16 -90q-4 -24 -15 -33.5t-34 -9.5h-143l-17 -96h204zM494 462l-147 -206h103z" />
    <glyph glyph-name="aeacute" unicode="&#x1fd;" horiz-adv-x="771" 
d="M467 734q46 25 66 -2l42 -56q12 -15 10 -24t-22 -16l-190 -60q-36 -12 -46 3l-23 33q-16 25 9 38zM413 487q66 48 150 48q110 0 163 -46.5t38 -133.5q-12 -71 -70 -110.5t-147 -39.5q-47 0 -102 6l-4 -21q-11 -65 48 -65q46 0 79 37q12 16 22 18.5t31 -8.5l61 -34
q35 -20 7 -58q-65 -95 -227 -95q-71 0 -120 28q-66 -28 -149 -28q-118 0 -164 45.5t-33 130.5q14 85 74.5 121t185.5 36q8 0 22 -0.5t18 -0.5l4 25q1 12 2 23t-9.5 19.5t-32.5 8.5q-33 0 -62 -36q-11 -15 -20.5 -17.5t-31.5 6.5l-70 30q-13 6 -18.5 13t-4 17.5t11.5 24.5
q38 53 90.5 78.5t133.5 25.5q79 0 124 -48zM582 362q4 19 -7.5 30t-37.5 11q-28 0 -46.5 -16t-22.5 -44l-2 -13q40 -4 61 -4q50 0 55 36zM273 192q-22 2 -44 2q-46 0 -54 -42q-7 -40 37 -40q22 0 57 5q-3 30 2 61z" />
    <glyph glyph-name="Oslashacute" unicode="&#x1fe;" horiz-adv-x="683" 
d="M461 924q46 23 66 -3l40 -58q12 -15 9 -24t-21 -16l-191 -56q-19 -6 -29.5 -5.5t-16.5 10.5l-21 33q-10 14 -7.5 22t16.5 16zM734 753q19 0 6 -18l-96 -114q46 -75 28 -188l-32 -181q-23 -129 -113.5 -198t-237.5 -69q-89 0 -149 30l-34 -41q-9 -11 -15 -13.5t-24 -2.5
h-93q-10 0 -11 6t6 13l89 108q-49 74 -29 189l31 181q23 130 114 200t238 70q92 0 152 -33l37 45q9 11 15.5 13.5t21.5 2.5h96zM445 537q-24 13 -60 13q-52 0 -85.5 -24.5t-41.5 -71.5l-27 -153l-3 -25zM468 403q2 6 4 24l-214 -256q25 -11 58 -11q109 0 126 96z" />
    <glyph glyph-name="oslashacute" unicode="&#x1ff;" horiz-adv-x="551" 
d="M362 734q45 25 66 -2l42 -56q11 -15 9 -24t-21 -16l-191 -60q-36 -12 -45 3l-23 33q-10 14 -8 22.5t17 15.5zM539 552q21 0 6 -18l-52 -64q50 -60 32 -161l-19 -112q-18 -103 -90.5 -157.5t-194.5 -54.5q-61 0 -106 17l-19 -23q-12 -14 -35 -14h-57q-21 0 -5 18l50 61
q-55 61 -37 167l19 112q18 103 91 157.5t194 54.5q67 0 113 -20l19 23q12 14 34 14h57zM333 386q-12 13 -40 13q-63 0 -72 -54l-19 -103q-2 -12 -2 -20zM207 131q13 -9 36 -9q64 0 73 53l18 100q2 8 2 14z" />
    <glyph glyph-name="Scommaaccent" unicode="&#x218;" horiz-adv-x="642" 
d="M66 518q18 100 101.5 153.5t225.5 53.5q107 0 165 -37.5t82 -110.5q7 -22 1 -32t-31 -20l-99 -39q-22 -9 -32 -5t-18 26q-18 52 -92 52q-95 0 -104 -52q-5 -29 25 -41t96 -20q26 -4 49 -9.5t49.5 -15.5t46.5 -23t39 -32.5t28 -43.5t14 -56t-4 -71q-39 -210 -337 -210
q-114 0 -187 40t-88 115q-7 40 37 55l100 34q24 8 36 3.5t19 -25.5q18 -53 103 -53q107 0 118 57q5 27 -22.5 39t-84.5 20q-41 6 -72 13t-69 25t-60 43t-33 68t-2 99zM276 -227q-17 -33 -51 -33h-64q-31 0 -21 30l41 140q7 23 18 32.5t33 9.5h90q48 0 27 -42z" />
    <glyph glyph-name="scommaaccent" unicode="&#x219;" horiz-adv-x="516" 
d="M39 375q28 160 250 160q91 0 139 -27.5t69 -79.5q14 -37 -30 -55l-76 -32q-6 -2 -10.5 -4t-8.5 -2t-6.5 -0.5t-5.5 1t-4.5 2t-4 3.5t-3 3.5t-3.5 5t-4 5.5q-21 27 -69 27q-36 0 -50.5 -6t-16.5 -21q-3 -16 12.5 -22.5t63.5 -10.5q115 -10 160 -49.5t31 -119.5
q-14 -81 -82 -124.5t-182 -43.5q-192 0 -218 119q-8 37 33 52l85 28q26 7 34 3.5t16 -18.5q14 -32 69 -32q72 0 78 31q3 19 -14 26t-75 11q-98 6 -145 46.5t-32 123.5zM236 -196q-12 -21 -24.5 -28t-34.5 -7h-58q-18 0 -21.5 6t1.5 23l28 107q7 26 19 35.5t38 9.5h85
q49 0 24 -45z" />
    <glyph glyph-name="uni021A" unicode="&#x21a;" horiz-adv-x="602" 
d="M620 710q24 0 32 -9.5t3 -32.5l-16 -90q-4 -24 -15 -33.5t-35 -9.5h-148l-87 -493q-5 -23 -15.5 -32.5t-34.5 -9.5h-113q-24 0 -32 9.5t-3 32.5l87 493h-149q-24 0 -31.5 9.5t-3.5 33.5l16 90q5 23 15.5 32.5t34.5 9.5h495zM246 -227q-17 -33 -51 -33h-64q-16 0 -20.5 7
t-0.5 23l42 140q6 23 17.5 32.5t33.5 9.5h90q49 0 26 -42z" />
    <glyph glyph-name="uni021B" unicode="&#x21b;" horiz-adv-x="399" 
d="M295 640q21 0 28 -8.5t4 -29.5l-15 -82h70q21 0 28 -8.5t3 -29.5l-13 -75q-4 -22 -14 -30.5t-31 -8.5h-69l-27 -147q-7 -40 5.5 -55t50.5 -15q23 0 30 -8.5t3 -30.5l-16 -86q-4 -22 -13.5 -30.5t-32.5 -8.5q-133 -2 -185 48t-30 173l28 160h-43q-22 0 -29 8.5t-3 30.5
l14 75q4 21 13.5 29.5t30.5 8.5h44l14 82q4 21 14 29.5t31 8.5h110zM176 -227q-17 -33 -51 -33h-64q-31 0 -21 30l41 140q7 23 18 32.5t33 9.5h90q48 0 27 -42z" />
    <glyph glyph-name="dotlessj" unicode="&#x237;" horiz-adv-x="271" 
d="M227 520q22 0 29.5 -8.5t3.5 -29.5l-87 -492q-20 -113 -92.5 -166.5t-200.5 -53.5q-22 0 -29.5 8.5t-3.5 30.5l15 85q4 22 14 31t33 9q67 0 80 68l84 480q4 21 14.5 29.5t32.5 8.5h107z" />
    <glyph glyph-name="circumflex" unicode="&#x2c6;" horiz-adv-x="401" 
d="M298 740q27 0 38.5 -5t27.5 -25l85 -102q11 -12 6 -23t-28 -11h-77q-31 0 -42.5 3.5t-19.5 17.5l-23 36l-37 -35q-14 -14 -27 -18t-42 -4h-81q-15 0 -20.5 5.5t-1.5 13t13 15.5l120 102q23 20 36.5 25t45.5 5h27z" />
    <glyph glyph-name="caron" unicode="&#x2c7;" horiz-adv-x="419" 
d="M468 739q16 0 20.5 -5.5t0.5 -12.5t-14 -16l-118 -102q-23 -20 -36.5 -25t-43.5 -5h-27q-29 0 -40.5 5t-28.5 25l-82 102q-12 12 -8.5 23t26.5 11h81q30 0 41.5 -4t20.5 -17l24 -35l36 34q15 14 28 18t42 4h78z" />
    <glyph glyph-name="breve" unicode="&#x2d8;" horiz-adv-x="287" 
d="M390 680q-58 -106 -195 -106t-159 106q-3 14 2 21.5t22 13.5l68 24q17 6 24 3.5t12 -15.5q13 -32 50 -32t61 33q10 12 16.5 14.5t20.5 -2.5l67 -25q24 -11 11 -35z" />
    <glyph glyph-name="dotaccent" unicode="&#x2d9;" horiz-adv-x="220" 
d="M197 736q44 0 57 -15.5t5 -59.5l-2 -8q-8 -44 -26 -59.5t-61 -15.5h-6q-44 0 -57.5 15.5t-5.5 59.5l2 8q7 43 25.5 59t62.5 16h6z" />
    <glyph glyph-name="ring" unicode="&#x2da;" horiz-adv-x="240" 
d="M61 658q10 55 51.5 86.5t99.5 31.5q57 0 87 -32.5t20 -85.5t-50.5 -84t-97.5 -31q-58 0 -89 30.5t-21 84.5zM226 658q3 16 -5 26t-23 10q-38 0 -45 -36q-2 -15 6.5 -24.5t25.5 -9.5q16 0 27.5 9t13.5 25z" />
    <glyph glyph-name="ogonek" unicode="&#x2db;" horiz-adv-x="252" 
d="M169 4q-78 -72 -80 -119q0 -19 15 -19q8 0 19 6q20 11 23 -6l13 -51q5 -19 -11 -29q-47 -32 -118 -32q-92 0 -95 73q-1 83 110 174z" />
    <glyph glyph-name="tilde" unicode="&#x2dc;" horiz-adv-x="305" 
d="M386 731q24 0 19 -23q-12 -68 -41 -95.5t-79 -27.5q-42 0 -78 20.5t-47 20.5q-15 0 -19 -22q-3 -19 -22 -19h-62q-22 0 -19 23q12 67 41.5 95t76.5 28q43 0 80 -21t48 -21q15 0 19 22q3 20 22 20h61z" />
    <glyph glyph-name="hungarumlaut" unicode="&#x2dd;" horiz-adv-x="395" 
d="M433 719q19 -6 19 -18t-17 -25l-132 -89q-18 -12 -27 -15.5t-21 0.5l-28 6q-20 -13 -36 -8l-43 8q-11 2 -15 8.5t-1.5 14t10.5 15.5l91 97q31 34 70 26l21 -5q19 10 43 3z" />
    <glyph glyph-name="uni0326" unicode="&#x326;" horiz-adv-x="0" 
d="M96 -227q-17 -33 -51 -33h-64q-16 0 -20.5 7t-0.5 23l42 140q6 23 17.5 32.5t33.5 9.5h90q49 0 26 -42z" />
    <glyph glyph-name="pi" unicode="&#x3c0;" horiz-adv-x="677" 
d="M657 520q22 0 28.5 -8t2.5 -30l-15 -85q-4 -22 -13.5 -30.5t-30.5 -8.5h-22l-32 -181q-8 -49 2 -81q12 -40 -32 -56l-105 -40q-22 -9 -33.5 -5.5t-16.5 24.5q-17 68 -3 147l34 192h-99l-57 -320q-4 -21 -13.5 -29.5t-31.5 -8.5h-110q-21 0 -28 8.5t-3 29.5l56 320
q-16 -1 -44 -12q-20 -8 -31.5 -5t-15.5 22l-21 78q-5 20 0.5 30.5t26.5 19.5q75 29 160 29h447z" />
    <glyph glyph-name="uni0401" unicode="&#x401;" horiz-adv-x="588" 
d="M314 906q42 0 55 -15.5t6 -55.5l-2 -13q-8 -40 -26.5 -56t-59.5 -16h-8q-41 0 -54 16t-5 56l2 13q8 41 25.5 56t59.5 15h7zM529 906q42 0 55 -15t5 -56l-2 -13q-8 -40 -26 -56t-59 -16h-7q-42 0 -55.5 16t-5.5 56l2 13q7 40 26 55.5t60 15.5h7zM584 710q24 0 32 -9.5
t4 -32.5l-16 -90q-4 -24 -15.5 -33.5t-34.5 -9.5h-264l-16 -89h211q24 0 31.5 -9.5t3.5 -32.5l-16 -90q-5 -24 -15.5 -33.5t-34.5 -9.5h-211l-17 -96h273q23 0 30.5 -9t3.5 -33l-16 -91q-4 -23 -15 -32.5t-35 -9.5h-427q-24 0 -32 9.5t-3 32.5l110 626q5 23 15.5 32.5
t34.5 9.5h419z" />
    <glyph glyph-name="uni0410" unicode="&#x410;" horiz-adv-x="688" 
d="M638 41q8 -41 -37 -41h-104q-37 0 -51 9t-16 33l-10 72h-217l-35 -72q-12 -24 -28 -33t-52 -9h-110q-42 0 -19 41l342 634q11 21 23 28t35 7h113q22 0 32.5 -7t14.5 -26zM386 388q-3 35 -2.5 66.5t2.5 52.5l3 21h-9q-13 -72 -45 -139l-57 -118h124z" />
    <glyph glyph-name="uni0411" unicode="&#x411;" horiz-adv-x="641" 
d="M607 711q23 0 30.5 -9.5t3.5 -33.5l-13 -78q-4 -24 -15 -33t-35 -9h-285l-16 -89h130q107 0 164 -67t38 -173q-18 -105 -89.5 -162t-179.5 -57h-301q-23 0 -30.5 9t-3.5 31l111 628q5 24 15.5 33.5t34.5 9.5h441zM410 230q11 66 -61 66h-101l-23 -133h100q74 0 85 67z
" />
    <glyph glyph-name="uni0412" unicode="&#x412;" horiz-adv-x="658" 
d="M458 711q103 0 153.5 -53.5t34.5 -143.5q-10 -50 -32.5 -81.5t-65.5 -58.5l-1 -4q92 -44 69 -180q-17 -94 -91.5 -142t-184.5 -48h-300q-24 0 -32 9.5t-3 32.5l110 626q5 24 15.5 33.5t34.5 9.5h293zM440 494q10 56 -52 56h-96l-19 -110h96q61 0 71 54zM414 221
q12 58 -54 58h-115l-21 -117h116q64 0 74 59z" />
    <glyph glyph-name="uni0413" unicode="&#x413;" horiz-adv-x="533" 
d="M549 710q24 0 32 -9.5t4 -32.5l-16 -90q-4 -24 -15.5 -33.5t-34.5 -9.5h-229l-87 -493q-5 -23 -15.5 -32.5t-34.5 -9.5h-113q-24 0 -32 9.5t-3 32.5l110 626q5 23 15.5 32.5t34.5 9.5h384z" />
    <glyph glyph-name="uni0414" unicode="&#x414;" horiz-adv-x="791" 
d="M713 710q24 0 32 -9.5t3 -32.5l-86 -493h48q23 0 30.5 -9t3.5 -32l-43 -245q-4 -23 -15 -32.5t-35 -9.5h-110q-24 0 -31.5 9.5t-3.5 32.5l20 111h-366l-20 -111q-4 -23 -15 -32.5t-35 -9.5h-110q-24 0 -31.5 9.5t-3.5 32.5l43 245q5 23 15.5 32t34.5 9h22q47 35 77 93.5
t50 171.5l40 228q4 23 15 32.5t34 9.5h437zM395 535l-17 -94q-31 -171 -93 -266h179l63 360h-132z" />
    <glyph glyph-name="uni0415" unicode="&#x415;" horiz-adv-x="588" 
d="M584 710q24 0 32 -9.5t4 -32.5l-16 -90q-4 -24 -15.5 -33.5t-34.5 -9.5h-264l-16 -89h211q24 0 31.5 -9.5t3.5 -32.5l-16 -90q-5 -24 -15.5 -33.5t-34.5 -9.5h-211l-17 -96h273q23 0 30.5 -9t3.5 -33l-16 -91q-4 -23 -15 -32.5t-35 -9.5h-427q-24 0 -32 9.5t-3 32.5
l110 626q5 23 15.5 32.5t34.5 9.5h419z" />
    <glyph glyph-name="uni0416" unicode="&#x416;" horiz-adv-x="979" 
d="M1004 710q22 0 26.5 -12t-9.5 -32l-213 -300q21 -29 33 -67l81 -250q7 -21 -1.5 -35t-32.5 -14h-107q-41 0 -57 8t-23 34l-50 184q-7 26 -19 36t-40 10h-8l-41 -230q-4 -23 -15 -32.5t-35 -9.5h-113q-24 0 -31.5 9.5t-3.5 32.5l41 230h-8q-27 0 -41.5 -10t-31.5 -36
l-116 -184q-16 -26 -35 -34t-60 -8h-108q-25 0 -29 14.5t11 34.5l170 250q28 41 58 67l-108 300q-15 44 31 44h114q39 0 52 -6.5t21 -30.5l79 -228q8 1 24 1h7l40 222q4 23 14.5 32.5t34.5 9.5h113q24 0 32 -9.5t4 -32.5l-40 -222h8q14 0 22 -1l158 228q16 24 31.5 30.5
t54.5 6.5h116z" />
    <glyph glyph-name="uni0417" unicode="&#x417;" horiz-adv-x="649" 
d="M635 505q-10 -50 -34 -80.5t-67 -52.5q95 -52 71 -176q-39 -211 -319 -211q-258 0 -291 175q-7 40 36 54l104 35q23 8 33.5 2t15.5 -29q14 -65 114 -65q51 0 74.5 14t28.5 45q12 59 -53 59h-95q-24 0 -32 9.5t-4 32.5l15 83q5 24 15.5 33.5t34.5 9.5h79q60 0 71 55
q5 28 -12 41.5t-56 13.5q-94 0 -132 -65q-13 -24 -25 -29.5t-34 2.5l-90 35q-39 14 -17 54q97 175 339 175q128 0 189 -59t41 -161z" />
    <glyph glyph-name="uni0418" unicode="&#x418;" horiz-adv-x="706" 
d="M685 711q24 0 31.5 -9.5t3.5 -33.5l-110 -626q-5 -23 -16 -32.5t-34 -9.5h-113q-24 0 -31.5 9.5t-3.5 33.5l31 170q4 21 7.5 39t6.5 31t8 29.5t7.5 25t10 27.5t11 26.5t14 33t15.5 36.5h-7q-65 -120 -130 -206l-179 -235q-16 -20 -46 -20h-121q-24 0 -31.5 9.5t-3.5 32.5
l111 626q4 23 14.5 32.5t34.5 9.5h113q24 0 32 -9.5t4 -32.5l-30 -171q-15 -81 -29 -124t-52 -123h7q48 85 70.5 121t61.5 87l178 233q16 20 45 20h120z" />
    <glyph glyph-name="uni0419" unicode="&#x419;" horiz-adv-x="706" 
d="M435 754q-65 0 -106 27.5t-51 78.5q-5 24 23 35l71 25q17 6 23.5 3.5t11.5 -15.5q13 -33 50 -33q35 0 59 33q10 13 17 15t22 -2l65 -26q26 -10 11 -35q-59 -106 -196 -106zM685 711q24 0 31.5 -9.5t3.5 -33.5l-110 -626q-5 -23 -16 -32.5t-34 -9.5h-113q-24 0 -31.5 9.5
t-3.5 33.5l31 170q4 21 7.5 39t6.5 31t8 29.5t7.5 25t10 27.5t11 26.5t14 33t15.5 36.5h-7q-65 -120 -130 -206l-179 -235q-16 -20 -46 -20h-121q-24 0 -31.5 9.5t-3.5 32.5l111 626q4 23 14.5 32.5t34.5 9.5h113q24 0 32 -9.5t4 -32.5l-30 -171q-15 -81 -29 -124t-52 -123
h7q48 85 70.5 121t61.5 87l178 233q16 20 45 20h120z" />
    <glyph glyph-name="uni041A" unicode="&#x41a;" horiz-adv-x="654" 
d="M600 49q7 -21 -2 -35t-33 -14h-108q-40 0 -56 8t-25 34l-56 179q-8 26 -20.5 38t-39.5 12h-17l-40 -229q-5 -23 -15.5 -32.5t-34.5 -9.5h-113q-24 0 -32 9.5t-3 32.5l110 626q5 23 15.5 32.5t34.5 9.5h113q24 0 32 -9.5t3 -32.5l-39 -222h13h9l183 227q19 24 34 30.5
t52 6.5h116q23 0 27.5 -12t-10.5 -32l-237 -294q33 -23 51 -73z" />
    <glyph glyph-name="uni041B" unicode="&#x41b;" horiz-adv-x="699" 
d="M677 710q24 0 32 -9.5t4 -32.5l-111 -626q-4 -23 -15 -32.5t-35 -9.5h-113q-24 0 -31.5 9.5t-3.5 32.5l87 493h-120l-16 -94q-19 -106 -48 -183.5t-68 -128t-79 -81.5t-93 -55q-23 -11 -34 -6.5t-19 26.5l-41 96q-7 20 0 33t31 25q59 31 96 87.5t60 185.5l40 228
q5 23 15.5 32.5t34.5 9.5h427z" />
    <glyph glyph-name="uni041C" unicode="&#x41c;" horiz-adv-x="827" 
d="M805 711q24 0 31.5 -9t3.5 -33l-110 -628q-5 -23 -15.5 -32t-34.5 -9h-109q-24 0 -31.5 9t-3.5 32l25 143q18 107 89 262h-10q-41 -84 -96 -165l-76 -113q-20 -29 -53 -29h-65q-20 0 -28.5 6t-14.5 23l-38 113q-22 60 -34 165h-9q13 -164 -6 -263l-24 -142
q-4 -23 -15.5 -32t-34.5 -9h-106q-24 0 -31.5 9t-3.5 32l111 628q4 24 15 33t35 9h93q26 0 37 -6t17 -25l107 -328l222 327q13 20 25 26t37 6h101z" />
    <glyph glyph-name="uni041D" unicode="&#x41d;" horiz-adv-x="692" 
d="M671 711q23 0 30.5 -9.5t3.5 -33.5l-110 -626q-5 -23 -15.5 -32.5t-34.5 -9.5h-113q-24 0 -32 9.5t-3 32.5l40 230h-193l-41 -230q-4 -23 -15 -32.5t-35 -9.5h-113q-24 0 -31.5 9.5t-3.5 32.5l111 626q5 24 15.5 33.5t34.5 9.5h113q24 0 31.5 -9.5t3.5 -33.5l-39 -221
h193l39 221q4 24 15.5 33.5t34.5 9.5h114z" />
    <glyph glyph-name="uni041E" unicode="&#x41e;" horiz-adv-x="682" 
d="M61 455q23 130 113.5 200t238.5 70q145 0 213.5 -80t45.5 -212l-31 -181q-23 -129 -113.5 -198t-238.5 -69q-146 0 -214 78.5t-46 210.5zM478 454q8 47 -16 71.5t-76 24.5q-110 0 -127 -96l-35 -198q-8 -47 16 -71.5t77 -24.5q109 0 126 96z" />
    <glyph glyph-name="uni041F" unicode="&#x41f;" horiz-adv-x="687" 
d="M664 710q24 0 32 -9.5t4 -32.5l-111 -626q-4 -23 -15 -32.5t-35 -9.5h-113q-24 0 -31.5 9.5t-3.5 32.5l87 493h-188l-87 -493q-5 -23 -15.5 -32.5t-34.5 -9.5h-113q-24 0 -32 9.5t-3 32.5l110 626q5 23 15.5 32.5t34.5 9.5h499z" />
    <glyph glyph-name="uni0420" unicode="&#x420;" horiz-adv-x="648" 
d="M441 710q117 0 174 -72.5t37 -192.5q-20 -116 -98.5 -174t-198.5 -58h-122l-30 -171q-5 -23 -15.5 -32.5t-34.5 -9.5h-113q-24 0 -32 9.5t-3 32.5l110 626q5 23 15.5 32.5t34.5 9.5h276zM362 388q35 0 58.5 20t29.5 53q6 34 -10.5 54t-51.5 20h-98l-26 -147h98z" />
    <glyph glyph-name="uni0421" unicode="&#x421;" horiz-adv-x="647" 
d="M62 459q22 129 113.5 197.5t239.5 68.5q216 0 249 -178q5 -22 -2.5 -34.5t-31.5 -19.5l-103 -35q-24 -7 -34.5 -1.5t-15.5 28.5q-7 34 -28 49.5t-63 15.5q-58 0 -88.5 -25.5t-39.5 -78.5l-33 -182q-9 -53 12.5 -78.5t79.5 -25.5q79 0 115 65q14 24 26 29.5t33 -2.5
l104 -40q39 -14 17 -54q-94 -173 -323 -173q-145 0 -213.5 79t-46.5 210z" />
    <glyph glyph-name="uni0422" unicode="&#x422;" horiz-adv-x="602" 
d="M620 710q24 0 32 -9.5t3 -32.5l-16 -90q-4 -24 -15 -33.5t-35 -9.5h-148l-87 -493q-5 -23 -15.5 -32.5t-34.5 -9.5h-113q-24 0 -32 9.5t-3 32.5l87 493h-149q-24 0 -31.5 9.5t-3.5 33.5l16 90q5 23 15.5 32.5t34.5 9.5h495z" />
    <glyph glyph-name="uni0423" unicode="&#x423;" horiz-adv-x="629" 
d="M670 710q21 0 24 -10.5t-10 -31.5l-376 -631q-14 -23 -28 -30t-48 -7h-129q-40 0 -14 42l107 172l-133 454q-12 42 30 42h118q38 0 51 -6t19 -31l59 -223l131 223q14 25 27 31t47 6h125z" />
    <glyph glyph-name="uni0424" unicode="&#x424;" horiz-adv-x="862" 
d="M566 735q24 0 32 -9.5t3 -32.5l-7 -43h27q138 0 199.5 -73.5t40.5 -201.5l-9 -53q-23 -126 -107 -191.5t-224 -65.5h-30l-8 -43q-5 -24 -15.5 -33.5t-34.5 -9.5h-113q-24 0 -31.5 9.5t-3.5 33.5l8 43h-30q-137 0 -198 74t-39 203l9 53q22 126 106.5 190.5t224.5 64.5h30
l8 43q4 23 15 32.5t35 9.5h112zM345 480q-93 0 -109 -88l-12 -69q-15 -88 78 -88h21l43 245h-21zM662 392q16 88 -78 88h-21l-43 -245h21q94 0 109 88z" />
    <glyph glyph-name="uni0425" unicode="&#x425;" horiz-adv-x="662" 
d="M697 710q21 0 24 -12t-11 -28l-253 -308l153 -320q9 -16 1 -29t-30 -13h-127q-40 0 -53.5 6t-23.5 31l-66 164l-120 -164q-18 -24 -34 -30.5t-56 -6.5h-124q-23 0 -26.5 12t12.5 30l262 320l-142 308q-8 16 -0.5 28t27.5 12h119q39 0 53 -6t24 -29l63 -154l116 154
q18 24 32.5 29.5t50.5 5.5h129z" />
    <glyph glyph-name="uni0426" unicode="&#x426;" horiz-adv-x="733" 
d="M651 175q24 0 31.5 -9t3.5 -32l-43 -245q-5 -24 -15.5 -33.5t-34.5 -9.5h-103q-24 0 -31.5 9.5t-3.5 33.5l20 111h-435q-24 0 -32 9.5t-3 32.5l110 626q5 23 15.5 32.5t34.5 9.5h113q24 0 32 -9.5t3 -32.5l-87 -493h186l87 493q5 23 15.5 32.5t34.5 9.5h113q24 0 32 -9.5
t3 -32.5l-87 -493h41z" />
    <glyph glyph-name="uni0427" unicode="&#x427;" horiz-adv-x="657" 
d="M635 710q24 0 32 -9.5t3 -32.5l-110 -626q-5 -23 -15.5 -32.5t-34.5 -9.5h-113q-24 0 -32 9.5t-3 32.5l34 195q-49 -7 -103 -7q-146 0 -199.5 75t-28.5 217l26 146q4 23 14.5 32.5t34.5 9.5h113q24 0 32 -9.5t4 -32.5l-29 -160q-9 -51 12 -71.5t83 -20.5q41 0 74 7
l43 245q5 23 15.5 32.5t34.5 9.5h113z" />
    <glyph glyph-name="uni0428" unicode="&#x428;" horiz-adv-x="952" 
d="M929 710q24 0 32 -9.5t4 -32.5l-111 -626q-4 -23 -15 -32.5t-35 -9.5h-764q-24 0 -32 9.5t-3 32.5l110 626q5 23 15.5 32.5t34.5 9.5h113q24 0 32 -9.5t3 -32.5l-87 -493h128l87 493q4 23 15 32.5t34 9.5h114q23 0 31 -9.5t4 -32.5l-87 -493h128l87 493q4 23 14.5 32.5
t34.5 9.5h113z" />
    <glyph glyph-name="uni0429" unicode="&#x429;" horiz-adv-x="1001" 
d="M919 175q24 0 31.5 -9t3.5 -32l-43 -246q-4 -24 -15.5 -33t-34.5 -9h-103q-24 0 -31.5 9t-3.5 33l19 112h-702q-24 0 -32 9.5t-3 32.5l110 626q5 23 15.5 32.5t34.5 9.5h113q24 0 32 -9.5t3 -32.5l-87 -493h128l87 493q4 23 15 32.5t34 9.5h114q23 0 31 -9.5t4 -32.5
l-87 -493h128l87 493q4 23 14.5 32.5t34.5 9.5h113q24 0 32 -9.5t4 -32.5l-87 -493h41z" />
    <glyph glyph-name="uni042A" unicode="&#x42a;" horiz-adv-x="780" 
d="M529 497q118 0 179.5 -71.5t40.5 -189.5q-21 -117 -97.5 -176.5t-196.5 -59.5h-283q-23 0 -30.5 9.5t-3.5 32.5l86 493h-130q-24 0 -31.5 9t-3.5 33l16 91q5 23 15.5 32.5t34.5 9.5h286q23 0 31 -9.5t4 -32.5l-30 -171h113zM457 175q36 0 59.5 20.5t28.5 53.5
q6 33 -10 53t-51 20h-99l-26 -147h98z" />
    <glyph glyph-name="uni042B" unicode="&#x42b;" horiz-adv-x="939" 
d="M615 238q-21 -117 -97.5 -177.5t-195.5 -60.5h-282q-24 0 -31.5 9.5t-3.5 32.5l111 626q4 23 14.5 32.5t34.5 9.5h113q24 0 32 -9.5t4 -32.5l-30 -171h114q118 0 178 -70.5t39 -188.5zM756 670q5 23 15 31.5t32 8.5h118q23 0 30 -9t3 -31l-111 -630q-4 -22 -14 -31
t-33 -9h-118q-22 0 -29.5 8.5t-3.5 31.5zM413 249q6 33 -10.5 53t-50.5 20h-99l-27 -147h99q35 0 59 20.5t29 53.5z" />
    <glyph glyph-name="uni042C" unicode="&#x42c;" horiz-adv-x="645" 
d="M614 238q-21 -117 -97 -177.5t-195 -60.5h-282q-24 0 -32 9.5t-3 32.5l110 626q5 23 15.5 32.5t34.5 9.5h113q24 0 32 -9.5t3 -32.5l-30 -171h115q118 0 177.5 -70.5t38.5 -188.5zM412 249q6 33 -10 53t-51 20h-99l-26 -147h98q36 0 59.5 20.5t28.5 53.5z" />
    <glyph glyph-name="uni042D" unicode="&#x42d;" horiz-adv-x="653" 
d="M65 550q95 175 322 175q145 0 212 -80t44 -212l-31 -181q-23 -130 -112 -198.5t-236 -68.5q-115 0 -183 45t-85 130q-7 40 36 54l105 35q23 8 33.5 2t15.5 -29q12 -65 101 -65q111 0 126 96l4 21h-166q-24 0 -31.5 9.5t-3.5 33.5l15 84q4 24 15 33.5t35 9.5h166l3 17
q8 45 -16 68.5t-77 23.5q-88 0 -126 -65q-13 -23 -25 -28.5t-34 1.5l-90 35q-39 14 -17 54z" />
    <glyph glyph-name="uni042E" unicode="&#x42e;" horiz-adv-x="969" 
d="M368 470q20 120 111.5 187.5t230.5 67.5q142 0 207 -79t42 -211l-31 -181q-23 -130 -112 -199.5t-233 -69.5q-139 0 -207 72.5t-47 194.5l4 20h-89l-41 -230q-4 -23 -15 -32.5t-35 -9.5h-113q-24 0 -31.5 9.5t-3.5 32.5l111 626q4 23 14.5 32.5t34.5 9.5h113
q24 0 32 -9.5t4 -32.5l-39 -221h89zM765 455q15 95 -85 95q-49 0 -79.5 -24.5t-37.5 -70.5l-36 -200q-8 -46 14 -70.5t70 -24.5q101 0 118 95z" />
    <glyph glyph-name="uni042F" unicode="&#x42f;" horiz-adv-x="661" 
d="M65 483q20 113 96 170t193 57h285q24 0 32 -9.5t3 -32.5l-110 -626q-5 -23 -15.5 -32.5t-34.5 -9.5h-113q-24 0 -32 9.5t-3 32.5l34 194h-26q-34 0 -51.5 -10.5t-35.5 -40.5l-84 -143q-15 -26 -34.5 -34t-61.5 -8h-108q-50 0 -17 49l112 171q30 46 41 58q-45 29 -64 82
t-6 123zM345 535q-64 0 -77 -65q-11 -64 55 -64h107l23 129h-108z" />
    <glyph glyph-name="uni0430" unicode="&#x430;" horiz-adv-x="545" 
d="M31 324q19 109 87.5 160t192.5 51t192 -34q23 -12 28 -22.5t0 -35.5l-68 -387q-4 -21 -13.5 -31t-32.5 -16q-99 -24 -217 -24q-112 0 -159.5 62.5t-28.5 168.5zM327 369q-15 4 -39 4q-33 0 -50 -12.5t-22 -42.5l-22 -122q-7 -50 48 -50q32 0 52 5l37 211q2 6 -4 7z" />
    <glyph glyph-name="uni0431" unicode="&#x431;" horiz-adv-x="559" 
d="M436 729q44 0 74 12q24 10 34.5 4t14.5 -30l13 -73q3 -22 -4 -33t-29 -22q-36 -16 -120 -16h-41q-58 0 -89.5 -20t-38.5 -65l-2 -9q45 28 98 28q102 0 151 -58.5t31 -167.5l-14 -83q-39 -211 -282 -211q-120 0 -175 61.5t-37 165.5l33 193q32 176 111 250t240 74h32z
M344 291q9 54 -52 54q-63 0 -72 -54l-16 -92q-11 -53 51 -53t73 53z" />
    <glyph glyph-name="uni0432" unicode="&#x432;" horiz-adv-x="541" 
d="M126 507q79 28 192 28q103 0 153.5 -46.5t37.5 -117.5q-12 -66 -84 -100q38 -13 58 -44t13 -73q-26 -168 -272 -169q-128 0 -191 27q-44 18 -35 69l62 351q11 55 66 75zM327 361q4 18 -8 28t-35 10q-29 0 -44 -5q-5 -2 -5 -6l-12 -65h48q49 0 56 38zM310 164q3 20 -11 31
t-44 11h-52l-15 -78q0 -3 3 -4q16 -4 47 -4q64 0 72 44z" />
    <glyph glyph-name="uni0433" unicode="&#x433;" horiz-adv-x="516" 
d="M60 428q38 53 96 80t151 27q105 0 157 -46.5t38 -122.5q-15 -85 -70.5 -117t-164.5 -39q-98 -6 -105 -44q-3 -18 13.5 -24.5t52.5 -6.5q60 0 88 33q14 15 24.5 18t33.5 -4l68 -26q38 -15 15 -53q-67 -118 -256 -118q-112 0 -167 48.5t-40 125.5t71 114t178 47
q46 4 66.5 11t24.5 25q2 15 -11.5 22t-51.5 7q-49 -1 -79 -29q-15 -15 -24.5 -17.5t-32.5 5.5l-64 29q-39 17 -11 55z" />
    <glyph glyph-name="uni0434" unicode="&#x434;" horiz-adv-x="559" 
d="M162 703q3 23 13.5 32t33.5 9q173 0 236 -31q78 -40 98 -121t-6 -213l-32 -182q-18 -103 -90.5 -157.5t-193.5 -54.5t-175.5 58.5t-35.5 161.5l16 95q17 94 85 143.5t170 49.5q70 0 110 -33q6 50 -8.5 74t-45.5 39q-40 19 -153 19q-24 0 -31.5 9t-3.5 32zM335 291
q8 54 -52 54q-64 0 -72 -54l-17 -92q-9 -53 53 -53t71 53z" />
    <glyph glyph-name="uni0435" unicode="&#x435;" horiz-adv-x="542" 
d="M31 324q18 101 92 156t193 55q112 0 170.5 -48t46.5 -137q-11 -69 -69 -107t-154 -38q-52 0 -113 6l-4 -21q-11 -64 54 -64q53 0 87 36q14 15 25 18t33 -8l65 -33q36 -19 9 -58q-71 -96 -243 -96q-128 0 -179 65t-32 170zM351 362q6 41 -55 41q-63 0 -76 -62l-3 -11
q37 -5 69 -5q59 0 65 37z" />
    <glyph glyph-name="uni0436" unicode="&#x436;" horiz-adv-x="790" 
d="M488 520q22 0 28.5 -8.5t2.5 -30.5l-24 -141h10h5l90 144q14 22 29.5 29t47.5 7h92q55 0 22 -49l-135 -203q11 -11 19 -36l50 -181q8 -27 -1 -39t-39 -12h-92q-35 0 -48.5 7.5t-17.5 30.5l-18 120q-6 26 -32 29q-2 1 -9 1l-27 -149q-4 -22 -13.5 -30.5t-31.5 -8.5h-109
q-22 0 -28.5 8.5t-2.5 30.5l26 149q-5 0 -8 -1q-28 -1 -43 -29l-61 -120q-12 -23 -28 -30.5t-51 -7.5h-92q-31 0 -35 12.5t13 38.5l114 185q18 27 31 37l-64 198q-15 49 41 49h88q32 0 45.5 -7t19.5 -29l42 -144h6h9l25 141q4 22 13.5 30.5t31.5 8.5h109z" />
    <glyph glyph-name="uni0437" unicode="&#x437;" horiz-adv-x="520" 
d="M42 403q69 132 256 132q106 0 159 -43t40 -119q-11 -74 -77 -104v-3q64 -35 49 -122q-12 -75 -69 -117t-181 -42q-101 0 -160.5 36t-75.5 102q-10 43 37 55l77 22q26 7 34.5 2t12.5 -23q12 -50 82 -50q36 0 50.5 9t17.5 28q3 15 -5.5 23t-28.5 8h-65q-19 0 -25.5 7.5
t-2.5 26.5l11 61q3 19 12 26.5t28 7.5h62q38 0 45 30q2 17 -10 26t-37 9q-43 0 -63.5 -11t-33.5 -33q-11 -18 -20 -23t-33 1l-69 23q-39 13 -17 55z" />
    <glyph glyph-name="uni0438" unicode="&#x438;" 
d="M516 520q22 0 29 -8.5t3 -29.5l-71 -400q-5 -25 -15 -37.5t-37 -22.5q-100 -37 -219 -37q-112 0 -158 60t-27 166l47 271q4 21 14 29.5t32 8.5h109q22 0 29 -8.5t3 -29.5l-48 -274q-5 -29 6.5 -42t42.5 -13q21 0 41 4q7 1 9 9l55 316q4 21 14 29.5t32 8.5h109z" />
    <glyph glyph-name="uni0439" unicode="&#x439;" 
d="M520 669q-62 -111 -204 -111q-70 0 -113.5 28.5t-53.5 82.5q-4 15 1.5 23t22.5 14l72 26q19 5 25.5 2.5t12.5 -15.5q13 -34 53 -34q38 0 63 35q11 13 18 15.5t22 -2.5l69 -27q15 -6 17.5 -13.5t-5.5 -23.5zM516 520q22 0 29 -8.5t3 -29.5l-71 -400q-5 -25 -15 -37.5
t-37 -22.5q-100 -37 -219 -37q-112 0 -158 60t-27 166l47 271q4 21 14 29.5t32 8.5h109q22 0 29 -8.5t3 -29.5l-48 -274q-5 -29 6.5 -42t42.5 -13q21 0 41 4q7 1 9 9l55 316q4 21 14 29.5t32 8.5h109z" />
    <glyph glyph-name="uni043A" unicode="&#x43a;" horiz-adv-x="551" 
d="M488 51q8 -27 -1 -39t-40 -12h-89q-34 0 -46 7t-18 31l-28 120q-8 31 -37 31h-21l-27 -150q-4 -22 -13.5 -30.5t-31.5 -8.5h-109q-22 0 -29 8.5t-3 30.5l78 442q4 22 14 30.5t32 8.5h109q22 0 28.5 -8.5t2.5 -30.5l-24 -141h14h6l110 144q16 22 31 29t47 7h89
q60 0 20 -52l-147 -195q17 -12 26 -42z" />
    <glyph glyph-name="uni043B" unicode="&#x43b;" horiz-adv-x="566" 
d="M523 520q22 0 28.5 -8.5t2.5 -29.5l-76 -444q-4 -21 -13.5 -29.5t-31.5 -8.5h-110q-22 0 -28.5 8.5t-2.5 29.5l56 318h-69l-13 -56q-14 -70 -33.5 -122t-37.5 -82t-46 -53.5t-45.5 -32.5t-50.5 -23q-31 -12 -44 20l-39 94q-5 16 -0.5 25t22.5 18q19 10 27.5 16.5t25.5 26
t30.5 56t25.5 91.5l32 148q5 21 14.5 29.5t30.5 8.5h345z" />
    <glyph glyph-name="uni043C" unicode="&#x43c;" horiz-adv-x="663" 
d="M619 520q25 0 31.5 -9t2.5 -32l-78 -441q-4 -22 -13.5 -30t-31.5 -8h-90q-22 0 -29 8.5t-3 30.5l14 78q12 72 63 182h-7q-32 -63 -56 -98l-52 -73q-12 -17 -22 -23t-30 -6h-47q-19 0 -27.5 6t-14.5 24l-26 72q-12 36 -20 98h-7q10 -125 -1 -183l-14 -77
q-4 -22 -14.5 -30.5t-32.5 -8.5h-88q-22 0 -28.5 7.5t-2.5 30.5l77 441q5 23 15.5 32t34.5 9h85q23 0 33 -6.5t17 -24.5l69 -203l142 202q13 18 25 25t34 7h92z" />
    <glyph glyph-name="uni043D" unicode="&#x43d;" horiz-adv-x="558" 
d="M518 520q22 0 28.5 -8.5t2.5 -29.5l-78 -444q-4 -21 -13.5 -29.5t-31.5 -8.5h-110q-21 0 -28 8.5t-3 29.5l25 144h-103l-26 -144q-4 -21 -13.5 -29.5t-31.5 -8.5h-110q-22 0 -28.5 8.5t-2.5 29.5l78 444q4 21 13.5 29.5t31.5 8.5h110q22 0 28.5 -8.5t2.5 -29.5l-24 -136
h104l24 136q4 21 14 29.5t31 8.5h110z" />
    <glyph glyph-name="uni043E" unicode="&#x43e;" horiz-adv-x="550" 
d="M30 323q19 103 91.5 157.5t193.5 54.5q120 0 174 -61t36 -165l-19 -112q-19 -103 -91.5 -157.5t-194.5 -54.5q-119 0 -173 61t-36 165zM341 321q11 54 -53 54q-61 0 -72 -54l-21 -122q-11 -53 52 -53q62 0 73 53z" />
    <glyph glyph-name="uni043F" unicode="&#x43f;" 
d="M116 498q100 37 219 37q113 0 159 -57.5t28 -162.5l-49 -277q-4 -21 -14 -29.5t-31 -8.5h-110q-22 0 -28.5 8.5t-2.5 29.5l48 274q5 29 -7 42t-43 13q-26 0 -45 -4q-2 -1 -4 -4l-56 -321q-4 -21 -14 -29.5t-32 -8.5h-109q-22 0 -29 8.5t-3 29.5l71 400q5 25 15 37.5
t37 22.5z" />
    <glyph glyph-name="uni0440" unicode="&#x440;" horiz-adv-x="547" 
d="M116 501q92 34 214 34q115 0 162 -60.5t28 -165.5l-19 -109q-38 -215 -270 -215q-13 0 -60 5l-30 -171q-4 -22 -13.5 -30t-31.5 -8h-110q-22 0 -28.5 8t-2.5 30l110 624q5 25 14.5 36.5t36.5 21.5zM337 324q9 49 -48 49q-30 0 -47 -5q-3 -1 -5 -6l-37 -211q20 -5 43 -5
q62 0 72 55z" />
    <glyph glyph-name="uni0441" unicode="&#x441;" horiz-adv-x="517" 
d="M31 324q38 211 279 211q89 0 138.5 -38.5t60.5 -101.5q4 -22 -4 -33.5t-31 -19.5l-89 -30q-25 -8 -35 -2t-15 29q-9 40 -55 40q-53 0 -64 -55l-22 -129q-5 -26 6.5 -40t36.5 -14q42 0 67 41q12 22 24.5 27.5t34.5 -2.5l91 -29q41 -13 16 -56q-81 -137 -259 -137
q-120 0 -169 61t-30 168z" />
    <glyph glyph-name="uni0442" unicode="&#x442;" horiz-adv-x="814" 
d="M444 508q79 27 158 27q109 0 153 -57.5t25 -162.5l-49 -277q-4 -21 -14 -29.5t-31 -8.5h-110q-22 0 -28.5 8.5t-2.5 29.5l48 276q10 53 -41 53q-20 0 -43 -5q0 -19 -5 -46l-49 -278q-4 -21 -13.5 -29.5t-31.5 -8.5h-110q-21 0 -28 8.5t-3 29.5l49 276q4 29 -5.5 41
t-36.5 12q-17 0 -35 -3q-3 -1 -5 -6l-56 -320q-4 -21 -14 -29.5t-32 -8.5h-109q-22 0 -29 8.5t-3 29.5l71 400q5 25 15 37.5t37 22.5q100 37 210 37q74 0 118 -27z" />
    <glyph glyph-name="uni0443" unicode="&#x443;" horiz-adv-x="558" 
d="M516 520q22 0 28.5 -8.5t2.5 -29.5l-85 -487q-41 -225 -280 -225q-82 0 -129 25t-70 76q-17 38 28 58l85 39q26 9 35 6t18 -19q19 -33 58 -33q55 0 66 58l6 39q-27 -4 -68 -4q-112 0 -158 62t-27 168l42 237q4 21 13.5 29.5t31.5 8.5h110q22 0 28.5 -8.5t2.5 -29.5
l-43 -244q-10 -55 51 -55q27 0 47 4l52 295q4 21 14 29.5t31 8.5h110z" />
    <glyph glyph-name="uni0444" unicode="&#x444;" horiz-adv-x="760" 
d="M514 534q8 1 25 1q117 0 165.5 -67t26.5 -184l-13 -73q-20 -114 -87.5 -170t-187.5 -56q-17 0 -25 1l-30 -168q-4 -21 -14 -29.5t-32 -8.5h-109q-22 0 -29 8.5t-3 29.5l30 168q-8 -1 -25 -1q-117 0 -165.5 66t-26.5 184l13 73q40 227 275 227q17 0 25 -1l30 167
q4 22 14 30.5t31 8.5h110q22 0 29 -8.5t3 -30.5zM196 213q-12 -67 46 -67q4 0 11.5 0.5t10.5 0.5l39 225q-6 1 -20 1q-60 0 -71 -66zM549 307q13 66 -46 66q-15 0 -22 -1l-40 -225q3 0 10.5 -0.5t11.5 -0.5q59 0 70 67z" />
    <glyph glyph-name="uni0445" unicode="&#x445;" horiz-adv-x="552" 
d="M541 520q57 0 18 -45l-172 -207l105 -223q12 -23 4 -34t-40 -11h-96q-33 0 -44 5.5t-20 27.5l-44 114l-81 -114q-15 -22 -29 -27.5t-47 -5.5h-104q-33 0 -37 11t16 34l185 222l-102 208q-23 45 38 45h93q32 0 44.5 -6t20.5 -27l39 -97l73 97q15 22 28 27.5t44 5.5h108z
" />
    <glyph glyph-name="uni0446" unicode="&#x446;" horiz-adv-x="606" 
d="M223 520q22 0 29 -8.5t3 -29.5l-48 -274q-5 -29 6.5 -42t42.5 -13q25 0 48 5l57 324q4 21 14 29.5t32 8.5h109q22 0 29 -8.5t3 -29.5l-57 -318q83 6 65 -90l-29 -175q-4 -21 -14 -29.5t-31 -8.5h-104q-21 0 -28.5 8.5t-3.5 29.5l14 81q2 13 -3 18t-20 2q-63 -15 -135 -15
q-113 0 -156.5 62t-24.5 169l47 266q4 21 14 29.5t32 8.5h109z" />
    <glyph glyph-name="uni0447" unicode="&#x447;" horiz-adv-x="528" 
d="M52 482q4 21 14 29.5t31 8.5h110q22 0 28.5 -8.5t2.5 -29.5l-22 -125q-4 -26 6 -37t37 -11q12 0 23 1.5t16 3.5l5 2l29 166q4 21 14 29.5t31 8.5h110q22 0 28.5 -8.5t2.5 -29.5l-78 -444q-4 -21 -13.5 -29.5t-31.5 -8.5h-110q-21 0 -28 8.5t-3 29.5l20 112q-32 -5 -80 -5
q-99 0 -139.5 56.5t-24.5 153.5z" />
    <glyph glyph-name="uni0448" unicode="&#x448;" horiz-adv-x="814" 
d="M774 520q22 0 29 -8.5t3 -29.5l-71 -400q-5 -25 -15 -37.5t-37 -22.5q-100 -37 -210 -37q-74 0 -118 26q-76 -26 -157 -26q-111 0 -153.5 62.5t-23.5 170.5l47 264q4 21 14 29.5t32 8.5h109q22 0 29 -8.5t3 -29.5l-49 -276q-9 -53 42 -53q19 0 42 5q0 19 5 46l49 278
q4 21 13.5 29.5t31.5 8.5h110q22 0 28.5 -8.5t2.5 -29.5l-48 -276q-10 -53 41 -53q16 0 34 3q6 0 6 8l56 318q4 21 14 29.5t32 8.5h109z" />
    <glyph glyph-name="uni0449" unicode="&#x449;" horiz-adv-x="864" 
d="M68 482q4 21 14 29.5t32 8.5h109q22 0 29 -8.5t3 -29.5l-49 -276q-9 -53 42 -53q19 0 42 5q0 19 5 46l49 278q4 21 13.5 29.5t31.5 8.5h110q22 0 28.5 -8.5t2.5 -29.5l-48 -276q-10 -53 41 -53q22 0 39 5l57 324q4 21 14 29.5t32 8.5h109q22 0 29 -8.5t3 -29.5l-57 -318
q83 6 65 -90l-29 -175q-4 -21 -14 -29.5t-31 -8.5h-104q-21 0 -28.5 8.5t-3.5 29.5l14 81q2 13 -2.5 18t-20.5 1q-73 -14 -122 -14q-74 0 -118 26q-76 -26 -157 -26q-111 0 -153.5 62.5t-23.5 170.5z" />
    <glyph glyph-name="uni044A" unicode="&#x44a;" horiz-adv-x="614" 
d="M334 385q40 6 69 6q42 0 76.5 -11t61.5 -34t37.5 -64.5t0.5 -96.5q-16 -95 -81.5 -147.5t-174.5 -52.5q-115 0 -195 34q-23 11 -29 22t-2 36l50 286h-89q-22 0 -29 8.5t-3 29.5l15 81q4 21 13.5 29.5t31.5 8.5h234q22 0 28.5 -8.5t2.5 -29.5zM294 146q15 -5 42 -5
q56 0 65 51q10 53 -51 53q-19 0 -44 -5l-15 -88q-1 -5 3 -6z" />
    <glyph glyph-name="uni044B" unicode="&#x44b;" horiz-adv-x="760" 
d="M236 382q40 6 69 6q90 0 143 -49.5t34 -155.5q-17 -95 -82 -146.5t-174 -51.5q-114 0 -196 34q-23 11 -29 22t-2 36l72 405q4 21 14 29.5t32 8.5h105q22 0 29 -8.5t3 -29.5zM719 520q22 0 28.5 -8.5t2.5 -29.5l-78 -444q-4 -21 -13.5 -29.5t-31.5 -8.5h-110
q-22 0 -28.5 8.5t-2.5 29.5l78 444q4 21 13.5 29.5t31.5 8.5h110zM196 146q15 -5 43 -5q56 0 65 52q8 52 -52 52q-20 0 -43 -5l-16 -88q0 -4 3 -6z" />
    <glyph glyph-name="uni044C" unicode="&#x44c;" horiz-adv-x="517" 
d="M236 382q40 6 69 6q90 0 143 -49.5t34 -155.5q-17 -95 -82 -146.5t-174 -51.5q-114 0 -196 34q-23 11 -29 22t-2 36l72 405q4 21 14 29.5t32 8.5h105q22 0 29 -8.5t3 -29.5zM196 146q15 -5 43 -5q56 0 65 52q8 52 -52 52q-20 0 -43 -5l-16 -88q0 -4 3 -6z" />
    <glyph glyph-name="uni044D" unicode="&#x44d;" horiz-adv-x="520" 
d="M37 402q70 133 246 133q124 0 176.5 -61.5t34.5 -166.5l-19 -109q-19 -106 -83 -159.5t-185 -53.5q-187 0 -219 138q-11 41 36 56l77 22q25 6 34.5 1.5t13.5 -20.5q5 -13 8 -19.5t10 -15.5t19.5 -13t29.5 -4q66 0 75 57l2 8l-97 1q-19 0 -25.5 7.5t-2.5 26.5l11 64
q3 19 12 26.5t28 7.5h97l1 7q6 30 -7.5 43t-48.5 13q-31 0 -48.5 -11.5t-33.5 -35.5q-12 -17 -22.5 -22t-33.5 2l-69 23q-39 14 -17 55z" />
    <glyph glyph-name="uni044E" unicode="&#x44e;" horiz-adv-x="788" 
d="M283 355q22 89 91.5 134.5t180.5 45.5q119 0 172 -61.5t35 -166.5l-19 -113q-37 -209 -280 -209q-111 0 -164.5 48.5t-46.5 142.5v6h-45l-26 -144q-4 -21 -13.5 -29.5t-31.5 -8.5h-110q-22 0 -28.5 8.5t-2.5 29.5l78 444q4 21 13.5 29.5t31.5 8.5h110q22 0 28.5 -8.5
t2.5 -29.5l-24 -136h46zM579 321q9 54 -51 54q-58 0 -69 -54l-21 -122q-11 -53 49 -53q61 0 70 53z" />
    <glyph glyph-name="uni044F" unicode="&#x44f;" horiz-adv-x="547" 
d="M506 520q22 0 29 -8.5t3 -29.5l-78 -444q-4 -21 -13.5 -29.5t-31.5 -8.5h-110q-22 0 -28.5 8.5t-2.5 29.5l20 117h-41l-74 -118q-14 -23 -30 -30t-50 -7h-95q-33 0 -37 13t15 38l102 141q-62 50 -44 154q15 86 73 130t147 44h246zM271 376q-38 0 -45 -39
q-4 -17 4.5 -27.5t26.5 -10.5h63l13 77h-62z" />
    <glyph glyph-name="uni0451" unicode="&#x451;" horiz-adv-x="542" 
d="M249 733q41 0 54.5 -15.5t6.5 -55.5l-2 -13q-8 -40 -26.5 -56t-59.5 -16h-8q-41 0 -54 16t-6 56l2 13q8 41 26 56t59 15h8zM464 733q41 0 54 -15t6 -56l-2 -13q-8 -40 -26 -56t-59 -16h-7q-42 0 -55.5 16t-6.5 56l2 13q7 40 26 55.5t61 15.5h7zM31 324q18 101 92 156
t193 55q112 0 170.5 -48t46.5 -137q-11 -69 -69 -107t-154 -38q-52 0 -113 6l-4 -21q-11 -64 54 -64q53 0 87 36q14 15 25 18t33 -8l65 -33q36 -19 9 -58q-71 -96 -243 -96q-128 0 -179 65t-32 170zM351 362q6 41 -55 41q-63 0 -76 -62l-3 -11q37 -5 69 -5q59 0 65 37z" />
    <glyph glyph-name="Wgrave" unicode="&#x1e80;" horiz-adv-x="935" 
d="M507 914q28 27 66 3l126 -83q23 -13 -3 -38l-34 -34q-14 -15 -47 -4l-171 56q-11 4 -14 9.5t1 12.5t14 18zM967 710q22 0 26 -10t-6 -31l-264 -634q-9 -21 -22 -28t-36 -7h-124q-22 0 -33.5 7t-12.5 26l-12 233q-3 90 13 180h-9q-20 -93 -53 -180l-94 -231
q-9 -21 -22.5 -28t-36.5 -7h-120q-44 0 -46 33l-40 636q-2 22 5 31.5t29 9.5h121q28 0 39 -7t12 -30l-1 -262q-2 -85 -18 -177h7q20 100 50 177l108 262q9 23 23 30t39 7h107q26 0 37.5 -7.5t12.5 -29.5l14 -262q4 -68 -11 -177h8q13 74 45 177l89 262q8 22 21.5 29.5
t41.5 7.5h113z" />
    <glyph glyph-name="wgrave" unicode="&#x1e81;" horiz-adv-x="772" 
d="M394 732q28 27 66 2l124 -84q12 -8 10.5 -16t-15.5 -22l-34 -33q-15 -15 -47 -3l-170 60q-16 8 -15 16t17 24zM766 520q27 0 31.5 -9t-7.5 -35l-191 -442q-16 -34 -58 -34h-103q-46 0 -47 34l-9 134q-1 27 1 62.5t4 57.5l2 22h-7q-21 -82 -46 -142l-57 -134
q-14 -34 -58 -34h-92q-44 0 -47 34l-40 442q-3 26 5 35t35 9h92q35 0 46 -7t11 -31l1 -133q0 -23 -4 -62t-8 -67l-4 -27h8q23 103 43 156l54 132q9 24 22.5 31.5t48.5 7.5h64q35 0 45.5 -7t10.5 -31l8 -133q1 -24 -2 -63t-6 -66l-4 -27h8q20 98 40 156l47 132q8 24 22 31.5
t49 7.5h92z" />
    <glyph glyph-name="Wacute" unicode="&#x1e82;" horiz-adv-x="935" 
d="M590 914q46 23 66 -3l40 -58q12 -15 9 -24t-21 -16l-191 -56q-19 -6 -29.5 -5.5t-16.5 10.5l-21 33q-10 14 -7.5 22t16.5 16zM967 710q22 0 26 -10t-6 -31l-264 -634q-9 -21 -22 -28t-36 -7h-124q-22 0 -33.5 7t-12.5 26l-12 233q-3 90 13 180h-9q-20 -93 -53 -180
l-94 -231q-9 -21 -22.5 -28t-36.5 -7h-120q-44 0 -46 33l-40 636q-2 22 5 31.5t29 9.5h121q28 0 39 -7t12 -30l-1 -262q-2 -85 -18 -177h7q20 100 50 177l108 262q9 23 23 30t39 7h107q26 0 37.5 -7.5t12.5 -29.5l14 -262q4 -68 -11 -177h8q13 74 45 177l89 262
q8 22 21.5 29.5t41.5 7.5h113z" />
    <glyph glyph-name="wacute" unicode="&#x1e83;" horiz-adv-x="772" 
d="M473 734q45 25 66 -2l42 -56q11 -15 9 -24t-21 -16l-191 -60q-36 -12 -45 3l-23 33q-10 14 -8 22.5t17 15.5zM766 520q27 0 31.5 -9t-7.5 -35l-191 -442q-16 -34 -58 -34h-103q-46 0 -47 34l-9 134q-1 27 1 62.5t4 57.5l2 22h-7q-21 -82 -46 -142l-57 -134
q-14 -34 -58 -34h-92q-44 0 -47 34l-40 442q-3 26 5 35t35 9h92q35 0 46 -7t11 -31l1 -133q0 -23 -4 -62t-8 -67l-4 -27h8q23 103 43 156l54 132q9 24 22.5 31.5t48.5 7.5h64q35 0 45.5 -7t10.5 -31l8 -133q1 -24 -2 -63t-6 -66l-4 -27h8q20 98 40 156l47 132q8 24 22 31.5
t49 7.5h92z" />
    <glyph glyph-name="Wdieresis" unicode="&#x1e84;" horiz-adv-x="935" 
d="M476 914q42 0 55 -15.5t6 -55.5l-2 -13q-7 -40 -26 -55.5t-61 -15.5h-7q-42 0 -54.5 15.5t-4.5 55.5l2 13q7 41 24.5 56t59.5 15h8zM691 914q41 0 54 -15.5t6 -55.5l-2 -13q-7 -40 -25.5 -55.5t-60.5 -15.5h-7q-41 0 -54.5 15.5t-5.5 55.5l2 13q7 40 25.5 55.5t60.5 15.5
h7zM967 710q22 0 26 -10t-6 -31l-264 -634q-9 -21 -22 -28t-36 -7h-124q-22 0 -33.5 7t-12.5 26l-12 233q-3 90 13 180h-9q-20 -93 -53 -180l-94 -231q-9 -21 -22.5 -28t-36.5 -7h-120q-44 0 -46 33l-40 636q-2 22 5 31.5t29 9.5h121q28 0 39 -7t12 -30l-1 -262
q-2 -85 -18 -177h7q20 100 50 177l108 262q9 23 23 30t39 7h107q26 0 37.5 -7.5t12.5 -29.5l14 -262q4 -68 -11 -177h8q13 74 45 177l89 262q8 22 21.5 29.5t41.5 7.5h113z" />
    <glyph glyph-name="wdieresis" unicode="&#x1e85;" horiz-adv-x="772" 
d="M360 733q42 0 55 -15.5t6 -55.5l-2 -13q-8 -40 -26.5 -56t-59.5 -16h-8q-41 0 -54 16t-5 56l2 13q7 41 25 56t59 15h8zM575 733q42 0 55 -15t5 -56l-2 -13q-8 -40 -26 -56t-59 -16h-7q-42 0 -55.5 16t-5.5 56l2 13q7 40 25.5 55.5t60.5 15.5h7zM766 520q27 0 31.5 -9
t-7.5 -35l-191 -442q-16 -34 -58 -34h-103q-46 0 -47 34l-9 134q-1 27 1 62.5t4 57.5l2 22h-7q-21 -82 -46 -142l-57 -134q-14 -34 -58 -34h-92q-44 0 -47 34l-40 442q-3 26 5 35t35 9h92q35 0 46 -7t11 -31l1 -133q0 -23 -4 -62t-8 -67l-4 -27h8q23 103 43 156l54 132
q9 24 22.5 31.5t48.5 7.5h64q35 0 45.5 -7t10.5 -31l8 -133q1 -24 -2 -63t-6 -66l-4 -27h8q20 98 40 156l47 132q8 24 22 31.5t49 7.5h92z" />
    <glyph glyph-name="Ygrave" unicode="&#x1ef2;" horiz-adv-x="673" 
d="M375 914q28 27 67 3l126 -83q22 -13 -3 -38l-34 -34q-15 -15 -47 -4l-172 56q-16 7 -15 15.5t17 24.5zM717 710q15 0 21.5 -6t4 -15t-11.5 -21l-300 -393l-40 -233q-5 -23 -16 -32.5t-34 -9.5h-114q-23 0 -30.5 9.5t-3.5 32.5l40 233l-160 393q-8 17 -1 29.5t29 12.5h116
q40 0 54 -6t23 -31l71 -204l147 204q17 25 33 31t55 6h117z" />
    <glyph glyph-name="ygrave" unicode="&#x1ef3;" horiz-adv-x="558" 
d="M282 732q28 27 66 2l124 -84q12 -8 10.5 -16t-15.5 -22l-34 -33q-15 -15 -47 -3l-170 60q-16 8 -15 16t17 24zM516 520q22 0 28.5 -8.5t2.5 -29.5l-85 -487q-41 -225 -280 -225q-82 0 -129 25t-70 76q-17 38 28 58l85 39q26 9 35 6t18 -19q19 -33 58 -33q55 0 66 58l6 39
q-27 -4 -68 -4q-112 0 -158 62t-27 168l42 237q4 21 13.5 29.5t31.5 8.5h110q22 0 28.5 -8.5t2.5 -29.5l-43 -244q-10 -55 51 -55q27 0 47 4l52 295q4 21 14 29.5t31 8.5h110z" />
    <glyph glyph-name="endash" unicode="&#x2013;" horiz-adv-x="566" 
d="M488 351q24 0 32 -9t4 -33l-15 -85q-4 -24 -15.5 -33t-34.5 -9h-395q-24 0 -31.5 9t-3.5 33l15 85q4 24 14.5 33t34.5 9h395z" />
    <glyph glyph-name="emdash" unicode="&#x2014;" horiz-adv-x="779" 
d="M702 352q24 0 31.5 -9.5t3.5 -33.5l-16 -86q-4 -24 -15 -33t-35 -9h-607q-23 0 -30.5 9t-3.5 33l15 86q5 24 15.5 33.5t34.5 9.5h607z" />
    <glyph glyph-name="quoteleft" unicode="&#x2018;" horiz-adv-x="259" 
d="M148 674q9 21 21.5 29.5t35.5 8.5h60q18 0 23.5 -6t1.5 -23l-54 -228q-7 -28 -19.5 -39.5t-38.5 -11.5h-92q-56 0 -34 51z" />
    <glyph glyph-name="quoteright" unicode="&#x2019;" horiz-adv-x="256" 
d="M202 442q-9 -21 -21.5 -29.5t-35.5 -8.5h-60q-18 0 -23.5 6t-1.5 23l54 228q7 28 19.5 39.5t38.5 11.5h92q56 0 34 -51z" />
    <glyph glyph-name="quotesinglbase" unicode="&#x201a;" horiz-adv-x="230" 
d="M105 -116q-6 -21 -16.5 -29.5t-31.5 -8.5h-63q-22 0 -28.5 8.5t-2.5 29.5l33 188q4 21 13.5 29.5t31.5 8.5h87q22 0 29.5 -8.5t1.5 -29.5z" />
    <glyph glyph-name="quotedblleft" unicode="&#x201c;" horiz-adv-x="467" 
d="M150 678q9 21 21.5 29.5t35.5 8.5h59q19 0 24 -6t1 -23l-54 -228q-7 -28 -19.5 -39.5t-38.5 -11.5h-92q-57 0 -33 51zM358 678q9 21 21.5 29.5t35.5 8.5h59q19 0 24 -6t1 -23l-54 -228q-7 -28 -19.5 -39.5t-38.5 -11.5h-92q-57 0 -33 51z" />
    <glyph glyph-name="quotedblright" unicode="&#x201d;" horiz-adv-x="465" 
d="M200 434q-9 -21 -21.5 -29.5t-35.5 -8.5h-59q-19 0 -24 6t-1 23l54 229q7 28 19.5 39t38.5 11h92q57 0 33 -50zM408 434q-9 -21 -21.5 -29.5t-35.5 -8.5h-59q-19 0 -24 6t-1 23l54 229q7 28 19.5 39t38.5 11h92q57 0 33 -50z" />
    <glyph glyph-name="quotedblbase" unicode="&#x201e;" horiz-adv-x="466" 
d="M101 -90q-9 -21 -21.5 -29.5t-35.5 -8.5h-60q-18 0 -23.5 6t-1.5 23l54 228q7 28 19.5 39.5t38.5 11.5h92q56 0 34 -51zM309 -90q-9 -21 -21.5 -29.5t-35.5 -8.5h-60q-18 0 -23.5 6t-1.5 23l54 228q7 28 19.5 39.5t38.5 11.5h92q56 0 34 -51z" />
    <glyph glyph-name="dagger" unicode="&#x2020;" horiz-adv-x="542" 
d="M517 531q24 0 32 -9.5t3 -32.5l-16 -91q-4 -24 -15.5 -33t-34.5 -9h-113l-72 -414q-5 -23 -15.5 -32.5t-33.5 -9.5h-103q-24 0 -32 9.5t-3 32.5l72 414h-112q-24 0 -31.5 9t-3.5 33l16 91q5 23 16 32.5t34 9.5h113l24 137q5 24 15.5 33.5t34.5 9.5h102q24 0 31.5 -9.5
t3.5 -33.5l-24 -137h112z" />
    <glyph glyph-name="daggerdbl" unicode="&#x2021;" horiz-adv-x="564" 
d="M404 711q24 0 31.5 -9.5t3.5 -33.5l-24 -137h112q24 0 31.5 -9.5t3.5 -32.5l-16 -91q-4 -24 -15.5 -33t-35.5 -9h-112l-18 -102h113q24 0 31.5 -9t3.5 -33l-16 -91q-4 -23 -15 -32.5t-35 -9.5h-112l-24 -137q-5 -23 -15.5 -32.5t-34.5 -9.5h-102q-24 0 -32 9.5t-4 32.5
l24 137h-111q-24 0 -32 9.5t-3 32.5l16 91q4 24 14.5 33t34.5 9h112l18 102h-112q-24 0 -31.5 9t-3.5 33l16 91q5 23 15.5 32.5t34.5 9.5h112l24 137q4 24 15.5 33.5t34.5 9.5h103z" />
    <glyph glyph-name="bullet" unicode="&#x2022;" horiz-adv-x="396" 
d="M165 114q-64 0 -98 43t-23 107t60.5 106.5t113.5 42.5t98 -42.5t23 -106.5q-11 -63 -61 -106.5t-113 -43.5z" />
    <glyph glyph-name="ellipsis" unicode="&#x2026;" horiz-adv-x="798" 
d="M131 190q45 0 59 -17.5t6 -61.5l-7 -41q-8 -44 -28 -61t-64 -17h-38q-45 0 -59.5 17t-6.5 61l8 41q8 44 28 61.5t64 17.5h38zM399 190q45 0 59 -17.5t6 -61.5l-7 -41q-8 -44 -28 -61t-64 -17h-38q-45 0 -59.5 17t-6.5 61l8 41q8 44 28 61.5t64 17.5h38zM667 190
q45 0 59 -17.5t6 -61.5l-7 -41q-8 -44 -28 -61t-64 -17h-38q-45 0 -59.5 17t-6.5 61l8 41q8 44 28 61.5t64 17.5h38z" />
    <glyph glyph-name="perthousand" unicode="&#x2030;" horiz-adv-x="1286" 
d="M72 569q13 73 66.5 114.5t139.5 41.5t125 -41.5t25 -114.5l-13 -76q-13 -72 -66 -113t-139 -41t-125 41t-26 113zM835 710q21 0 24.5 -12t-11.5 -28l-575 -633q-23 -24 -38 -30.5t-52 -6.5h-91q-22 0 -25.5 13t12.5 29l576 633q21 23 35 29t49 6h96zM291 560q6 36 -35 36
q-44 0 -50 -36l-9 -56q-8 -37 36 -37q41 0 49 37zM507 215q13 74 66.5 115.5t139.5 41.5t124.5 -41.5t26.5 -115.5l-14 -75q-13 -73 -66 -114t-139 -41t-125.5 41t-25.5 114zM890 215q13 74 66.5 115.5t139.5 41.5t124.5 -41.5t26.5 -115.5l-14 -75q-13 -73 -66 -114
t-139 -41t-125.5 41t-26.5 114zM727 206q6 36 -36 36q-43 0 -49 -36l-10 -56q-6 -36 36 -36q43 0 49 36zM1110 206q6 36 -36 36q-43 0 -49 -36l-10 -56q-6 -36 36 -36q43 0 49 36z" />
    <glyph glyph-name="guilsinglleft" unicode="&#x2039;" horiz-adv-x="375" 
d="M300 152q19 -23 -8 -48l-65 -58q-26 -25 -48 0l-159 192q-19 24 9 48l229 196q27 24 48 0l46 -53q11 -14 9 -23.5t-18 -23.5l-137 -117z" />
    <glyph glyph-name="guilsinglright" unicode="&#x203a;" horiz-adv-x="378" 
d="M62 385q-11 13 -9.5 23.5t17.5 23.5l64 54q28 25 48 0l162 -200q11 -13 9.5 -24t-17.5 -24l-226 -192q-29 -23 -47 0l-50 62q-19 24 8 47l137 113z" />
    <glyph glyph-name="fraction" unicode="&#x2044;" horiz-adv-x="264" 
d="M278 675q16 23 29.5 29t48.5 6h96q22 0 27 -11.5t-7 -28.5l-465 -633q-18 -24 -32 -30.5t-51 -6.5h-91q-22 0 -28 12.5t7 29.5z" />
    <glyph glyph-name="zerosuperior" unicode="&#x2070;" horiz-adv-x="385" 
d="M92 673q12 68 61 104.5t129 36.5q78 0 115 -42.5t26 -112.5l-20 -113q-12 -69 -61 -106t-129 -37q-78 0 -115.5 43.5t-25.5 113.5zM286 667q6 26 -23 26q-28 0 -34 -26l-20 -117q-6 -27 24 -27q27 0 33 27z" />
    <glyph glyph-name="foursuperior" unicode="&#x2074;" horiz-adv-x="397" 
d="M395 587q20 0 25 -6.5t3 -23.5l-8 -46q-4 -18 -11 -24.5t-28 -6.5h-11l-6 -35q-7 -34 -38 -34h-65q-18 0 -23.5 8t-1.5 26l6 35h-159q-21 0 -27 8t-2 27l4 31q6 29 22 43l194 192q16 16 27.5 20.5t34.5 4.5h51q24 0 31 -8t3 -32l-32 -179h11zM267 653l-66 -66h55z" />
    <glyph glyph-name="fivesuperior" unicode="&#x2075;" horiz-adv-x="375" 
d="M397 806q17 0 22.5 -6t2.5 -23l-7 -45q-3 -18 -10 -23.5t-26 -5.5h-139l-7 -25h31q77 0 110 -36.5t23 -97.5q-12 -64 -59.5 -102.5t-123.5 -38.5q-70 0 -106.5 22.5t-48.5 70.5q-9 36 26 48l51 18q21 8 31.5 5.5t16.5 -23.5q8 -30 42 -30q37 0 43 35q5 34 -32 34h-119
q-22 0 -28 8t-1 28l45 157q5 17 15.5 23.5t32.5 6.5h215z" />
    <glyph glyph-name="sixsuperior" unicode="&#x2076;" horiz-adv-x="385" 
d="M226 657q24 6 51 6q150 0 128 -129q-11 -64 -61 -97.5t-130 -33.5q-82 0 -118.5 41t-23.5 116l21 115q24 139 198 139q108 0 137 -70q11 -26 -20 -39l-60 -28q-24 -12 -35 6q-19 21 -40 21q-39 0 -44 -34zM206 543q-6 -31 26 -31q31 0 36 23q2 12 -4.5 17.5t-23.5 5.5
q-10 0 -32 -6z" />
    <glyph glyph-name="sevensuperior" unicode="&#x2077;" horiz-adv-x="342" 
d="M385 806q20 0 26 -6.5t3 -25.5l-6 -32q-4 -23 -17 -40l-170 -267q-10 -15 -20 -19.5t-37 -4.5h-57q-26 0 -29.5 11t11.5 34l151 233h-128q-19 0 -23.5 7t-1.5 28l8 47q4 21 12 28t29 7h249z" />
    <glyph glyph-name="eightsuperior" unicode="&#x2078;" horiz-adv-x="392" 
d="M103 700q10 55 58.5 85t123.5 30q77 0 115.5 -31t29.5 -82q-9 -52 -57 -82q49 -38 37 -97q-21 -120 -196 -120q-89 0 -127 30.5t-28 82.5q8 55 74 92q-41 35 -30 92zM296 694q2 10 -3.5 16t-23.5 6q-31 0 -34 -21q-2 -10 6.5 -16.5t27.5 -13.5q25 13 27 29zM271 523
q2 11 -7 18t-30 16q-31 -15 -35 -33q-2 -10 6 -17t28 -7q34 0 38 23z" />
    <glyph glyph-name="ninesuperior" unicode="&#x2079;" horiz-adv-x="386" 
d="M267 560q-32 -6 -51 -6q-75 0 -106 36t-20 99q22 125 190 125q83 0 119 -39t23 -113l-20 -116q-14 -74 -61 -108.5t-133 -34.5q-58 0 -95.5 19t-50.5 49q-12 25 21 42l59 28q25 12 36 -6q15 -22 42 -22q39 0 45 34zM287 674q6 31 -27 31q-31 0 -34 -23q-2 -11 4 -16.5
t23 -5.5q15 0 32 5z" />
    <glyph glyph-name="zeroinferior" unicode="&#x2080;" horiz-adv-x="385" 
d="M-2 142q12 68 61 104.5t129 36.5q78 0 115.5 -43t25.5 -112l-20 -113q-12 -68 -61 -105.5t-128 -37.5t-116.5 43.5t-25.5 113.5zM193 136q4 26 -24 26q-29 0 -33 -26l-21 -116q-6 -28 24 -28q27 0 33 28z" />
    <glyph glyph-name="oneinferior" unicode="&#x2081;" horiz-adv-x="295" 
d="M201 275q29 0 38 -11t4 -37l-54 -307q-4 -22 -15 -31t-35 -9h-53q-24 0 -31.5 9t-3.5 31l34 191l-29 -14q-41 -21 -56 14l-17 39q-13 34 25 53l116 61q21 11 49 11h28z" />
    <glyph glyph-name="twoinferior" unicode="&#x2082;" horiz-adv-x="373" 
d="M10 189q54 94 178 94q71 0 107 -36t28 -91q-8 -54 -35.5 -87.5t-82.5 -48.5l-46 -12q-22 -5 -23 -10v-2h116q21 0 27.5 -7.5t2.5 -27.5l-8 -47q-3 -18 -12 -26t-28 -8h-247q-20 0 -26.5 7.5t-3.5 26.5l6 33q10 57 35 86t83 48l56 19q21 7 30.5 15t12.5 25q4 23 -19 23
t-38 -23q-16 -21 -24.5 -25.5t-30.5 1.5l-46 18q-19 7 -22 19.5t10 35.5z" />
    <glyph glyph-name="threeinferior" unicode="&#x2083;" horiz-adv-x="380" 
d="M4 191q51 92 182 92q72 0 108.5 -32.5t27.5 -88.5q-8 -49 -53 -77q46 -30 34 -96q-21 -117 -182 -117q-144 0 -158 95q-6 36 24 46l47 16q24 7 33.5 3t15.5 -24q8 -26 49 -26q35 0 36 19q3 12 -2.5 17.5t-23.5 5.5h-28q-17 0 -21.5 5.5t-1.5 23.5l10 50q3 19 9 25t26 6
h20q30 0 34 22q2 10 -4.5 15.5t-21.5 5.5q-43 0 -61 -27q-12 -19 -22 -23.5t-33 3.5l-34 17q-28 12 -10 44z" />
    <glyph glyph-name="fourinferior" unicode="&#x2084;" horiz-adv-x="397" 
d="M301 56q21 0 26 -6t2 -23l-8 -47q-4 -18 -11 -24.5t-28 -6.5h-11l-6 -34q-3 -19 -11.5 -27t-26.5 -8h-65q-18 0 -23 8t-2 27l6 34h-159q-21 0 -27 8t-2 27l4 31q6 27 22 43l194 193q16 15 27.5 19.5t35.5 4.5h50q24 0 31 -8t3 -31l-32 -180h11zM174 122l-67 -66h55z" />
    <glyph glyph-name="fiveinferior" unicode="&#x2085;" horiz-adv-x="375" 
d="M303 275q17 0 22.5 -6t2.5 -23l-7 -45q-3 -18 -10 -23.5t-26 -5.5h-139l-7 -25h31q77 0 110 -36.5t23 -97.5q-12 -64 -59.5 -102.5t-123.5 -38.5q-70 0 -106.5 22.5t-48.5 70.5q-9 36 26 48l51 18q21 8 31.5 5.5t16.5 -23.5q8 -30 42 -30q37 0 43 35q5 34 -32 34h-119
q-22 0 -28 8t-1 28l45 157q5 18 15.5 24t32.5 6h215z" />
    <glyph glyph-name="sixinferior" unicode="&#x2086;" horiz-adv-x="385" 
d="M133 126q24 6 51 6q150 0 128 -128q-12 -65 -61.5 -98.5t-130.5 -33.5q-83 0 -119 41t-22 116l20 116q25 138 198 138q108 0 137 -70q12 -25 -19 -39l-60 -28q-23 -11 -36 6q-17 21 -39 21q-39 0 -45 -34zM113 13q-6 -32 26 -32t35 23q2 12 -4 17.5t-23 5.5t-32 -6z" />
    <glyph glyph-name="seveninferior" unicode="&#x2087;" horiz-adv-x="342" 
d="M291 275q20 0 26 -6.5t3 -24.5l-5 -33q-4 -21 -17 -40l-171 -267q-9 -15 -19.5 -19.5t-36.5 -4.5h-58q-25 0 -29 11t12 35l151 232h-128q-20 0 -24.5 7.5t-1.5 27.5l9 48q3 21 11 27.5t29 6.5h249z" />
    <glyph glyph-name="eightinferior" unicode="&#x2088;" horiz-adv-x="393" 
d="M9 169q10 56 58.5 86t124.5 30q77 0 115 -31t30 -82q-10 -53 -58 -83q49 -35 38 -96q-21 -121 -197 -121q-89 0 -126.5 31t-28.5 82q9 56 74 92q-39 38 -30 92zM203 164q4 22 -28 22q-31 0 -34 -21q-1 -10 7.5 -16.5t27.5 -13.5q23 12 27 29zM178 -7q2 11 -7 18t-30 16
q-33 -18 -35 -33q-2 -11 6 -17.5t28 -6.5q32 0 38 23z" />
    <glyph glyph-name="nineinferior" unicode="&#x2089;" horiz-adv-x="386" 
d="M174 30q-24 -6 -51 -6q-76 0 -107 36t-20 99q23 125 190 125q83 0 119.5 -39t23.5 -113l-21 -116q-13 -74 -60 -108.5t-133 -34.5q-58 0 -96 18.5t-51 49.5q-10 25 22 41l59 29q23 11 36 -6q15 -22 42 -22q39 0 44 34zM194 144q6 31 -27 31q-30 0 -35 -23
q-2 -12 4.5 -17.5t22.5 -5.5q11 0 33 6z" />
    <glyph glyph-name="Euro" unicode="&#x20ac;" horiz-adv-x="761" 
d="M181 493q20 113 110.5 172.5t228.5 59.5q189 0 240 -134q17 -41 -30 -60l-89 -32q-24 -8 -34.5 -5t-20.5 17q-1 1 -5 5.5t-7.5 8t-11.5 9t-16.5 8.5t-22.5 5.5t-30 2.5q-46 0 -77 -16.5t-36 -46.5l-2 -5h165q35 0 19 -33l-23 -49q-15 -31 -49 -31h-137l-7 -37h127
q18 0 22.5 -7.5t-3.5 -25.5l-23 -49q-15 -31 -51 -31h-83l-1 -7q-6 -31 14.5 -43.5t60.5 -12.5q67 0 115 44q14 16 26 19t35 -6l92 -38q42 -19 12 -62q-88 -128 -292 -128q-140 0 -213 53.5t-53 167.5l2 13h-99q-19 0 -23 7.5t4 25.5l23 49q9 18 19.5 24.5t30.5 6.5h63l7 37
h-53q-19 0 -23.5 7.5t3.5 24.5l24 50q8 18 18.5 24.5t30.5 6.5h20z" />
    <glyph glyph-name="uni20BD" unicode="&#x20bd;" horiz-adv-x="702" 
d="M281 200h254q22 0 28.5 -8.5t2.5 -29.5l-9 -47q-5 -22 -14.5 -30.5t-30.5 -8.5h-254l-5 -34q-5 -23 -16 -32.5t-34 -9.5h-114q-23 0 -30.5 9.5t-3.5 32.5l5 34h-35q-22 0 -29 8.5t-3 30.5l9 47q4 21 13.5 29.5t31.5 8.5h36l82 468q5 23 15.5 32.5t33.5 9.5h291
q113 0 166.5 -67.5t33.5 -180.5q-19 -111 -92.5 -166t-189.5 -55h-135zM317 410h102q71 0 83 66q12 65 -61 65h-100z" />
    <glyph glyph-name="uni2113" unicode="&#x2113;" horiz-adv-x="496" 
d="M154 518q10 59 33 102t54.5 66.5t64.5 34.5t70 11q85 0 119.5 -47.5t19.5 -129.5q-15 -86 -72 -166.5t-184 -166.5l-4 -25q-4 -25 6 -37.5t30 -12.5t44 17q25 18 39 -3l49 -73q14 -23 -9 -41q-67 -53 -159 -53q-75 0 -117.5 28t-43.5 99v5l-12 -6q-18 -9 -27.5 -7
t-16.5 17l-30 75q-16 29 15 47q48 26 94 54zM362 556q4 30 -13 30q-26 0 -38 -69l-15 -83q54 54 66 122z" />
    <glyph glyph-name="uni2116" unicode="&#x2116;" horiz-adv-x="1081" 
d="M1077 487q-13 -72 -65.5 -110.5t-139.5 -38.5q-85 0 -123.5 45t-25.5 119l13 75q13 73 65.5 110.5t139.5 37.5q85 0 123.5 -44t25.5 -118zM679 710q24 0 32 -9.5t3 -32.5l-110 -626q-5 -23 -15.5 -32.5t-34.5 -9.5h-110q-28 0 -38 20l-111 237q-22 47 -32 89.5t-20 116.5
h-7q4 -65 2 -123.5t-15 -134.5l-29 -163q-4 -23 -15 -32.5t-35 -9.5h-105q-24 0 -31.5 9.5t-3.5 32.5l111 626q4 23 14.5 32.5t34.5 9.5h114q29 0 39 -20l119 -256q4 -9 8 -18.5t7 -17.5t6.5 -18.5t5.5 -17t4.5 -18.5t4 -17t4.5 -19t3.5 -18t3.5 -20t4 -19h9
q-12 86 -12.5 127t11.5 126l29 164q5 23 15.5 32.5t34.5 9.5h105zM859 503q-8 -36 36 -36q41 0 49 36l10 56q6 36 -36 36q-43 0 -49 -36zM1005 311q24 0 31.5 -9.5t3.5 -32.5l-12 -64q-4 -24 -14.5 -33t-34.5 -9h-274q-24 0 -31.5 9t-3.5 33l11 64q4 23 15 32.5t35 9.5h274z
" />
    <glyph glyph-name="uni2117" unicode="&#x2117;" horiz-adv-x="778" 
d="M38 350q26 151 149.5 255.5t274.5 104.5q150 0 235.5 -104.5t59.5 -255.5t-148.5 -255t-273.5 -104t-237 105t-60 254zM131 350q-20 -112 43.5 -189.5t176.5 -77.5q112 0 202.5 77.5t110.5 189.5q20 114 -43 190.5t-176 76.5t-203.5 -76.5t-110.5 -190.5zM463 534
q64 0 95 -38.5t20 -102.5q-11 -62 -53.5 -94t-108.5 -32h-56l-14 -82q-3 -17 -9 -22t-24 -5h-49q-18 0 -22.5 5t-1.5 22l57 321q2 17 8 22.5t24 5.5h134zM422 364q39 0 44 35q7 35 -31 35h-45l-12 -70h44z" />
    <glyph glyph-name="trademark" unicode="&#x2122;" horiz-adv-x="629" 
d="M312 695q23 0 28.5 -5.5t1.5 -27.5l-4 -21q-4 -22 -11 -27.5t-30 -5.5h-40l-24 -136q-3 -17 -11 -23t-29 -6h-32q-20 0 -25 5.5t-3 23.5l25 136h-48q-18 0 -23 5.5t-2 21.5l6 33q2 15 9 21t25 6h187zM615 695q22 0 27 -5.5t1 -27.5l-33 -190q-3 -18 -10 -23.5t-27 -5.5
h-24q-19 0 -23.5 5.5t-1.5 23.5l6 33q1 16 8 39l-13 -18l-11 -13q-14 -17 -40 -17h-10q-23 0 -31 15l-8 13l-3.5 7t-3.5 8q-1 -15 -5 -34l-6 -33q-2 -18 -8.5 -23.5t-26.5 -5.5h-24q-20 0 -24.5 5.5t-1.5 23.5l33 190q4 21 11.5 27t29.5 6h19q16 0 22.5 -4t13.5 -16l36 -85
l65 84q18 21 42 21h21z" />
    <glyph glyph-name="Omega" unicode="&#x2126;" horiz-adv-x="814" 
d="M62 394q25 145 143 237.5t276 92.5q159 0 244 -93t59 -241q-25 -145 -146 -212h76q24 0 31.5 -9.5t3.5 -33.5l-17 -93q-4 -23 -15 -32.5t-35 -9.5h-269q-20 0 -27.5 9t-3.5 29l14 81q3 20 29 35q64 33 108 88.5t56 121.5q14 84 -22 137.5t-117 53.5q-78 0 -132.5 -54
t-69.5 -137q-12 -66 11 -122.5t78 -88.5q21 -13 16 -35l-14 -80q-7 -38 -45 -38h-269q-24 0 -31.5 9.5t-3.5 32.5l17 93q5 24 15.5 33.5t34.5 9.5h74q-92 84 -69 216z" />
    <glyph glyph-name="estimated" unicode="&#x212e;" horiz-adv-x="796" 
d="M777 331q-4 -25 -31 -25h-521l-30 -169q65 -62 166 -62q153 0 264 133q10 13 17.5 16t25.5 3h43q14 0 16 -5t-6 -19q-62 -98 -163 -158t-212 -60q-153 0 -242.5 108.5t-62.5 261.5t154.5 261.5t280.5 108.5t242.5 -108.5t62.5 -261.5zM626 571q-66 64 -166 64t-188 -64
l-31 -175h354z" />
    <glyph glyph-name="uni2153" unicode="&#x2153;" horiz-adv-x="934" 
d="M296 715q29 0 38 -11t4 -37l-54 -307q-4 -22 -14.5 -31t-34.5 -9h-54q-24 0 -31.5 9t-3.5 31l34 191l-29 -15q-23 -11 -35 -8t-20 22l-18 40q-12 33 25 53l116 60q20 12 49 12h28zM762 710q22 0 27.5 -11.5t-6.5 -28.5l-465 -633q-19 -25 -32.5 -31t-50.5 -6h-67
q-22 0 -28.5 12.5t7.5 29.5l466 633q16 23 29 29t48 6h72zM571 310q53 93 183 93q72 0 108.5 -33t27.5 -88q-5 -27 -16.5 -44t-36.5 -33q46 -31 34 -96q-21 -117 -182 -117q-145 0 -158 95q-6 36 24 46l47 15q24 8 33.5 3.5t14.5 -24.5q8 -26 49 -26q34 0 37 20
q3 12 -2.5 17.5t-23.5 5.5h-28q-17 0 -21.5 5.5t-1.5 23.5l9 50q4 19 10.5 25t25.5 6h20q30 0 34 21q2 11 -4.5 16.5t-22.5 5.5q-41 0 -60 -28q-12 -19 -22 -23t-33 4l-34 16q-27 14 -11 44z" />
    <glyph glyph-name="uni2154" unicode="&#x2154;" horiz-adv-x="989" 
d="M93 630q55 94 178 94q71 0 107 -36.5t28 -91.5q-8 -53 -36 -86.5t-82 -48.5l-46 -12q-22 -5 -23 -10v-2h116q21 0 27.5 -7.5t2.5 -27.5l-8 -47q-3 -18 -12 -26t-28 -8h-247q-21 0 -27 7.5t-3 26.5l6 33q10 57 35 86t83 48l56 18q21 7 30.5 15.5t11.5 25.5q5 23 -18 23
q-22 0 -38 -23q-16 -21 -24.5 -25.5t-30.5 1.5l-47 18q-19 8 -21.5 20t10.5 35zM826 710q22 0 27.5 -11.5t-6.5 -28.5l-465 -633q-19 -25 -32.5 -31t-50.5 -6h-67q-22 0 -28.5 12.5t7.5 29.5l466 633q16 23 29 29t48 6h72zM633 310q51 93 182 93q72 0 108.5 -33t27.5 -88
q-5 -27 -16 -44t-37 -33q46 -31 34 -96q-21 -117 -182 -117q-144 0 -158 95q-6 36 24 46l47 15q24 8 33.5 3.5t15.5 -24.5q8 -26 49 -26q34 0 36 20q3 12 -2.5 17.5t-23.5 5.5h-28q-17 0 -21.5 5.5t-1.5 23.5l10 50q3 19 9.5 25t25.5 6h20q30 0 34 21q2 11 -4.5 16.5
t-21.5 5.5q-42 0 -61 -28q-12 -19 -22 -23t-33 4l-34 16q-27 14 -10 44z" />
    <glyph glyph-name="oneeighth" unicode="&#x215b;" horiz-adv-x="950" 
d="M296 715q29 0 38 -11t4 -37l-54 -307q-4 -22 -14.5 -31t-34.5 -9h-54q-24 0 -31.5 9t-3.5 31l34 191l-29 -15q-23 -11 -35 -8t-20 22l-18 40q-12 33 25 53l116 60q20 12 49 12h28zM769 710q22 0 27 -11.5t-7 -28.5l-465 -633q-18 -24 -32 -30.5t-51 -6.5h-67
q-22 0 -28.5 12.5t7.5 29.5l466 633q16 23 29.5 29t48.5 6h72zM579 288q10 56 58.5 86t124.5 30q77 0 115.5 -31t29.5 -82t-57 -83q48 -35 37 -96q-21 -121 -196 -121q-89 0 -127 31t-29 82q9 55 75 92q-40 37 -31 92zM773 283q4 22 -28 22q-29 0 -33 -21q-2 -10 6.5 -16.5
t27.5 -13.5q25 13 27 29zM748 112q2 11 -7 18t-30 16q-31 -17 -35 -33q-2 -11 6 -17.5t28 -6.5q34 0 38 23z" />
    <glyph glyph-name="threeeighths" unicode="&#x215c;" horiz-adv-x="982" 
d="M87 632q52 93 183 93q72 0 108.5 -33t26.5 -89q-8 -48 -52 -76q46 -31 34 -97q-20 -116 -183 -116q-144 0 -158 94q-4 36 25 46l47 16q24 8 33.5 3t14.5 -24q8 -26 49 -26q34 0 37 19q2 12 -3.5 17.5t-22.5 5.5h-28q-17 0 -21.5 5.5t-1.5 23.5l9 50q3 19 9.5 25t26.5 6
h19q31 0 35 22q2 11 -4.5 16t-22.5 5q-43 0 -60 -27q-12 -19 -22.5 -23.5t-32.5 4.5l-35 16q-26 14 -10 44zM813 710q22 0 27.5 -12t-7.5 -28l-465 -633q-18 -25 -31.5 -31t-51.5 -6h-67q-22 0 -28 12.5t7 29.5l466 633q16 23 29.5 29t48.5 6h72zM617 288q10 56 58.5 86
t124.5 30q77 0 115 -31t30 -82q-10 -53 -58 -83q49 -35 38 -96q-21 -121 -197 -121q-89 0 -127 31t-28 82q9 56 74 92q-39 38 -30 92zM811 283q1 10 -4.5 16t-23.5 6q-31 0 -34 -21q-1 -10 7.5 -16.5t27.5 -13.5q23 12 27 29zM786 112q1 11 -7.5 18t-29.5 16
q-33 -17 -35 -33q-2 -11 5.5 -17.5t27.5 -6.5q33 0 39 23z" />
    <glyph glyph-name="fiveeighths" unicode="&#x215d;" horiz-adv-x="981" 
d="M385 715q17 0 22.5 -6t2.5 -23l-7 -45q-3 -18 -10 -23.5t-26 -5.5h-139l-7 -25h31q77 0 110 -36.5t23 -97.5q-12 -64 -59.5 -102.5t-123.5 -38.5q-70 0 -106.5 22.5t-48.5 70.5q-9 36 26 48l51 18q21 8 31.5 5.5t16.5 -23.5q8 -30 42 -30q37 0 43 35q5 34 -32 34h-119
q-22 0 -28 8t-1 28l45 157q5 17 15.5 23.5t32.5 6.5h215zM805 710q22 0 27 -11.5t-7 -28.5l-465 -633q-18 -24 -32 -30.5t-51 -6.5h-67q-22 0 -28 12.5t7 29.5l466 633q16 23 29.5 29t48.5 6h72zM615 288q10 56 58.5 86t124.5 30q77 0 115 -31t30 -82q-10 -53 -58 -83
q49 -35 38 -96q-21 -121 -197 -121q-89 0 -127 31t-28 82q9 56 74 92q-39 38 -30 92zM809 283q1 10 -4.5 16t-23.5 6q-31 0 -34 -21q-1 -10 7.5 -16.5t27.5 -13.5q23 12 27 29zM784 112q1 11 -7.5 18t-29.5 16q-33 -17 -35 -33q-2 -11 5.5 -17.5t27.5 -6.5q33 0 39 23z" />
    <glyph glyph-name="seveneighths" unicode="&#x215e;" horiz-adv-x="920" 
d="M379 714q20 0 26 -7t3 -25l-6 -32q-4 -22 -16 -41l-171 -266q-9 -15 -19.5 -19.5t-37.5 -4.5h-57q-26 0 -29.5 11t11.5 34l151 233h-127q-20 0 -24.5 7t-1.5 28l8 47q4 21 12.5 28t28.5 7h249zM732 710q22 0 27 -11.5t-7 -28.5l-465 -633q-18 -24 -32 -30.5t-51 -6.5h-67
q-22 0 -28.5 12.5t7.5 29.5l466 633q16 23 29.5 29t48.5 6h72zM554 288q10 56 58.5 86t124.5 30q77 0 115 -31.5t29 -81.5q-9 -51 -57 -83q49 -35 37 -96q-21 -121 -196 -121q-89 0 -127 31t-28 82q9 56 74 92q-41 37 -30 92zM747 283q2 10 -3.5 16t-23.5 6q-30 0 -34 -21
q-1 -10 7.5 -16.5t27.5 -13.5q23 13 26 29zM722 112q2 11 -7 18t-30 16q-32 -18 -34 -33q-2 -11 5.5 -17.5t27.5 -6.5q34 0 38 23z" />
    <glyph glyph-name="arrowleft" unicode="&#x2190;" horiz-adv-x="745" 
d="M689 403q19 0 25 -8t3 -26l-13 -71q-4 -20 -12.5 -27.5t-27.5 -7.5h-381l72 -88q10 -13 8 -21.5t-16 -22.5l-64 -54q-25 -25 -45 0l-187 226q-27 31 11 63l267 226q15 13 25 13.5t20 -13.5l46 -55q9 -13 7.5 -22t-15.5 -22l-106 -90h383z" />
    <glyph glyph-name="arrowup" unicode="&#x2191;" horiz-adv-x="745" 
d="M652 421q18 -24 -9 -46l-65 -55q-15 -11 -24 -11.5t-19 11.5l-74 89l-67 -382q-5 -34 -40 -34h-73q-19 0 -25 7.5t-3 26.5l67 380l-104 -87q-14 -12 -23 -11.5t-20 11.5l-46 55q-11 13 -9 22.5t18 23.5l266 226q37 31 63 0z" />
    <glyph glyph-name="arrowright" unicode="&#x2192;" horiz-adv-x="745" 
d="M705 366q27 -31 -11 -63l-266 -226q-28 -25 -46 0l-44 54q-10 14 -8 22.5t16 21.5l102 88h-381q-18 0 -24.5 8t-2.5 27l12 71q6 34 40 34h383l-75 90q-9 13 -7.5 21.5t15.5 22.5l65 55q15 14 24.5 13.5t21.5 -13.5z" />
    <glyph glyph-name="arrowdown" unicode="&#x2193;" horiz-adv-x="745" 
d="M473 664q19 0 25 -7.5t3 -26.5l-67 -381l104 88q14 13 23.5 12.5t20.5 -12.5l45 -55q21 -21 -8 -45l-266 -227q-37 -32 -63 0l-186 227q-20 25 8 45l64 55q16 12 25 12t19 -12l73 -86l67 379q5 34 40 34h73z" />
    <glyph glyph-name="uni2196" unicode="&#x2196;" horiz-adv-x="745" 
d="M629 603q23 0 32 -10.5t5 -33.5l-57 -321q-4 -18 -11.5 -24.5t-24.5 -6.5h-80q-18 0 -23 7t-2 25l22 122l-316 -269q-17 -13 -27.5 -13t-21.5 14l-43 51q-19 23 9 48l318 270h-125q-18 0 -24 7t-3 24l14 78q3 18 11.5 25t26.5 7h320z" />
    <glyph glyph-name="uni2197" unicode="&#x2197;" horiz-adv-x="745" 
d="M541 603q18 0 24.5 -7t3.5 -25l-14 -78q-5 -31 -38 -31h-125l223 -270q19 -24 -9 -48l-60 -51q-17 -14 -27.5 -14t-21.5 13l-221 269l-22 -122q-2 -17 -10 -24.5t-26 -7.5h-80q-17 0 -22.5 7t-2.5 24l57 321q7 44 51 44h320z" />
    <glyph glyph-name="uni2198" unicode="&#x2198;" horiz-adv-x="745" 
d="M212 585q28 24 48 1l221 -269l22 122q3 18 10.5 25t25.5 7h80q17 0 22.5 -7t2.5 -25l-56 -321q-5 -23 -17 -33.5t-35 -10.5h-320q-18 0 -24.5 7t-3.5 26l15 78q4 31 37 31h125l-223 270q-19 24 9 48z" />
    <glyph glyph-name="uni2199" unicode="&#x2199;" horiz-adv-x="745" 
d="M584 586q29 23 49 -1l43 -51q20 -24 -9 -48l-317 -270h124q18 0 24 -7t4 -24l-15 -78q-3 -19 -11.5 -26t-26.5 -7h-320q-45 0 -36 44l56 321q4 18 11.5 25t24.5 7h80q18 0 23 -7t2 -25l-22 -122z" />
    <glyph glyph-name="partialdiff" unicode="&#x2202;" horiz-adv-x="559" 
d="M166 703q4 23 14 32t33 9q214 0 285.5 -88.5t37.5 -280.5l-32 -181q-18 -102 -90.5 -155.5t-193.5 -53.5q-120 0 -173.5 62t-35.5 167l14 82q17 95 86 146t171 51q64 0 97 -23q2 63 -38 86.5t-155 23.5q-23 0 -31 9t-4 31zM335 291q8 54 -52 54q-64 0 -72 -54l-17 -92
q-9 -53 53 -53t71 53z" />
    <glyph glyph-name="Delta" unicode="&#x2206;" horiz-adv-x="680" 
d="M449 710q22 0 32 -7t14 -26l119 -506q8 -37 8.5 -43t-2.5 -36l-8 -50q-5 -23 -16 -32.5t-34 -9.5h-549q-23 0 -30.5 9.5t-3.5 32.5l8 50q5 27 36 79l296 506q11 19 23 26t34 7h73zM390 366q-17 92 -8 152h-10q-14 -64 -63 -152l-111 -209h230z" />
    <glyph glyph-name="product" unicode="&#x220f;" horiz-adv-x="733" 
d="M737 710q24 0 32 -9.5t3 -32.5l-16 -90q-4 -24 -15 -33.5t-35 -9.5h-47l-104 -593q-5 -23 -15.5 -32.5t-33.5 -9.5h-113q-24 0 -32 9.5t-3 32.5l104 593h-111l-104 -593q-5 -23 -15.5 -32.5t-34.5 -9.5h-112q-24 0 -32 9.5t-4 32.5l105 593h-47q-24 0 -31.5 9.5
t-3.5 33.5l16 90q4 23 15 32.5t34 9.5h600z" />
    <glyph glyph-name="summation" unicode="&#x2211;" horiz-adv-x="617" 
d="M426 357q14 -27 10.5 -47.5t-27.5 -48.5l-154 -186h249q24 0 31.5 -9t3.5 -33l-16 -91q-5 -23 -15.5 -32.5t-34.5 -9.5h-473q-24 0 -32 9.5t-3 32.5l10 61q4 24 21 42l230 263l-133 256q-11 20 -6 44l11 60q4 23 14.5 32.5t34.5 9.5h463q24 0 32 -9.5t4 -32.5l-16 -90
q-5 -24 -15.5 -33.5t-34.5 -9.5h-242z" />
    <glyph glyph-name="minus" unicode="&#x2212;" horiz-adv-x="593" 
d="M523 411q24 0 31.5 -9t3.5 -33l-15 -86q-4 -24 -15 -33t-35 -9h-416q-24 0 -31.5 9t-3.5 33l15 86q4 24 15 33t35 9h416z" />
    <glyph glyph-name="uni2215" unicode="&#x2215;" horiz-adv-x="671" 
d="M538 675q21 23 35 29t48 6h96q22 0 25.5 -11.5t-11.5 -28.5l-577 -633q-23 -24 -37.5 -30.5t-51.5 -6.5h-91q-22 0 -26 12.5t12 29.5z" />
    <glyph glyph-name="uni2219" unicode="&#x2219;" horiz-adv-x="273" 
d="M170 383q44 0 58.5 -17.5t6.5 -61.5l-7 -41q-8 -44 -28 -61t-65 -17h-38q-44 0 -58.5 17t-6.5 61l7 41q8 45 28 62t65 17h38z" />
    <glyph glyph-name="radical" unicode="&#x221a;" horiz-adv-x="762" 
d="M809 750q22 0 26.5 -9.5t-6.5 -31.5l-385 -780q-16 -35 -58 -35h-115q-22 0 -32 7t-14 26l-66 350h-111q-24 0 -31.5 9.5t-3.5 33.5l15 85q4 24 15.5 33t34.5 9h187q40 0 53.5 -7t17.5 -30l26 -163q5 -35 4.5 -68.5t-3.5 -57.5l-3 -24h10q17 82 47 149l214 467
q11 23 24.5 30t48.5 7h105z" />
    <glyph glyph-name="infinity" unicode="&#x221e;" horiz-adv-x="762" 
d="M394 380q85 98 184 98q82 0 123 -55.5t27 -146.5q-13 -85 -80 -134t-145 -49q-51 0 -88.5 24t-55.5 67q-31 -38 -78.5 -64.5t-103.5 -26.5q-77 0 -119.5 60t-28.5 141q14 84 75.5 134t146.5 50q99 0 143 -98zM277 287q-3 4 -8.5 11t-8.5 10.5t-8 8.5t-9 7.5t-10 4.5
t-13 2q-23 0 -37.5 -12.5t-17.5 -31.5q-3 -20 6.5 -33.5t30.5 -13.5q28 0 75 47zM591 287q2 18 -7.5 31t-31.5 13q-31 0 -73 -44q14 -25 26.5 -36t31.5 -11q20 0 35 13.5t19 33.5z" />
    <glyph glyph-name="integral" unicode="&#x222b;" horiz-adv-x="416" 
d="M154 527q19 111 90 162t200 51q22 0 29 -8.5t3 -30.5l-15 -85q-4 -22 -14 -31t-33 -9q-38 0 -54 -16.5t-23 -56.5l-90 -514q-19 -110 -89.5 -159.5t-199.5 -49.5q-22 0 -29.5 8.5t-2.5 30.5l14 85q4 22 14.5 31t32.5 9q38 0 54 15.5t23 53.5z" />
    <glyph glyph-name="approxequal" unicode="&#x2248;" horiz-adv-x="576" 
d="M83 488q68 52 144 53q38 1 95.5 -17.5t81.5 -17.5q29 3 56 21q23 17 35.5 17t22.5 -19l32 -69q12 -18 11 -32.5t-21 -29.5q-65 -53 -143 -54q-44 -2 -97.5 16.5t-74.5 18.5q-34 0 -62 -20q-22 -16 -34.5 -16t-22.5 18l-33 69q-12 19 -11 32.5t21 29.5zM46 269
q67 53 143 54q40 1 96.5 -18t78.5 -18q33 1 59 21q22 16 34.5 16t22.5 -18l34 -69q11 -18 10 -32.5t-22 -30.5q-63 -50 -138 -53q-43 -2 -98 16.5t-81 18.5q-32 -1 -59 -20q-23 -16 -35 -16.5t-23 18.5l-33 69q-12 19 -10.5 32.5t21.5 29.5z" />
    </font>
</defs>
</svg>
